<svg width="586" height="565" viewBox="0 0 586 565" fill="none" xmlns="http://www.w3.org/2000/svg">
<path d="M33.3632 247.217L74.2829 261.709L63.9675 267.696L35.3629 284.036L26.1614 289.313L33.3632 247.217Z" fill="white"/>
<path d="M211.547 471.851L237.038 460.296L181.551 365.749L156.553 387.987L112.558 310.856L88.3579 327.246L48.9823 256.254L34.5281 262.367L82.599 358.078L109.9 334.448L151.339 420.528L176.108 393.67L211.547 471.851Z" fill="white"/>
<path d="M578.978 363.597C577.957 370.537 574.899 377.019 570.192 382.22C565.485 387.422 559.34 391.109 552.536 392.815C545.731 394.522 538.573 394.17 531.969 391.805C525.364 389.441 519.61 385.169 515.435 379.531C511.26 373.894 508.853 367.144 508.517 360.137C508.181 353.13 509.932 346.181 513.549 340.17C517.165 334.159 522.485 329.356 528.833 326.371C535.181 323.385 542.272 322.351 549.209 323.399C558.479 324.799 566.816 329.815 572.395 337.349C577.975 344.883 580.342 354.321 578.978 363.597Z" fill="white"/>
<path d="M570.636 362.344C569.855 367.626 567.525 372.559 563.939 376.516C560.354 380.473 555.675 383.278 550.495 384.575C545.315 385.872 539.867 385.603 534.84 383.802C529.813 382.001 525.433 378.748 522.255 374.457C519.077 370.166 517.244 365.028 516.988 359.694C516.732 354.36 518.064 349.07 520.815 344.494C523.567 339.917 527.614 336.26 532.446 333.985C537.277 331.71 542.674 330.92 547.955 331.714C551.455 332.236 554.819 333.442 557.854 335.263C560.888 337.085 563.534 339.486 565.64 342.331C567.746 345.175 569.272 348.406 570.129 351.84C570.986 355.274 571.158 358.843 570.636 362.344Z" fill="white"/>
<path d="M570.763 361.546C570.572 360.452 570.496 359.341 570.535 358.23C570.365 355.271 569.741 352.356 568.687 349.586C567.952 347.694 567.009 345.89 565.877 344.206C564.581 342.286 563.041 340.541 561.295 339.017C560.357 338.183 559.354 337.426 558.296 336.752C557.208 336.034 556.066 335.403 554.878 334.866C553.651 334.304 552.381 333.838 551.081 333.473C549.744 333.105 548.382 332.834 547.006 332.663C545.624 332.502 544.232 332.447 542.842 332.499C541.49 332.557 540.145 332.713 538.817 332.967C537.525 333.209 536.255 333.556 535.02 334.005C533.836 334.415 532.685 334.914 531.577 335.499C529.524 336.58 527.619 337.919 525.907 339.485C524.417 340.861 523.081 342.393 521.92 344.055C520.256 346.504 518.975 349.193 518.123 352.028C517.906 353.119 517.575 354.184 517.135 355.205C516.966 354.081 517.035 352.934 517.338 351.839C517.925 348.794 519.071 345.884 520.717 343.257C521.856 341.418 523.207 339.719 524.742 338.194C526.513 336.456 528.515 334.97 530.691 333.777C531.865 333.123 533.088 332.56 534.349 332.094C535.667 331.603 537.021 331.214 538.399 330.929C539.825 330.636 541.273 330.458 542.728 330.398C545.718 330.269 548.71 330.624 551.588 331.448C552.983 331.854 554.346 332.366 555.663 332.98C556.938 333.576 558.166 334.27 559.334 335.056C560.45 335.819 561.508 336.665 562.498 337.587C565.943 340.712 568.527 344.669 570.003 349.079C570.981 352.022 571.41 355.12 571.269 358.218C571.335 359.35 571.162 360.484 570.763 361.546Z" fill="#412D89"/>
<path d="M544.576 374.71L543.956 379.367L539.792 378.798L540.412 374.267C536.73 373.648 533.296 372.008 530.501 369.533L533.476 364.774C535.638 366.763 538.282 368.155 541.146 368.811L542.083 361.876C537.615 360.129 532.678 357.889 533.476 351.94C534.071 347.535 537.792 344.181 544.462 344.346L545.082 339.726L549.246 340.295L548.639 344.827C551.589 345.394 554.362 346.657 556.727 348.51L553.955 353.345C552.155 351.943 550.094 350.915 547.892 350.32L546.93 357.382C551.398 359.091 556.271 361.319 555.474 367.179C554.891 371.482 551.221 374.798 544.576 374.71ZM542.918 355.724L543.715 349.814C541.437 350.016 540.399 351.079 540.222 352.471C540.045 353.864 541.159 354.927 542.918 355.762V355.724ZM548.715 366.71C548.905 365.255 547.803 364.306 546.107 363.432L545.323 369.179C547.462 369.039 548.525 368.077 548.715 366.748V366.71Z" fill="#412D89"/>
<path d="M553.284 85.4489C552.39 91.4861 549.725 97.1225 545.626 101.645C541.528 106.167 536.18 109.371 530.259 110.853C524.339 112.334 518.112 112.026 512.366 109.967C506.621 107.908 501.615 104.191 497.983 99.2865C494.351 94.3818 492.256 88.5098 491.963 82.4138C491.669 76.3177 493.191 70.2716 496.335 65.0407C499.479 59.8097 504.104 55.629 509.625 53.0277C515.146 50.4264 521.314 49.5214 527.35 50.4272C531.353 51.023 535.199 52.4015 538.669 54.4842C542.139 56.5668 545.164 59.3127 547.573 62.565C549.981 65.8173 551.725 69.5123 552.705 73.4388C553.685 77.3652 553.882 81.4463 553.284 85.4489Z" fill="white"/>
<path d="M546.031 84.3604C545.355 88.9633 543.328 93.2622 540.208 96.7133C537.088 100.164 533.015 102.612 528.503 103.748C523.992 104.883 519.245 104.655 514.863 103.092C510.481 101.528 506.661 98.7007 503.887 94.9661C501.112 91.2315 499.508 86.7579 499.277 82.1113C499.045 77.4648 500.198 72.854 502.587 68.8624C504.977 64.8707 508.497 61.6776 512.702 59.6871C516.907 57.6965 521.608 56.9979 526.21 57.6796C529.265 58.1271 532.201 59.1726 534.851 60.7563C537.502 62.34 539.813 64.4309 541.654 66.9091C543.495 69.3874 544.83 72.2044 545.581 75.1989C546.332 78.1934 546.485 81.3066 546.031 84.3604Z" fill="white"/>
<path d="M546.132 83.6262C545.967 82.6736 545.899 81.7067 545.93 80.7404C545.796 78.1404 545.253 75.5777 544.323 73.1463C543.685 71.4995 542.865 69.9288 541.88 68.4632C540.742 66.7907 539.399 65.2682 537.88 63.9321C537.064 63.2103 536.192 62.5543 535.273 61.9702C534.327 61.3426 533.333 60.7923 532.299 60.3249C531.231 59.8199 530.127 59.3967 528.995 59.0592C527.828 58.7382 526.639 58.5013 525.438 58.3504C524.232 58.2226 523.019 58.1761 521.806 58.2111C520.632 58.259 519.464 58.3987 518.313 58.6288C517.192 58.8341 516.091 59.1347 515.022 59.5275C513.995 59.872 512.996 60.2952 512.035 60.7931C510.245 61.7293 508.586 62.8951 507.099 64.2611C505.8 65.4587 504.637 66.7957 503.631 68.2481C502.164 70.3754 501.04 72.7203 500.302 75.1967C500.109 76.1433 499.821 77.0678 499.441 77.9559C499.294 76.9755 499.355 75.9751 499.618 75.0195C500.132 72.3717 501.128 69.8407 502.555 67.5519C503.548 65.964 504.725 64.4984 506.061 63.1853C507.608 61.6871 509.354 60.4094 511.25 59.3882C512.271 58.8128 513.338 58.3217 514.44 57.92C515.583 57.4878 516.76 57.1491 517.958 56.9075C519.21 56.653 520.479 56.4964 521.755 56.4392C523.061 56.3912 524.368 56.4377 525.666 56.5784C526.95 56.7429 528.22 57.0052 529.463 57.3631C530.685 57.6905 531.878 58.1138 533.033 58.6288C534.14 59.1438 535.202 59.7492 536.209 60.4388C537.188 61.0869 538.115 61.8105 538.981 62.6031C540.577 64.0593 541.969 65.7239 543.12 67.5519C544.115 69.1392 544.918 70.8386 545.512 72.6147C546.367 75.1736 546.745 77.8679 546.626 80.5632C546.69 81.6082 546.522 82.6543 546.132 83.6262Z" fill="#412D89"/>
<path d="M523.325 95.1187L522.781 99.1816L519.161 98.6879L519.692 94.739C516.48 94.2289 513.475 92.8254 511.022 90.6888L513.617 86.5373C515.503 88.2686 517.805 89.4809 520.3 90.0559L521.11 84.0059C517.224 82.4871 512.921 80.5379 513.617 75.3613C514.136 71.5642 517.414 68.6025 523.186 68.7291L523.73 64.7042L527.35 65.1978L526.818 69.1467C529.39 69.6348 531.808 70.733 533.868 72.3489L531.463 76.5637C529.909 75.3225 528.123 74.4019 526.211 73.8551L525.375 80.019C529.274 81.4999 533.501 83.449 532.818 88.5498C532.299 92.3215 529.109 95.2073 523.325 95.1187ZM521.869 78.6647L522.565 73.5134C520.591 73.6906 519.692 74.6398 519.528 75.8296C519.363 77.0193 520.35 77.9053 521.869 78.6268V78.6647ZM526.932 88.2333C527.109 86.9676 526.147 86.1323 524.666 85.3855L523.983 90.4483C525.844 90.1952 526.768 89.4231 526.919 88.1574L526.932 88.2333Z" fill="#412D89"/>
<path d="M191.284 46.3896C193.98 56.2151 193.701 66.6197 190.481 76.2863C187.262 85.9529 181.246 94.447 173.197 100.693C165.147 106.94 155.426 110.657 145.262 111.376C135.099 112.094 124.951 109.781 116.103 104.729C107.254 99.6775 100.104 92.1141 95.5565 82.9966C91.0089 73.879 89.2686 63.6172 90.5559 53.5101C91.8432 43.403 96.1003 33.9051 102.788 26.2186C109.476 18.5321 118.294 13.0026 128.126 10.3301C134.641 8.55068 141.442 8.07189 148.142 8.92105C154.842 9.77021 161.309 11.9307 167.173 15.2791C173.038 18.6276 178.186 23.0984 182.323 28.4364C186.46 33.7743 189.505 39.8748 191.284 46.3896Z" fill="white"/>
<path d="M179.412 49.5665C181.469 57.0551 181.257 64.9858 178.804 72.3541C176.35 79.7225 171.766 86.197 165.63 90.9579C159.495 95.7188 152.084 98.5519 144.337 99.0983C136.591 99.6448 128.856 97.88 122.113 94.0276C115.37 90.1751 109.921 84.4083 106.458 77.4573C102.995 70.5063 101.672 62.6838 102.657 54.9806C103.643 47.2773 106.892 40.0398 111.994 34.1844C117.095 28.3291 123.82 24.1194 131.315 22.0884C141.337 19.3731 152.025 20.7404 161.04 25.8908C170.055 31.0412 176.662 39.5548 179.412 49.5665Z" fill="white"/>
<path d="M179.133 48.3768C178.905 48.4528 178.298 46.8327 176.893 44.0988C174.936 40.2766 172.4 36.78 169.375 33.7328C164.902 29.2277 159.397 25.8823 153.338 23.987C151.606 23.4302 149.833 23.007 148.035 22.7213C146.166 22.4044 144.274 22.2352 142.378 22.215C140.414 22.1875 138.45 22.3102 136.505 22.5821C134.506 22.8576 132.53 23.2806 130.594 23.8478C128.672 24.4754 126.798 25.241 124.987 26.1387C123.226 27.0003 121.534 27.9946 119.924 29.113C118.367 30.193 116.894 31.3905 115.52 32.6949C114.192 33.9414 112.957 35.2823 111.824 36.7072C109.722 39.3482 107.969 42.2495 106.609 45.3392C105.426 48.0388 104.547 50.8618 103.989 53.756C103.19 57.9914 103.053 62.3254 103.584 66.6028C103.951 69.6531 104.356 71.3364 104.128 71.3997C103.901 71.463 103.179 69.8809 102.432 66.8053C101.418 62.4146 101.233 57.8728 101.888 53.4143C102.333 50.3167 103.144 47.283 104.306 44.3772C105.655 41.0282 107.451 37.8774 109.647 35.0111C110.824 33.4508 112.123 31.9864 113.533 30.6319C114.988 29.2021 116.559 27.8941 118.228 26.7209C119.955 25.4903 121.78 24.4024 123.683 23.468C127.599 21.5295 131.806 20.2468 136.138 19.671C138.234 19.3844 140.351 19.2659 142.466 19.3166C144.509 19.355 146.545 19.5624 148.554 19.9368C150.478 20.2741 152.373 20.7564 154.224 21.3797C157.636 22.5229 160.876 24.1238 163.856 26.1387C166.447 27.8958 168.818 29.9566 170.919 32.2772C173.952 35.6064 176.342 39.4686 177.969 43.6685C179.07 46.5922 179.298 48.3262 179.133 48.3768Z" fill="#412D89"/>
<path d="M152.022 81.2846L153.908 87.8535L148.048 89.5369L146.213 83.2085C140.302 84.4741 134.214 84.3096 130.252 82.7148L131.429 74.6271C135.465 75.9961 139.786 76.297 143.972 75.5004L141.163 65.704C134.201 65.9951 126.303 65.9065 123.886 57.5276C122.101 51.3004 125.088 44.6682 134.011 40.9471L132.138 34.4414L137.998 32.7581L139.834 39.0865C144.097 38.1119 148.53 38.1639 152.769 39.2384L151.921 47.3008C148.699 46.4891 145.347 46.3256 142.061 46.8199L144.934 56.7935C151.883 56.4518 159.654 56.5657 162.034 64.8306C163.856 70.9566 160.907 77.5255 152.022 81.2846ZM138.707 57.0466L136.378 48.7184C133.467 50.3132 132.733 52.3636 133.29 54.3001C133.847 56.2366 135.897 56.958 138.707 57.0466ZM152.832 68.2733C152.25 66.2229 150.225 65.6027 147.453 65.4382L149.769 73.5386C152.554 72.0451 153.402 70.1592 152.832 68.2733Z" fill="#412D89"/>
<path d="M76.7261 133.165C75.5529 139.427 72.5483 145.201 68.0926 149.755C63.6369 154.309 57.9304 157.438 51.6952 158.748C45.4601 160.057 38.9766 159.488 33.0654 157.111C27.1542 154.734 22.081 150.657 18.4878 145.396C14.8946 140.134 12.943 133.925 12.88 127.555C12.817 121.184 14.6454 114.937 18.1338 109.606C21.6222 104.275 26.6138 100.098 32.4768 97.605C38.3398 95.1117 44.8107 94.4138 51.0706 95.5996C55.2221 96.381 59.179 97.9726 62.7152 100.283C66.2515 102.594 69.2979 105.579 71.6803 109.068C74.0628 112.556 75.7346 116.48 76.6004 120.615C77.4662 124.749 77.5089 129.014 76.7261 133.165Z" fill="white"/>
<path d="M69.2077 131.735C68.3139 136.508 66.0242 140.909 62.6284 144.38C59.2325 147.851 54.8831 150.237 50.1308 151.236C45.3784 152.234 40.4367 151.8 35.9311 149.989C31.4255 148.177 27.5585 145.07 24.8196 141.06C22.0807 137.05 20.593 132.318 20.5447 127.462C20.4965 122.606 21.8899 117.845 24.5487 113.781C27.2074 109.718 31.0119 106.534 35.4807 104.634C39.9494 102.733 44.8816 102.201 49.6528 103.105C56.0424 104.309 61.6923 108.001 65.3596 113.37C69.0268 118.739 70.411 125.345 69.2077 131.735Z" fill="white"/>
<path d="M69.2966 130.976C69.1588 129.978 69.1291 128.968 69.208 127.963C69.159 125.266 68.6893 122.593 67.8157 120.04C66.5456 116.285 64.3725 112.899 61.4873 110.18C60.6653 109.389 59.7806 108.665 58.842 108.016C57.8784 107.33 56.8628 106.721 55.8043 106.193C54.7075 105.638 53.5692 105.168 52.3996 104.789C51.1942 104.407 49.9634 104.111 48.7164 103.903C47.4591 103.717 46.1903 103.62 44.9194 103.611C43.6946 103.618 42.472 103.716 41.2615 103.903C40.0867 104.084 38.9273 104.355 37.7935 104.713C36.7091 105.056 35.6515 105.479 34.6293 105.978C31.0453 107.686 27.9307 110.24 25.5543 113.421C23.9448 115.581 22.6848 117.982 21.8205 120.534C21.5773 121.514 21.2381 122.468 20.808 123.382C20.7059 122.34 20.84 121.289 21.2003 120.306C21.835 117.564 22.9722 114.963 24.5544 112.636C25.6408 111.014 26.9154 109.527 28.3515 108.206C30.0249 106.697 31.8938 105.42 33.9079 104.409C34.9993 103.851 36.1336 103.381 37.2999 103.004C38.5095 102.601 39.7497 102.296 41.0084 102.093C42.3172 101.87 43.6423 101.755 44.97 101.751C46.3347 101.761 47.6969 101.871 49.0455 102.08C50.3926 102.3 51.7211 102.622 53.0198 103.042C54.2654 103.47 55.4757 103.995 56.6397 104.611C57.7745 105.197 58.862 105.87 59.8925 106.624C60.8803 107.345 61.8151 108.136 62.6897 108.991C65.7168 111.951 67.9273 115.644 69.1067 119.711C69.9024 122.415 70.1858 125.244 69.9421 128.052C69.9275 129.06 69.7079 130.055 69.2966 130.976Z" fill="#412D89"/>
<path d="M45.0968 142.063L44.3627 146.278L40.5656 145.62L41.2744 141.519C37.9413 140.839 34.8691 139.229 32.4146 136.874L35.2877 132.659C37.1843 134.537 39.5344 135.893 42.1097 136.595L43.2109 130.267C39.2113 128.52 34.794 126.318 35.7307 120.939C36.4268 116.952 39.9201 114.041 45.9827 114.395L46.7042 110.231L50.5013 110.876L49.7925 114.977C52.4553 115.598 54.9325 116.843 57.0196 118.61L54.3363 122.901C52.7426 121.567 50.9018 120.561 48.9192 119.939L47.8053 126.267C51.8049 127.976 56.1589 130.166 55.2223 135.469C54.5768 139.494 51.1215 142.379 45.0968 142.063ZM44.2361 124.786L45.1727 119.445C43.097 119.559 42.1224 120.508 41.8946 121.749C41.6667 122.989 42.7173 123.976 44.2361 124.786ZM49.1217 134.988C49.3495 133.722 48.3876 132.773 46.8687 131.925L45.9574 137.114C47.9193 137.013 48.9065 136.178 49.1217 134.988Z" fill="#412D89"/>
<path d="M579.635 416.946L548.891 415.832L554.144 422.464L568.725 440.677L573.408 446.563L579.635 416.946Z" fill="white"/>
<path d="M403.667 518.53L389.883 504.278L451.092 456.435L461.774 477.598L510.858 438.247L522.54 455.347L566.991 418.832L574.927 426.628L518.3 477.18L506.466 454.486L456.712 500.405L447.396 476.256L403.667 518.53Z" fill="white"/>
<path d="M521.198 143.24L480.126 165.111L492.024 169.82L524.932 182.578L535.526 186.704L521.198 143.24Z" fill="#412D89"/>
<path d="M368.088 409.668L339.23 401.492L382.998 292.452L413.033 312.033L447.384 223.295L475.634 236.813L506.074 155.315L522.376 159.479L486.645 268.581L453.953 247.875L423.728 345.7L393.2 321.171L368.088 409.668Z" fill="#412D89"/>
<path d="M581.167 564.664C581.167 564.854 451.067 565.006 290.602 565.006C130.138 565.006 0 564.854 0 564.664C0 564.475 130.075 564.335 290.602 564.335C451.13 564.335 581.167 564.487 581.167 564.664Z" fill="#2E2166"/>
<path d="M338.129 564.373H369.354V513.277H338.129V564.373Z" fill="#EEEEEE"/>
<path d="M464.027 564.373H495.251V477.686H464.027V564.373Z" fill="#EEEEEE"/>
<path d="M526.983 564.361H558.207V532.87H526.983V564.361Z" fill="#EEEEEE"/>
<path d="M401.072 564.361H432.296V488.989H401.072V564.361Z" fill="#EEEEEE"/>
<path d="M275.174 564.373H306.398V470.459H275.174V564.373Z" fill="#EEEEEE"/>
<path d="M212.231 564.361H243.455L243.455 443.55H212.231V564.361Z" fill="#EEEEEE"/>
<path d="M149.288 564.373H180.513L180.513 413.617H149.288L149.288 564.373Z" fill="#EEEEEE"/>
<path d="M86.3199 564.361H117.544L117.544 372.988H86.3199L86.3199 564.361Z" fill="#EEEEEE"/>
<path d="M23.3772 564.361H54.6017L54.6017 312.792H23.3772L23.3772 564.361Z" fill="#EEEEEE"/>
<path d="M503.618 530.503C498.512 520.822 490.942 512.658 481.673 506.836C472.405 501.014 461.764 497.739 450.826 497.342C464.052 482.698 466.66 460.042 459.028 441.842C451.395 423.641 434.6 410.06 415.741 404.213C396.882 398.365 376.264 399.732 357.519 405.782C359.709 391.556 345.47 377.342 331.243 379.557C334.075 377.619 336.076 374.688 336.85 371.345C337.624 368.002 337.114 364.491 335.423 361.505C333.731 358.52 330.98 356.278 327.715 355.224C324.449 354.17 320.907 354.38 317.789 355.813L318.637 251.431H256.618L257.454 355.762C254.315 354.188 250.691 353.88 247.332 354.901C243.972 355.922 241.133 358.194 239.401 361.249C237.669 364.303 237.177 367.906 238.025 371.314C238.874 374.721 240.999 377.672 243.961 379.557C229.735 377.342 215.496 391.556 217.673 405.782C198.89 399.732 178.259 398.353 159.451 404.213C140.643 410.073 123.721 423.629 116.127 441.842C108.533 460.055 111.064 482.698 124.341 497.342C113.401 497.739 102.759 501.014 93.4883 506.836C84.2175 512.658 76.6457 520.822 71.5365 530.503C65.7649 541.793 65.2081 558.462 76.4474 564.361H498.707C509.934 558.462 509.402 541.793 503.618 530.503Z" fill="white"/>
<path d="M76.4097 564.361L74.9035 563.462C73.4513 562.488 72.1686 561.282 71.1065 559.893C69.4506 557.573 68.3309 554.914 67.8283 552.109C67.1369 548.258 67.1841 544.31 67.9675 540.477C68.891 535.63 70.7202 531.001 73.3594 526.833C76.4278 521.786 80.2283 517.222 84.6367 513.29C89.7113 508.701 95.4996 504.969 101.774 502.241L104.306 501.165L106.938 500.241C107.826 499.921 108.73 499.646 109.647 499.418C110.571 499.165 111.482 498.874 112.431 498.671C116.312 497.799 120.265 497.287 124.24 497.14L124.088 497.469C120.095 492.957 116.974 487.743 114.887 482.091C111.996 474.095 110.973 465.544 111.894 457.091C112.816 448.639 115.658 440.509 120.203 433.324C122.135 430.165 124.364 427.199 126.86 424.464C137.54 412.791 151.699 404.873 167.236 401.884C175.454 400.26 183.856 399.766 192.208 400.416C200.863 401.115 209.409 402.814 217.673 405.479L217.294 405.808C216.803 402.37 217.177 398.863 218.382 395.606C219.646 392.229 221.595 389.15 224.107 386.562C226.618 383.975 229.638 381.934 232.976 380.57C236.456 379.165 240.249 378.714 243.962 379.266L243.734 379.823C240.849 377.836 238.813 374.84 238.027 371.426C237.242 368.011 237.764 364.427 239.49 361.378C241.217 358.33 244.023 356.039 247.355 354.958C250.687 353.876 254.304 354.082 257.492 355.534L257.049 355.826C256.771 322.601 256.492 287.567 256.201 251.495V251.166H318.878V251.431C318.587 287.415 318.296 322.31 318.03 355.762L317.587 355.471C320.775 354.018 324.391 353.812 327.724 354.894C331.056 355.976 333.862 358.267 335.589 361.315C337.315 364.363 337.837 367.948 337.052 371.362C336.266 374.776 334.23 377.772 331.345 379.76L331.117 379.203C334.769 378.664 338.498 379.101 341.926 380.469C345.276 381.813 348.31 383.838 350.837 386.416C353.364 388.993 355.329 392.066 356.608 395.442C357.865 398.752 358.257 402.329 357.747 405.833L357.368 405.504C365.632 402.839 374.178 401.14 382.833 400.441C391.172 399.794 399.56 400.284 407.767 401.897C423.287 404.882 437.437 412.776 448.13 424.413C450.623 427.154 452.856 430.12 454.8 433.273C456.724 436.308 458.352 439.52 459.661 442.867C460.938 446.121 461.9 449.491 462.534 452.929C463.143 456.271 463.46 459.658 463.483 463.055C463.497 469.526 462.384 475.951 460.192 482.04C458.101 487.718 454.968 492.955 450.953 497.482L450.813 497.152C454.793 497.299 458.75 497.812 462.635 498.684C463.572 498.899 464.496 499.19 465.419 499.431C466.336 499.661 467.24 499.94 468.128 500.266L470.773 501.19L473.305 502.266C479.589 504.995 485.386 508.732 490.467 513.328C494.866 517.27 498.662 521.838 501.732 526.884C504.361 531.056 506.186 535.684 507.111 540.528C507.881 544.359 507.92 548.301 507.225 552.147C506.717 554.947 505.598 557.6 503.947 559.918C502.889 561.307 501.606 562.51 500.15 563.475C499.163 564.082 498.644 564.373 498.644 564.373L500.125 563.424C501.536 562.44 502.78 561.235 503.808 559.855C505.429 557.538 506.523 554.894 507.01 552.109C507.679 548.285 507.624 544.369 506.846 540.566C505.911 535.75 504.083 531.152 501.454 527.01C498.384 522.001 494.593 517.471 490.202 513.568C485.14 509.007 479.369 505.3 473.115 502.595L470.583 501.532L467.951 500.62C467.067 500.296 466.167 500.018 465.255 499.785C464.331 499.545 463.42 499.266 462.483 499.051C458.622 498.194 454.69 497.69 450.737 497.545H450.32L450.598 497.228C454.565 492.734 457.659 487.541 459.724 481.914C461.894 475.86 462.991 469.473 462.964 463.042C462.929 459.68 462.611 456.327 462.015 453.018C461.381 449.608 460.419 446.268 459.142 443.044C457.841 439.725 456.226 436.538 454.319 433.526C452.392 430.435 450.189 427.525 447.738 424.831C437.114 413.287 423.062 405.465 407.653 402.517C399.491 400.919 391.15 400.437 382.859 401.087C374.254 401.792 365.759 403.491 357.545 406.149L357.089 406.289L357.152 405.82C357.65 402.405 357.267 398.92 356.039 395.695C354.78 392.417 352.858 389.434 350.392 386.933C347.927 384.433 344.971 382.469 341.711 381.165C338.382 379.823 334.758 379.387 331.206 379.899L329.877 380.114L330.991 379.342C333.73 377.435 335.659 374.574 336.399 371.32C337.139 368.065 336.637 364.651 334.991 361.747C333.345 358.844 330.674 356.659 327.501 355.622C324.329 354.585 320.883 354.771 317.84 356.142L317.397 356.344V355.851C317.663 322.424 317.929 287.504 318.22 251.52L318.549 251.849H256.619L256.948 251.52C257.226 287.592 257.505 322.614 257.77 355.851V356.344L257.315 356.142C254.287 354.822 250.879 354.668 247.745 355.708C244.611 356.748 241.971 358.91 240.334 361.778C238.697 364.646 238.177 368.018 238.875 371.246C239.572 374.474 241.438 377.33 244.114 379.266L245.227 380.038L243.886 379.823C240.297 379.293 236.631 379.73 233.267 381.089C229.962 382.428 226.977 384.451 224.508 387.025C219.61 392.088 216.914 399.099 217.939 405.668L218.015 406.137L217.559 405.997C209.346 403.334 200.851 401.635 192.246 400.935C183.95 400.292 175.605 400.773 167.438 402.365C151.992 405.343 137.918 413.221 127.303 424.831C124.833 427.541 122.617 430.473 120.684 433.59C118.771 436.596 117.16 439.784 115.874 443.107C111.018 455.563 110.829 469.355 115.342 481.939C117.413 487.545 120.502 492.72 124.455 497.203L124.734 497.519H124.303C120.359 497.665 116.436 498.169 112.583 499.026C111.646 499.228 110.735 499.519 109.811 499.76C108.887 500 108.001 500.253 107.115 500.582L104.495 501.494L101.964 502.557C95.7114 505.254 89.9401 508.952 84.8772 513.505C80.4895 517.415 76.6948 521.943 73.6125 526.947C70.9856 531.091 69.1529 535.688 68.208 540.502C67.4265 544.309 67.3664 548.229 68.0308 552.058C68.513 554.849 69.6065 557.498 71.233 559.817C72.2582 561.207 73.5071 562.417 74.9288 563.399L76.4097 564.361Z" fill="#2E2166"/>
<path d="M207.105 108.459L285.21 17.5445L360.266 108.459H330.978V256.747H240.051V108.624L207.105 108.459Z" fill="#EEEEEE"/>
<path d="M578.079 256.203L522.781 273.201L536.209 281.669L573.408 304.818L585.369 312.298L578.079 256.203Z" fill="#EEEEEE"/>
<path d="M328.535 543.983L295.21 527.327L374.252 405.162L406.35 435.931L469.128 336.195L500.466 359.192L556.777 267.341L575.712 276.188L506.466 400.302L471.394 367.558L411.501 479.281L379.985 442.411L328.535 543.983Z" fill="#EEEEEE"/>
<g opacity="0.3">
<path d="M361.152 512.493C353.558 507.43 343.762 506.924 334.838 508.696C331.889 509.278 328.624 510.037 326.042 508.506C323.46 506.974 322.599 503.759 321.587 500.912C316.372 486.584 302.07 476.762 287.021 474.256C271.972 471.75 259.897 472.99 246.265 479.787C236.668 484.327 228.48 491.382 222.572 500.203C220.534 503.253 216.825 509.468 216.825 509.468C214.104 511.467 210.497 511.607 207.156 512.151C200.251 513.393 193.857 516.614 188.749 521.422C183.642 526.231 180.042 532.42 178.386 539.237L369.582 536.212C373.176 527.807 368.734 517.517 361.152 512.493Z" fill="#412D89"/>
</g>
<path d="M167.919 551.754C173.893 530.579 197.448 516.049 219.053 520.226C223.597 497.19 245.632 478.901 269.161 478.711C292.691 478.521 315.017 496.431 319.928 519.429C332.902 516.442 346.85 514.227 359.241 519.1C371.632 523.972 381.112 538.503 375.986 550.742" fill="white"/>
<path d="M375.986 550.792C375.986 550.792 375.986 550.666 376.087 550.425C376.188 550.185 376.277 549.83 376.416 549.375C376.628 548.802 376.776 548.208 376.859 547.603C377.052 546.801 377.166 545.983 377.201 545.16C377.479 539.715 375.85 534.344 372.594 529.972C370.375 526.841 367.594 524.15 364.392 522.036C360.602 519.602 356.356 517.966 351.912 517.226C346.872 516.389 341.742 516.235 336.661 516.771C331.044 517.392 325.475 518.39 319.992 519.758H319.7V519.466C317.435 509.701 312.352 500.815 305.082 493.912C297.155 486.244 287.047 481.221 276.148 479.534C269.259 478.537 262.234 479.104 255.593 481.192C243.217 485.103 232.637 493.291 225.748 504.291C222.718 509.198 220.576 514.601 219.42 520.251V520.517H219.141C214.523 519.67 209.794 519.61 205.156 520.34C203.015 520.666 200.9 521.144 198.827 521.77L195.878 522.795C194.891 523.112 194.005 523.605 193.081 523.985C191.347 524.785 189.657 525.676 188.018 526.656L185.753 528.174L184.639 528.921L183.626 529.731L181.652 531.313C181.019 531.832 180.462 532.427 179.88 532.959C179.297 533.49 178.741 534.022 178.234 534.579L176.791 536.224C173.907 539.572 171.543 543.335 169.78 547.388C169.172 548.793 168.856 549.919 168.514 550.653C168.172 551.387 168.096 551.78 168.096 551.78C168.096 551.78 168.501 550.197 169.577 547.324C171.289 543.226 173.62 539.414 176.488 536.022L177.943 534.338C178.449 533.781 179.032 533.263 179.589 532.706C180.146 532.149 180.715 531.567 181.361 531.035L183.335 529.428C183.677 529.149 184.006 528.871 184.36 528.605L185.461 527.845L187.752 526.301C189.414 525.301 191.13 524.392 192.891 523.58C193.815 523.188 194.714 522.681 195.701 522.314L198.688 521.264C200.789 520.621 202.933 520.13 205.105 519.796C209.803 519.03 214.597 519.073 219.281 519.922L218.952 520.15C220.112 514.421 222.28 508.945 225.356 503.974C228.685 498.61 232.921 493.865 237.874 489.951C243.087 485.799 249.009 482.625 255.353 480.584C262.087 478.466 269.213 477.895 276.199 478.914C287.23 480.612 297.461 485.699 305.474 493.469C312.826 500.473 317.957 509.482 320.232 519.378L319.865 519.15C325.385 517.818 330.987 516.858 336.635 516.277C341.765 515.749 346.943 515.924 352.026 516.796C356.539 517.555 360.848 519.235 364.683 521.732C367.913 523.891 370.711 526.634 372.935 529.82C376.201 534.255 377.797 539.701 377.441 545.198C377.385 546.031 377.254 546.857 377.049 547.666C376.942 548.259 376.777 548.84 376.555 549.4C376.391 549.843 376.264 550.185 376.176 550.451C376.127 550.572 376.063 550.687 375.986 550.792Z" fill="#2E2166"/>
<path d="M256.948 225.94C257.758 276.783 217.243 318.804 166.641 319.601C116.038 320.399 74.2453 279.719 73.3973 228.877C72.5493 178.034 113.089 136.013 163.692 135.216C214.294 134.418 256.138 175.11 256.948 225.94ZM121.291 228.13C121.472 236.798 124.217 245.218 129.179 252.327C134.14 259.436 141.097 264.917 149.17 268.076C157.244 271.236 166.072 271.934 174.541 270.081C183.011 268.228 190.741 263.908 196.758 257.665C202.774 251.423 206.807 243.539 208.347 235.007C209.886 226.475 208.865 217.678 205.41 209.727C201.955 201.775 196.222 195.025 188.935 190.328C181.647 185.632 173.132 183.199 164.464 183.337C152.801 183.56 141.704 188.402 133.61 196.801C125.515 205.199 121.084 216.467 121.291 228.13Z" fill="#412D89"/>
<path d="M256.948 225.94C257.758 276.783 217.243 318.804 166.641 319.601L165.869 271.505C177.561 271.319 188.699 266.496 196.835 258.097C204.971 249.697 209.437 238.411 209.25 226.719C209.064 215.027 204.241 203.888 195.842 195.752C187.443 187.617 176.156 183.151 164.464 183.337L163.692 135.241C214.294 134.406 256.125 175.11 256.948 225.94Z" fill="#E0E0E0"/>
<path d="M166.02 320.26L165.236 270.898H165.868C174.446 270.721 182.78 268.011 189.82 263.109C196.861 258.206 202.293 251.33 205.434 243.346C208.575 235.363 209.283 226.628 207.47 218.242C205.657 209.857 201.403 202.195 195.245 196.222C191.183 192.244 186.372 189.112 181.09 187.009C175.808 184.905 170.161 183.873 164.476 183.97H163.843L163.046 134.608H163.679C188.235 134.294 211.912 143.733 229.517 160.856C247.121 177.978 257.214 201.385 257.58 225.94C258.39 277.137 217.61 319.45 166.653 320.272L166.02 320.26ZM166.514 272.163L167.261 318.994C217.23 317.842 257.125 276.239 256.315 225.966C255.955 201.856 246.089 178.863 228.865 161.989C211.64 145.115 188.449 135.725 164.337 135.861L165.084 182.692C176.758 182.789 187.931 187.447 196.217 195.671C204.504 203.894 209.247 215.031 209.433 226.704C209.62 238.377 205.236 249.66 197.216 258.145C189.197 266.629 178.179 271.642 166.514 272.113V272.163Z" fill="#E0E0E0"/>
<path d="M174.88 327.018C115.684 327.98 68.4482 282.036 67.4989 222.548L123.531 221.65C123.987 250.09 145.63 267.987 173.931 267.531L174.88 327.018Z" fill="#EEEEEE"/>
<path d="M99.6726 223.586C100.027 223.827 94.7364 232.142 87.851 242.129C80.9657 252.115 75.0802 260.038 74.7258 259.848C74.3714 259.658 79.6747 251.292 86.56 241.293C93.4454 231.294 99.3308 223.282 99.6726 223.586Z" fill="#2E2166"/>
<path d="M124.05 228.206C124.405 228.459 116.57 240.445 106.558 254.988C96.5467 269.531 88.1172 281.112 87.7628 280.871C87.4084 280.631 95.243 268.645 105.267 254.102C115.292 239.559 123.721 227.965 124.05 228.206Z" fill="#2E2166"/>
<path d="M135.897 253.127C136.264 253.368 129.201 264.227 120.152 277.365C111.102 290.503 103.47 300.958 103.116 300.717C102.761 300.477 109.811 289.617 118.861 276.479C127.91 263.341 135.543 252.874 135.897 253.127Z" fill="#2E2166"/>
<path d="M156.528 266.911C156.882 267.151 149.832 277.998 140.783 291.149C131.733 304.299 124.101 314.716 123.721 314.501C123.341 314.285 130.417 303.401 139.479 290.25C148.541 277.1 156.173 266.62 156.528 266.911Z" fill="#2E2166"/>
<path d="M174.197 284.339C174.564 284.592 168.792 293.566 161.337 304.4C153.882 315.235 147.528 323.867 147.174 323.576C146.82 323.285 152.579 314.349 160.046 303.514C167.514 292.68 173.842 284.149 174.197 284.339Z" fill="#2E2166"/>
<path d="M466.419 50.3891C466.419 50.3891 471.95 37.6563 472.216 35.6565C472.482 33.6567 471.938 29.2395 470.508 28.0624C469.913 27.4875 469.15 27.1174 468.331 27.0059C467.511 26.8943 466.678 27.0472 465.951 27.4422C465.861 26.6402 465.519 25.8877 464.972 25.2937C464.426 24.6997 463.705 24.2951 462.913 24.1387C462.598 24.0279 462.26 23.9953 461.93 24.0438C461.599 24.0923 461.285 24.2205 461.015 24.4172C460.745 24.614 460.526 24.8734 460.379 25.1733C460.231 25.4731 460.158 25.8044 460.167 26.1385C460.185 25.5686 460.003 25.0103 459.651 24.5614C459.299 24.1125 458.801 23.8016 458.243 23.6831C457.51 23.5672 456.76 23.6775 456.091 23.9995C456.091 23.9995 453.395 21.5947 451.585 23.0882C449.776 24.5817 451.864 47.7818 451.864 47.7818L466.419 50.3891Z" fill="#F9F9F9"/>
<path d="M451.535 45.1238C451.535 45.1238 446.599 36.631 446.624 34.3148C446.65 31.9986 449.422 26.7207 450.966 26.0878C452.51 25.455 458.56 24.0501 458.56 24.0501C458.56 24.0501 461.091 26.3916 457.357 28.7078L453.13 31.2012C453.13 31.2012 459.914 33.4668 459.699 40.4028" fill="#F9F9F9"/>
<path d="M459.699 40.3395C459.591 39.2502 459.379 38.1736 459.066 37.1246C458.62 35.9639 457.944 34.905 457.079 34.011C455.938 32.86 454.56 31.9705 453.042 31.4037L452.472 31.1886L452.991 30.8974L457.294 28.3661C458.029 27.953 458.61 27.3138 458.952 26.5435C459.073 26.1468 459.08 25.7242 458.973 25.3237C458.866 24.9231 458.648 24.5608 458.345 24.2779L458.636 24.3538L455.383 25.1259L452.852 25.7967C452.434 25.9233 452.016 26.0372 451.586 26.1764C451.392 26.2362 451.202 26.3081 451.016 26.3916C450.859 26.483 450.711 26.5889 450.573 26.708C449.515 27.8782 448.659 29.2172 448.042 30.6696C447.714 31.3345 447.439 32.0243 447.219 32.7327C446.987 33.3678 446.896 34.046 446.954 34.7198C447.254 35.9451 447.678 37.1368 448.219 38.2764C449.181 40.4154 450.067 42.0735 450.662 43.2759C450.994 43.8718 451.286 44.4891 451.535 45.1238C451.111 44.5906 450.738 44.0185 450.422 43.4151C449.763 42.276 448.814 40.6179 447.789 38.4789C447.196 37.314 446.733 36.0873 446.409 34.8211C446.318 34.0658 446.4 33.2994 446.65 32.5808C446.88 31.8432 447.154 31.1204 447.473 30.4165C448.127 28.8782 449.044 27.465 450.181 26.2397C450.361 26.0764 450.561 25.9361 450.776 25.822C450.982 25.7257 451.193 25.6412 451.409 25.5689C451.826 25.4297 452.257 25.3031 452.674 25.1892C453.518 24.9529 454.362 24.7251 455.206 24.5057L458.484 23.7336H458.661L458.775 23.8476C459.171 24.2174 459.454 24.6921 459.591 25.2165C459.727 25.7408 459.712 26.2932 459.547 26.8093C459.15 27.7127 458.47 28.4632 457.611 28.9483L453.244 31.3784V30.8721C454.83 31.4892 456.257 32.4537 457.421 33.6946C458.313 34.6476 458.987 35.7836 459.395 37.0234C459.539 37.4772 459.641 37.9432 459.699 38.4156C459.764 38.7619 459.789 39.1143 459.775 39.4662C459.788 39.7593 459.762 40.0529 459.699 40.3395Z" fill="#745BE1"/>
<path d="M459.661 26.3031C458.979 28.773 458.734 31.3432 458.939 33.8972C458.938 34.7565 459.228 35.591 459.762 36.2641C460.059 36.5515 460.422 36.7617 460.819 36.8764C461.216 36.9912 461.635 37.0069 462.04 36.9222C462.857 36.7262 463.595 36.2845 464.154 35.6565" fill="#F9F9F9"/>
<path d="M464.192 35.7577C464.192 35.7577 463.787 36.631 462.382 37.1373C461.959 37.274 461.511 37.3108 461.072 37.2449C460.632 37.179 460.214 37.0122 459.851 36.7576C459.459 36.3884 459.15 35.9401 458.945 35.4426C458.74 34.9451 458.643 34.4097 458.661 33.8718C458.355 31.2911 458.721 28.6751 459.724 26.2777C459.373 28.7674 459.237 31.2828 459.319 33.7959C459.299 34.2453 459.369 34.6941 459.526 35.1158C459.683 35.5376 459.922 35.9237 460.23 36.2513C460.522 36.4631 460.857 36.6099 461.21 36.6819C461.564 36.754 461.929 36.7496 462.281 36.669C462.951 36.4402 463.592 36.1344 464.192 35.7577Z" fill="#745BE1"/>
<path d="M454.231 30.8848C453.91 31.7726 453.84 32.7316 454.029 33.6567C454.029 34.2521 454.216 34.8323 454.563 35.3159C454.911 35.7995 455.401 36.162 455.965 36.3526C456.927 36.5804 458.167 35.3021 458.737 33.9604" fill="#F9F9F9"/>
<path d="M458.737 33.9605C458.8 33.9605 458.737 34.5934 458.142 35.3908C457.822 35.8766 457.387 36.2764 456.876 36.5552C456.506 36.7012 456.095 36.7012 455.725 36.5552C455.345 36.4289 455.001 36.2116 454.725 35.9223C454.219 35.3877 453.899 34.7041 453.813 33.9732C453.784 33.4167 453.784 32.859 453.813 32.3025C453.813 31.3026 454.282 30.7963 454.332 30.8343C454.383 30.8722 454.218 31.4291 454.332 32.3025L454.509 33.8846C454.614 34.4764 454.886 35.0257 455.294 35.4667C455.503 35.6766 455.753 35.8405 456.028 35.9477C456.259 36.0426 456.519 36.0426 456.75 35.9477C457.202 35.7421 457.604 35.4397 457.927 35.0617C458.382 34.4415 458.636 33.9225 458.737 33.9605Z" fill="#745BE1"/>
<path d="M466.407 27.5561C465.014 29.0678 464.003 30.8904 463.458 32.872C463.249 33.365 463.177 33.9054 463.25 34.4359C463.324 34.9663 463.54 35.4669 463.875 35.8843C464.342 36.1965 464.896 36.3535 465.457 36.333C466.018 36.3126 466.559 36.1157 467.002 35.7704C467.726 35.3159 468.349 34.7173 468.833 34.0119C469.316 33.3065 469.649 32.5092 469.812 31.6696" fill="#F9F9F9"/>
<path d="M469.812 31.6696C469.843 32.5818 469.557 33.4766 469.002 34.201C468.467 35.0426 467.732 35.7384 466.863 36.2261C466.327 36.5206 465.727 36.6812 465.116 36.6944C464.762 36.7013 464.412 36.6192 464.098 36.4555C463.784 36.2919 463.516 36.0519 463.319 35.7578C462.975 35.1746 462.845 34.4898 462.952 33.8213C463.023 33.2455 463.164 32.6804 463.369 32.1379C463.688 31.2464 464.113 30.3964 464.635 29.6065C465.06 28.8243 465.663 28.1525 466.394 27.6447C466.47 27.7206 465.8 28.4674 465.027 29.847C464.579 30.6513 464.214 31.4995 463.939 32.3784C463.757 32.8807 463.638 33.4036 463.585 33.9352C463.508 34.4568 463.601 34.9894 463.85 35.454C464.42 36.3526 465.724 36.1754 466.572 35.7324C467.371 35.3118 468.063 34.7145 468.597 33.9858C469.068 33.2504 469.475 32.4754 469.812 31.6696Z" fill="#745BE1"/>
<path d="M397.705 131.938C397.705 131.938 404.565 124.533 407.274 122.875C409.982 121.217 427.829 99.9409 429.715 94.3466C431.6 88.7522 449.105 43.8076 448.7 44.4151C448.295 45.0226 470.925 49.1614 470.925 49.1614C470.925 49.1614 454.155 101.055 452.105 106.928C448.409 117.673 430.094 139.43 419.665 152.492C415.21 158.049 409.058 175.844 409.058 175.844L397.705 131.938Z" fill="#2E2166"/>
<path d="M414.058 159.846C413.718 158.514 413.502 157.154 413.413 155.783C413.122 153.252 412.856 149.758 412.793 145.885C412.729 142.012 412.868 138.494 413.071 135.962C413.122 134.588 413.292 133.22 413.577 131.874C413.675 133.244 413.675 134.618 413.577 135.988C413.489 138.519 413.425 142.012 413.489 145.873C413.552 149.733 413.742 153.214 413.919 155.745C414.065 157.107 414.111 158.477 414.058 159.846Z" fill="#E0E0E0"/>
<path d="M300.918 424.021L291.274 443.677L290.008 448.487C290.008 448.487 296.45 477.686 292.425 480.572L263.719 434.235L271.111 429.577L280.313 409.934L300.918 424.021Z" fill="#E0E0E0"/>
<path d="M263.795 434.235L267.428 432.147L293.59 477.357C293.59 477.357 294.02 479.952 292.501 480.572L263.795 434.235Z" fill="#2E2166"/>
<path d="M290.793 449.094C290.565 449.221 289.768 448.157 288.388 447.461C287.008 446.765 285.743 446.753 285.705 446.487C285.667 446.221 287.11 445.791 288.755 446.651C290.4 447.512 290.995 449.018 290.793 449.094Z" fill="#2E2166"/>
<path d="M291.881 455.207C291.704 455.385 290.729 454.638 289.35 454.423C287.97 454.207 286.818 454.6 286.742 454.423C286.666 454.245 287.742 453.284 289.451 453.575C291.16 453.866 292.058 455.005 291.881 455.207Z" fill="#2E2166"/>
<path d="M288.084 461.333C287.907 461.156 288.793 460.169 290.324 460.068C291.856 459.966 292.97 460.688 292.856 460.89C292.742 461.093 291.704 460.89 290.451 460.979C289.198 461.067 288.261 461.536 288.084 461.333Z" fill="#2E2166"/>
<path d="M399.288 279.416C398.351 281.643 349.926 355.775 339.99 364.014C330.054 372.254 296.147 439.867 296.147 439.867C296.147 439.867 268.441 426.438 267.82 427.894C267.2 429.349 287.249 380.165 299.21 359.964C311.17 339.764 316.752 331.954 316.752 331.954L340.547 268.505C340.547 268.505 341.041 247.609 344.091 239.483C347.141 231.357 356.102 224.295 356.102 224.295L399.288 279.416Z" fill="#2E2166"/>
<path d="M355.672 369.001L329.915 370.849C329.915 370.849 323.308 399.061 318.524 399.897L312.854 347.371L352.849 342.763L355.672 369.001Z" fill="#E0E0E0"/>
<path d="M330.333 354.37C330.157 353.872 329.795 353.462 329.322 353.226C328.85 352.99 328.305 352.946 327.801 353.104C327.329 353.309 326.95 353.68 326.735 354.147C326.52 354.614 326.485 355.144 326.637 355.636C326.836 356.139 327.217 356.549 327.705 356.784C328.193 357.018 328.752 357.06 329.269 356.901C329.747 356.633 330.106 356.196 330.277 355.676C330.448 355.156 330.418 354.59 330.193 354.091" fill="#412D89"/>
<path d="M312.917 347.371L316.967 347.08L320.878 397.543C320.878 397.543 320.169 399.985 318.587 399.897L312.917 347.371Z" fill="#2E2166"/>
<path d="M330.27 371.672C330.017 371.672 329.776 370.406 328.852 369.242C327.928 368.077 326.84 367.508 326.916 367.255C326.992 367.001 328.434 367.255 329.523 368.685C330.611 370.115 330.498 371.672 330.27 371.672Z" fill="#2E2166"/>
<path d="M328.763 377.418C328.535 377.494 328.004 376.431 326.877 375.671C325.751 374.912 324.637 374.786 324.624 374.532C324.612 374.279 325.966 373.963 327.345 374.925C328.725 375.887 328.928 377.38 328.763 377.418Z" fill="#2E2166"/>
<path d="M322.789 381.228C322.713 381 323.89 380.506 325.32 381.025C326.75 381.544 327.371 382.671 327.181 382.81C326.991 382.949 326.206 382.278 325.042 381.873C323.877 381.468 322.84 381.481 322.789 381.228Z" fill="#2E2166"/>
<path d="M336.079 370.558C335.851 370.482 336.079 369.292 335.813 367.824C335.547 366.356 335.003 365.293 335.193 365.141C335.383 364.989 336.383 365.976 336.649 367.672C336.914 369.368 336.357 370.659 336.079 370.558Z" fill="#2E2166"/>
<path d="M333.117 259.975C333.117 259.975 333.054 284.681 344.268 293.022C355.482 301.363 394.364 332.752 394.364 332.752L332.282 343.358L336.927 372.14C336.927 372.14 420.728 363.685 430.98 360.255C441.232 356.825 448.611 339.473 440.587 327.347C436.549 321.297 394.832 261.987 394.832 261.987L393.566 246.077L340.977 249.393L333.117 259.975Z" fill="#2E2166"/>
<path d="M336.927 372.14C336.873 371.98 336.835 371.814 336.813 371.647C336.737 371.267 336.649 370.773 336.535 370.153C336.294 368.799 335.965 366.888 335.547 364.432C334.712 359.369 333.51 352.231 332.042 343.396V343.156H332.282L388.96 333.385L394.339 332.461L394.187 333.043C385.441 325.816 377.125 319.007 369.544 312.893L358.76 304.287C355.381 301.616 352.128 299.224 349.445 296.692C345.179 292.791 341.462 288.328 338.395 283.428C337.567 282.098 336.819 280.721 336.155 279.302C335.915 278.821 335.763 278.441 335.661 278.188C335.6 278.064 335.557 277.932 335.535 277.796C335.61 277.912 335.673 278.035 335.725 278.163C335.839 278.416 336.016 278.783 336.269 279.251C336.975 280.637 337.752 281.984 338.598 283.289C341.733 288.111 345.481 292.506 349.748 296.363C352.432 298.831 355.685 301.186 359.077 303.856C362.469 306.527 366.114 309.375 369.911 312.412C377.505 318.513 385.859 325.297 394.605 332.524L395.161 332.98L394.453 333.094L389.073 334.018L332.371 343.624L332.573 343.346C333.953 352.206 335.104 359.395 335.851 364.407C336.218 366.875 336.509 368.799 336.712 370.153C336.801 370.786 336.864 371.28 336.914 371.659C336.936 371.819 336.941 371.98 336.927 372.14Z" fill="#E0E0E0"/>
<path d="M411.109 334.537C411.109 334.726 407.426 333.651 402.819 333.17C398.212 332.689 394.427 332.954 394.415 332.752C395.214 332.505 396.046 332.382 396.883 332.385C398.883 332.262 400.89 332.308 402.882 332.524C404.877 332.725 406.851 333.102 408.78 333.651C409.6 333.816 410.387 334.115 411.109 334.537Z" fill="#E0E0E0"/>
<path d="M372.784 52.7181C373.161 51.5908 373.876 50.607 374.831 49.9004C375.787 49.1939 376.937 48.7988 378.125 48.7691C379.32 47.4733 380.914 46.6157 382.653 46.3334C384.393 46.0512 386.177 46.3606 387.719 47.2123C388.64 46.4321 389.745 45.9021 390.93 45.6734C392.115 45.4447 393.338 45.525 394.483 45.9066C395.628 46.2881 396.655 46.958 397.465 47.8518C398.276 48.7456 398.842 49.833 399.111 51.0094C400.277 50.6252 401.532 50.6073 402.709 50.958C403.886 51.3087 404.927 52.0113 405.692 52.9712C406.426 53.9615 406.841 55.1512 406.884 56.3828C406.927 57.6145 406.595 58.8302 405.933 59.8692C407.325 60.0557 408.599 60.7528 409.507 61.8253C410.416 62.8978 410.893 64.2693 410.847 65.6738C410.802 67.0783 410.236 68.4159 409.26 69.427C408.284 70.4382 406.968 71.051 405.566 71.1465L374.999 59.0465C374.023 58.3486 373.286 57.366 372.889 56.2331C372.493 55.1003 372.456 53.8726 372.784 52.7181Z" fill="#2E2166"/>
<path d="M406.603 71.7792C405.056 65.9585 401.38 60.9303 396.304 57.6891C391.227 54.4478 385.12 53.2294 379.188 54.2747L377.922 54.4899C364.924 57.6541 362.987 70.5768 366.531 83.6008L376.619 132.456L400.793 146.822L403.705 136.152V118.762C403.705 118.762 415.982 114.496 413.83 101.763C412.754 95.5489 409.59 83.0945 406.603 71.7792Z" fill="#F9F9F9"/>
<path d="M403.768 118.66C397.9 119.727 391.85 119.081 386.339 116.8C386.339 116.8 391.288 125.938 403.679 122.495L403.768 118.66Z" fill="#745BE1"/>
<path d="M405.034 83.7527C405.127 84.2223 405.033 84.7099 404.77 85.1102C404.507 85.5105 404.097 85.7912 403.629 85.8917C403.404 85.9524 403.17 85.9678 402.939 85.9368C402.709 85.9058 402.487 85.8291 402.287 85.7112C402.086 85.5933 401.911 85.4366 401.772 85.2502C401.633 85.0639 401.533 84.8517 401.477 84.626C401.383 84.1548 401.477 83.6655 401.74 83.2632C402.003 82.8609 402.413 82.5777 402.882 82.4743C403.107 82.4138 403.342 82.3989 403.573 82.4307C403.804 82.4625 404.027 82.5403 404.227 82.6595C404.428 82.7786 404.603 82.9367 404.741 83.1245C404.88 83.3123 404.979 83.5258 405.034 83.7527Z" fill="#2E2166"/>
<path d="M405.274 79.1076C405.084 79.3861 403.54 78.614 401.603 78.981C399.667 79.3481 398.376 80.5631 398.161 80.3733C397.945 80.1834 398.161 79.8164 398.73 79.2468C399.458 78.5052 400.402 78.0133 401.426 77.8419C402.435 77.6534 403.478 77.7955 404.401 78.2469C405.084 78.5887 405.362 78.981 405.274 79.1076Z" fill="#2E2166"/>
<path d="M388.086 87.575C388.18 88.0462 388.086 88.5355 387.823 88.9378C387.56 89.3401 387.15 89.6233 386.681 89.7267C386.457 89.7857 386.223 89.7997 385.993 89.7679C385.763 89.7361 385.542 89.6592 385.342 89.5416C385.142 89.4239 384.967 89.2679 384.828 89.0824C384.688 88.897 384.587 88.6858 384.53 88.461C384.436 87.9914 384.531 87.5037 384.793 87.1034C385.056 86.7032 385.466 86.4224 385.935 86.322C386.158 86.261 386.392 86.2452 386.621 86.2754C386.851 86.3056 387.073 86.3812 387.273 86.4978C387.473 86.6144 387.648 86.7697 387.788 86.9546C387.927 87.1396 388.029 87.3505 388.086 87.575Z" fill="#2E2166"/>
<path d="M386.656 82.2086C386.466 82.4871 384.922 81.7276 382.985 82.082C381.049 82.4364 379.796 83.6768 379.542 83.4743C379.289 83.2718 379.542 82.9174 380.099 82.3478C380.836 81.6121 381.782 81.1215 382.808 80.9429C383.817 80.7553 384.86 80.8973 385.782 81.3479C386.466 81.7023 386.744 82.082 386.656 82.2086Z" fill="#2E2166"/>
<path d="M395.668 95.5236C396.631 95.0097 397.656 94.6226 398.718 94.3718C399.212 94.2326 399.655 94.0554 399.68 93.701C399.633 93.1782 399.426 92.6828 399.085 92.2834L396.921 88.7521C393.908 83.6894 391.63 79.5379 391.858 79.4113C392.086 79.2848 394.668 83.2844 397.68 88.2712C398.414 89.5369 399.123 90.7013 399.781 91.8404C400.204 92.3858 400.424 93.0617 400.401 93.7516C400.361 93.9395 400.279 94.1158 400.16 94.2671C400.042 94.4184 399.891 94.5408 399.718 94.6249C399.457 94.7534 399.18 94.847 398.895 94.9034C397.848 95.2395 396.765 95.4478 395.668 95.5236Z" fill="#2E2166"/>
<path d="M390.2 97.9157C390.516 97.8397 390.909 99.9534 392.984 101.131C395.06 102.308 397.262 101.662 397.326 101.953C397.389 102.244 396.908 102.459 395.959 102.662C394.727 102.9 393.45 102.698 392.352 102.092C391.297 101.497 390.513 100.518 390.162 99.3585C389.921 98.4852 390.061 97.9283 390.2 97.9157Z" fill="#2E2166"/>
<path d="M385.719 76.6269C385.58 77.1838 383.821 77.0319 381.796 77.437C379.77 77.842 378.15 78.5634 377.859 78.0951C377.72 77.88 377.973 77.3484 378.606 76.8294C379.418 76.1532 380.39 75.6957 381.428 75.5005C382.468 75.2915 383.544 75.3703 384.542 75.7283C385.314 75.9688 385.719 76.3738 385.719 76.6269Z" fill="#2E2166"/>
<path d="M403.857 73.8424C403.642 74.3613 402.211 74.2601 400.617 74.6651C399.022 75.0701 397.782 75.7409 397.351 75.3612C397.161 75.184 397.25 74.6904 397.731 74.0955C398.377 73.3839 399.222 72.8827 400.156 72.657C401.091 72.4313 402.071 72.4915 402.971 72.8298C403.642 73.1842 403.945 73.5892 403.857 73.8424Z" fill="#2E2166"/>
<path d="M404.325 66.1722C404.325 66.1722 399.553 58.8186 395.402 57.6668C390.339 56.2492 389.314 61.717 384.681 61.274C380.049 60.831 375.264 59.4767 371.379 63.7168C367.139 68.3619 369.923 70.5642 370.645 76.2598C373.556 99.3333 370.645 106.56 367.455 96.0046C367.113 94.8528 363.658 94.4984 362.291 89.6002C360.494 83.2717 358.823 75.4624 359.431 70.6148C359.937 66.5266 361.633 63.4637 365.038 59.8058C370.391 54.0216 378.897 52.3762 384.782 51.9079C390.668 51.4396 403.046 56.1227 404.325 66.1722Z" fill="#2E2166"/>
<path d="M369.797 95.2199C369.698 94.7583 369.506 94.3215 369.233 93.9361C368.961 93.5506 368.613 93.2244 368.211 92.9772C367.808 92.7299 367.36 92.5668 366.893 92.4976C366.426 92.4284 365.95 92.4546 365.493 92.5746C363.177 93.2201 360.798 95.106 361.836 99.9156C363.696 108.548 371.961 104.915 371.898 104.662C371.835 104.409 370.607 98.8271 369.797 95.2199Z" fill="#F9F9F9"/>
<path d="M369.328 101.814C369.328 101.814 369.202 101.953 368.974 102.13C368.649 102.355 368.25 102.446 367.86 102.384C367.236 102.144 366.686 101.744 366.266 101.224C365.846 100.704 365.57 100.082 365.468 99.4219C365.299 98.6804 365.299 97.9104 365.468 97.1689C365.489 96.8833 365.58 96.6072 365.732 96.3646C365.884 96.1219 366.093 95.9201 366.341 95.7767C366.505 95.6952 366.691 95.6735 366.869 95.715C367.047 95.7566 367.205 95.859 367.316 96.0045C367.48 96.2197 367.468 96.3969 367.505 96.4095C367.543 96.4222 367.657 96.2197 367.505 95.8779C367.41 95.6752 367.25 95.5103 367.05 95.4096C366.911 95.3522 366.763 95.3226 366.613 95.3226C366.463 95.3226 366.315 95.3522 366.177 95.4096C365.842 95.5591 365.551 95.7906 365.329 96.0826C365.108 96.3747 364.964 96.7178 364.911 97.0803C364.706 97.9117 364.706 98.7804 364.911 99.6117C365.034 100.389 365.382 101.113 365.913 101.694C366.445 102.274 367.135 102.686 367.898 102.877C368.135 102.887 368.371 102.844 368.59 102.752C368.808 102.66 369.004 102.521 369.164 102.346C369.353 102.08 369.366 101.827 369.328 101.814Z" fill="#745BE1"/>
<path d="M365.303 78.652C366.52 79.3264 367.887 79.6833 369.278 79.6899C369.964 79.6675 370.62 79.3998 371.126 78.9354C371.632 78.471 371.955 77.8406 372.037 77.1585C372.037 76.5383 371.758 75.8928 372.037 75.3233C372.315 74.7537 373.302 74.7031 374.049 74.6525C375.34 74.5173 376.543 73.9389 377.455 73.0157C378.367 72.0925 378.93 70.8817 379.049 69.5897C379.511 69.9502 380.092 70.1231 380.677 70.0738C381.261 70.0246 381.805 69.7568 382.2 69.3239C382.966 68.4283 383.605 67.4317 384.099 66.3622C384.346 65.8286 384.722 65.3645 385.193 65.0112C385.663 64.6579 386.213 64.4263 386.795 64.3371C387.439 64.4379 388.093 64.4633 388.744 64.413C389.858 64.1093 390.174 62.6664 390.136 61.5019C390.098 60.3375 389.997 58.9706 390.845 58.2111C391.759 57.6338 392.851 57.4047 393.921 57.5656C394.984 57.5656 396.287 57.034 396.376 55.9582C396.37 55.6751 396.308 55.3961 396.193 55.1375C396.077 54.8788 395.912 54.6458 395.705 54.452C394.816 53.5274 393.639 52.9323 392.367 52.7644C391.096 52.5965 389.805 52.8658 388.706 53.5281C388.031 52.1558 386.961 51.0167 385.634 50.257C384.306 49.4973 382.782 49.1517 381.257 49.2646C379.732 49.3775 378.275 49.9438 377.075 50.8907C375.874 51.8376 374.983 53.1219 374.518 54.5786C373.45 53.9057 372.234 53.5026 370.976 53.4039C369.718 53.3052 368.454 53.514 367.295 54.0122C366.135 54.5105 365.114 55.2832 364.32 56.2638C363.525 57.2445 362.981 58.4036 362.734 59.6414C361.626 59.5699 360.52 59.8196 359.55 60.3607C358.581 60.9017 357.787 61.7111 357.266 62.6917C356.772 63.6891 356.572 64.8064 356.688 65.9134C356.805 67.0204 357.233 68.0715 357.924 68.9442C357.191 69.492 356.61 70.2176 356.236 71.0526C355.862 71.8876 355.707 72.8042 355.785 73.7158C356.076 75.5131 358.14 76.994 359.785 76.2472C359.606 77.0085 359.703 77.8088 360.06 78.5046C360.418 79.2004 361.011 79.7463 361.734 80.0443C362.49 80.2874 363.31 80.2453 364.037 79.9258C364.765 79.6064 365.35 79.0317 365.683 78.3103" fill="#2E2166"/>
<path d="M359.14 76.2852C359.161 76.5939 359.248 76.8944 359.394 77.1671C359.54 77.4399 359.743 77.6785 359.988 77.8673C360.512 78.338 361.194 78.5953 361.899 78.5888C362.351 78.5786 362.795 78.4691 363.2 78.2678C363.604 78.0665 363.96 77.7785 364.24 77.4243H363.861C364.466 78.162 365.189 78.7949 366 79.2975C366.537 79.6381 367.134 79.8742 367.759 79.9937C368.349 80.0993 368.956 80.0469 369.518 79.8418C370.014 79.7126 370.476 79.4755 370.87 79.1473C371.264 78.8191 371.58 78.408 371.797 77.9433C372.042 77.3273 372.167 76.6698 372.164 76.0068C372.164 75.5384 372.164 75.2853 372.1 75.2853C372.023 75.5101 371.976 75.7442 371.961 75.9814C371.896 76.6036 371.73 77.2108 371.467 77.7787C371.216 78.2075 370.878 78.5789 370.474 78.869C370.071 79.159 369.611 79.3612 369.124 79.4626C368.638 79.5639 368.135 79.5622 367.649 79.4575C367.164 79.3528 366.705 79.1474 366.303 78.8546C365.52 78.3859 364.811 77.8013 364.202 77.1206L364 76.8927L363.823 77.1332C363.589 77.4367 363.293 77.6865 362.955 77.8656C362.616 78.0447 362.243 78.1489 361.861 78.1711C361.244 78.2042 360.636 78.0107 360.152 77.6268C359.729 77.2512 359.385 76.7951 359.14 76.2852Z" fill="#E0E0E0"/>
<path d="M371.885 53.4901C371.885 53.4901 372.126 53.4901 372.531 53.604C373.129 53.7374 373.673 54.051 374.087 54.5026L374.214 54.6545L374.303 54.4647C375.125 52.803 376.352 51.3753 377.872 50.3132C378.843 49.6197 379.953 49.1448 381.125 48.9209C382.401 48.692 383.716 48.8235 384.922 49.3006C385.875 49.677 386.737 50.2507 387.453 50.984C388.117 51.6734 388.607 52.5107 388.883 53.4268L388.959 53.7052L389.212 53.5787C390.235 53.0819 391.401 52.9645 392.502 53.2473C393.603 53.5301 394.568 54.1948 395.224 55.1228C395.737 55.8841 396.079 56.7479 396.224 57.6542C396.277 57.4123 396.277 57.162 396.224 56.9201C396.109 56.2405 395.85 55.5932 395.465 55.0216C394.889 54.1137 394.031 53.4201 393.022 53.0471C392.378 52.809 391.692 52.701 391.006 52.7292C390.319 52.7575 389.645 52.9214 389.023 53.2116L389.339 53.3635C389.063 52.3606 388.541 51.4426 387.82 50.6929C386.948 49.7909 385.867 49.1171 384.673 48.7309C383.479 48.3447 382.208 48.2578 380.973 48.4779C379.741 48.7295 378.577 49.2385 377.555 49.9715C375.994 51.0922 374.766 52.6141 373.999 54.3761H374.227C373.757 53.9093 373.148 53.6073 372.493 53.5154C372.113 53.4015 371.885 53.4648 371.885 53.4901Z" fill="#E0E0E0"/>
<path d="M386.314 264.481C387.516 264.582 391.63 266.037 396.971 256.152C402.312 246.267 407.438 209.664 407.438 209.664L386.314 264.481Z" fill="#412D89"/>
<path d="M409.362 195.551L409.97 160.175L402.857 133.102C402.857 133.102 397.882 125.305 392.453 121.344C388.946 118.659 384.94 116.697 380.669 115.572L372.518 113.598L371.645 120.357L395.3 147.493L409.362 195.551Z" fill="#412D89"/>
<path d="M371.797 116.003C371.797 116.003 391.263 117.673 400.68 141.202C405.742 153.859 408.818 187.716 409.413 193.007C410.008 198.298 408.021 210.436 404.413 226.788C403.705 229.965 401.161 238.319 394.225 258.582C386.795 280.251 380.872 296.249 380.872 296.249L318.625 272.201L349.584 217.903C349.584 217.903 347.951 201.171 348.027 199.576C348.622 187.134 346.204 180.135 350.318 156.226C351.527 149.08 354.036 142.216 357.722 135.975C361.646 129.381 364.544 127.406 371.202 122.445L371.797 116.003Z" fill="#2E2166"/>
<path d="M378.454 264.316L380.1 251.191L350.419 239.154L345.002 251.697L378.454 264.316Z" fill="#2E2166"/>
<path d="M378.454 264.316L377.783 264.025L375.885 263.266L368.885 260.532L345.116 251.431L345.306 251.862L349.913 241.243L350.735 239.319L350.292 239.509L380.011 251.431L379.872 251.191C379.429 255.178 379.062 258.431 378.808 260.747C378.695 261.848 378.606 262.721 378.53 263.392C378.454 264.063 378.441 264.329 378.454 264.341C378.527 264.063 378.578 263.78 378.606 263.493C378.707 262.848 378.834 262 378.986 260.962C379.315 258.608 379.77 255.317 380.327 251.267V251.09L380.163 251.026L350.52 238.888L350.28 238.774L350.153 239.078C349.887 239.711 349.609 240.344 349.331 240.989C347.736 244.685 346.192 248.267 344.749 251.634L344.609 251.95L344.926 252.064L369.05 261L376.024 263.531L377.872 264.189C378.062 264.25 378.257 264.292 378.454 264.316Z" fill="#E0E0E0"/>
<path d="M403.059 231.18C403.04 231.297 403.011 231.411 402.97 231.522L402.667 232.497L401.401 236.294C400.3 239.597 398.743 244.293 396.807 250.064L381.428 295.427L381.099 296.389L380.985 296.718L380.669 296.591L336.648 279.466L323.371 274.214L319.777 272.758L318.853 272.366L318.536 272.201L318.878 272.303L319.827 272.632L323.46 273.973L336.813 279.036L380.897 295.996L380.466 296.199C380.58 295.895 380.682 295.566 380.796 295.237C386.871 277.517 392.377 261.57 396.376 249.925C398.376 244.179 400.009 239.509 401.16 236.218L402.553 232.446C402.692 232.054 402.819 231.737 402.907 231.484C402.996 231.231 403.046 231.18 403.059 231.18Z" fill="#E0E0E0"/>
<path d="M311.562 300.49C311.562 300.49 318.916 276.53 325.181 274.897C331.446 273.264 339.724 273.011 341.179 277.1C342.971 282.253 343.786 287.696 343.584 293.148C343.161 298.168 342.336 303.146 341.116 308.033L334.724 306.046C334.724 306.046 339.787 281.719 338.433 277.732C337.079 273.745 326.523 274.707 324.586 278.846C322.65 282.985 316.498 302.008 316.498 302.008L311.562 300.49Z" fill="#E0E0E0"/>
<path d="M282.186 330.638C284.426 320.601 289.666 298.528 291.982 288.87C292.285 287.598 293.068 286.493 294.167 285.785C295.267 285.077 296.597 284.822 297.88 285.073L357.874 296.895C359.163 297.15 360.301 297.896 361.05 298.976C361.799 300.055 362.099 301.383 361.886 302.679L355.115 344.371C355.007 345.038 354.766 345.677 354.407 346.249C354.048 346.822 353.578 347.317 353.025 347.705C352.472 348.093 351.846 348.366 351.186 348.509C350.525 348.651 349.843 348.66 349.179 348.535L286.211 336.726C285.541 336.603 284.902 336.346 284.334 335.97C283.765 335.594 283.278 335.107 282.903 334.539C282.527 333.97 282.27 333.332 282.146 332.662C282.023 331.991 282.037 331.303 282.186 330.638Z" fill="#E0E0E0"/>
<path d="M355.71 312.26L355.634 312.703C355.571 313.02 355.495 313.475 355.381 314.045C355.153 315.247 354.811 316.981 354.368 319.222L350.571 338.346L350.267 339.89C350.197 340.449 349.968 340.976 349.609 341.409C349.229 341.852 348.72 342.166 348.154 342.308C347.582 342.423 346.991 342.397 346.432 342.232L339.572 340.903L324.384 337.979L307.664 334.726L298.804 333.005L294.286 332.119L293.147 331.904C292.744 331.847 292.349 331.746 291.97 331.6C291.578 331.428 291.23 331.169 290.954 330.842C290.678 330.515 290.48 330.129 290.375 329.714C290.306 329.355 290.306 328.985 290.375 328.626C290.375 328.259 290.514 327.955 290.577 327.626L290.995 325.664L291.83 321.778C292.375 319.247 292.919 316.716 293.451 314.184C294.531 309.181 295.564 304.367 296.551 299.743V299.528H296.767C313.815 303.894 328.561 307.008 339.015 309.071C344.255 310.096 348.419 310.868 351.267 311.387L354.558 311.995L355.381 312.159L355.659 312.222H355.355L354.507 312.096L351.242 311.564C348.381 311.083 344.217 310.362 338.977 309.362C328.485 307.388 313.727 304.299 296.653 299.983L296.919 299.819C295.944 304.438 294.906 309.273 293.843 314.273C293.311 316.804 292.767 319.336 292.223 321.867C291.944 323.133 291.666 324.398 291.387 325.753L290.97 327.702C290.766 328.309 290.713 328.956 290.818 329.588C290.909 329.933 291.075 330.254 291.305 330.528C291.535 330.801 291.822 331.021 292.147 331.17C292.497 331.303 292.863 331.392 293.235 331.436L294.374 331.663L298.893 332.549L307.753 334.271L324.485 337.549L339.674 340.523L346.534 341.878C347.043 342.028 347.581 342.054 348.103 341.954C348.595 341.833 349.037 341.564 349.369 341.181C349.689 340.79 349.891 340.316 349.951 339.814C350.065 339.296 350.166 338.789 350.267 338.296C351.925 330.271 353.28 323.791 354.204 319.31C354.685 317.07 355.052 315.323 355.305 314.121C355.431 313.539 355.533 313.083 355.596 312.754C355.659 312.425 355.71 312.26 355.71 312.26Z" fill="#2E2166"/>
<path d="M333.345 335.587C333.345 335.587 333.712 335.65 334.421 335.65C335.448 335.617 336.444 335.292 337.294 334.714C337.952 334.241 338.499 333.63 338.897 332.924C339.295 332.218 339.534 331.434 339.597 330.626C339.964 328.74 340.395 326.601 340.863 324.234C341.103 323.044 341.344 321.804 341.597 320.513C341.963 319.221 341.832 317.839 341.23 316.64C340.901 316.019 340.447 315.473 339.895 315.037C339.344 314.601 338.708 314.285 338.028 314.108C336.585 313.792 335.028 313.501 333.471 313.184L313.106 309.109C312.25 308.938 311.364 308.992 310.535 309.265C309.705 309.537 308.96 310.02 308.373 310.666C307.789 311.295 307.383 312.068 307.196 312.906L306.664 315.437L305.651 320.5C305.491 321.344 305.327 322.154 305.158 322.93C304.978 323.707 304.843 324.493 304.753 325.284C304.713 326.033 304.84 326.782 305.124 327.476C305.409 328.169 305.844 328.791 306.398 329.297C306.934 329.774 307.563 330.136 308.246 330.36C308.904 330.562 309.651 330.676 310.334 330.828L318.068 332.41L329.269 334.739L332.307 335.397L333.092 335.574L333.357 335.65H333.079L332.282 335.511L329.231 334.942L318.005 332.752L310.246 331.17C309.55 331.018 308.854 330.929 308.107 330.714C307.369 330.479 306.691 330.086 306.12 329.562C305.515 329.021 305.039 328.351 304.726 327.603C304.412 326.854 304.27 326.044 304.31 325.234C304.404 324.421 304.543 323.614 304.727 322.816C304.892 322.019 305.044 321.209 305.208 320.386C305.538 318.753 305.879 317.083 306.221 315.323C306.386 314.475 306.563 313.615 306.74 312.792C306.947 311.883 307.383 311.043 308.006 310.349C308.648 309.646 309.46 309.119 310.364 308.82C311.269 308.521 312.235 308.459 313.17 308.641L333.535 312.754C335.091 313.083 336.61 313.362 338.104 313.703C338.842 313.902 339.53 314.253 340.123 314.735C340.716 315.217 341.201 315.819 341.546 316.5C342.179 317.782 342.31 319.254 341.913 320.627C341.648 321.892 341.394 323.158 341.154 324.335C340.673 326.689 340.23 328.828 339.888 330.664C339.787 331.132 339.698 331.587 339.572 332.03C339.435 332.444 339.248 332.84 339.015 333.208C338.616 333.863 338.075 334.421 337.433 334.84C336.551 335.424 335.516 335.733 334.459 335.726C334.083 335.731 333.708 335.685 333.345 335.587Z" fill="#2E2166"/>
<g opacity="0.3">
<path d="M291.792 331.347C308.674 340.187 327.772 343.896 346.736 342.017L291.792 331.347Z" fill="#412D89"/>
</g>
<path d="M329.472 318.842L322.435 317.424C322.17 317.372 321.919 317.267 321.695 317.117C321.471 316.967 321.279 316.774 321.13 316.549C320.98 316.325 320.877 316.073 320.825 315.808C320.773 315.543 320.774 315.271 320.827 315.007C320.937 314.477 321.251 314.012 321.701 313.711C322.151 313.411 322.701 313.299 323.232 313.399L330.307 314.83C330.571 314.881 330.822 314.984 331.046 315.133C331.27 315.282 331.462 315.474 331.612 315.697C331.761 315.921 331.865 316.172 331.917 316.436C331.969 316.7 331.968 316.971 331.915 317.235C331.864 317.502 331.759 317.757 331.608 317.984C331.457 318.211 331.261 318.405 331.033 318.555C330.806 318.705 330.55 318.807 330.282 318.857C330.014 318.906 329.738 318.901 329.472 318.842Z" fill="#412D89"/>
<path d="M340.711 269.518C341.64 270.929 342.397 272.446 342.964 274.037C343.219 276.886 343.27 279.749 343.116 282.605C343.116 282.605 341.635 283.352 340.433 279.378C339.799 277.467 339.346 275.501 339.078 273.505L340.711 269.518Z" fill="#F9F9F9"/>
<path d="M340.521 282.238L340.8 269.695L335.965 260.418L320.625 260.127L320.08 275.315C320.08 275.315 322.333 281.833 323.409 283.061C324.485 284.289 326.637 283.377 326.637 283.377C327.788 285.2 330.978 284.529 330.978 284.529C332.535 286.39 334.965 284.643 334.965 284.643C334.965 284.643 337.091 286.592 338.066 286.466C338.475 286.367 338.84 286.136 339.104 285.807C339.992 284.828 340.496 283.56 340.521 282.238Z" fill="#F9F9F9"/>
<path d="M325.46 280.137C325.599 280.137 325.966 280.757 326.257 281.631C326.548 282.504 326.687 283.263 326.535 283.314C326.384 283.365 326.029 282.681 325.738 281.808C325.447 280.934 325.308 280.188 325.46 280.137Z" fill="#745BE1"/>
<path d="M329.434 279.947C329.818 280.678 330.087 281.463 330.232 282.276C330.548 283.039 330.749 283.846 330.826 284.668C330.249 284.046 329.859 283.274 329.7 282.441C329.374 281.652 329.282 280.787 329.434 279.947Z" fill="#745BE1"/>
<path d="M333.965 280.352C334.13 280.352 334.244 281.314 334.472 282.466C334.7 283.618 334.915 284.554 334.763 284.618C334.611 284.681 334.143 283.782 333.915 282.567C333.687 281.352 333.826 280.352 333.965 280.352Z" fill="#745BE1"/>
<path d="M340.623 273.632C340.872 275.209 340.944 276.81 340.838 278.403C340.906 279.993 340.791 281.586 340.496 283.15C340.167 279.983 340.209 276.788 340.623 273.632Z" fill="#745BE1"/>
<path d="M325.232 277.618C325.232 277.618 325.232 277.846 324.903 278.011C324.539 278.221 324.111 278.288 323.7 278.201C323.285 278.116 322.915 277.882 322.662 277.542C322.472 277.289 322.46 277.074 322.523 277.049C322.586 277.024 323.08 277.517 323.789 277.656C324.497 277.796 325.143 277.492 325.232 277.618Z" fill="#745BE1"/>
<path d="M329.864 278.378C329.864 278.378 329.776 278.606 329.472 278.758C329.071 278.921 328.632 278.965 328.206 278.884C327.767 278.804 327.364 278.587 327.055 278.264C326.827 277.998 326.776 277.796 326.827 277.745C326.877 277.694 327.472 278.188 328.308 278.34C329.143 278.492 329.788 278.239 329.864 278.378Z" fill="#745BE1"/>
<path d="M338.737 277.454C338.737 277.378 339.091 277.783 338.737 278.327C338.252 278.865 337.574 279.188 336.851 279.226C336.153 279.29 335.453 279.13 334.851 278.77C334.408 278.479 334.231 278.188 334.282 278.137C335.082 278.48 335.943 278.661 336.813 278.669C337.404 278.635 337.972 278.429 338.446 278.074C338.737 277.783 338.661 277.479 338.737 277.454Z" fill="#745BE1"/>
<path d="M386.491 159.479C380.466 165.807 343.053 202.512 343.053 202.512C343.053 202.512 340.888 261.873 339.8 262.126C338.711 262.38 317.207 260.62 317.207 260.62C317.207 260.62 314.195 197.69 316.701 190.514C319.207 183.337 351.204 141.38 351.9 140.506C352.596 139.633 356.266 133.216 368.506 130.064C382.846 126.394 388.871 133.267 391.288 140.316C393.364 146.392 389.402 155.834 387.491 158.365C387.181 158.757 386.847 159.129 386.491 159.479Z" fill="#2E2166"/>
<path d="M386.491 159.479C386.491 159.479 386.668 159.226 387.048 158.783C387.6 158.117 388.068 157.386 388.44 156.606C389.946 153.634 390.976 150.443 391.491 147.151C391.917 144.795 391.76 142.37 391.035 140.089C390.128 137.383 388.577 134.937 386.516 132.963C385.34 131.906 383.997 131.051 382.542 130.431C380.983 129.81 379.341 129.422 377.669 129.28C374 129.117 370.331 129.61 366.835 130.735C362.944 131.85 359.307 133.712 356.127 136.216C354.477 137.589 353.032 139.192 351.837 140.975L347.748 146.379C342.268 153.682 336.446 161.567 330.459 169.858C327.485 174.034 324.434 178.338 321.498 182.818C319.976 185.047 318.594 187.367 317.359 189.767C317.233 190.083 317.068 190.374 316.954 190.691L316.764 191.665C316.609 192.327 316.512 193 316.473 193.678L316.296 195.741L316.195 197.817C315.802 208.967 316.119 220.599 316.435 232.395C316.726 242.015 317.093 251.444 317.511 260.582L317.207 260.279L328.763 261.19L334.433 261.582L337.231 261.747L338.623 261.81H339.597C339.888 260.02 340.086 258.216 340.192 256.405C340.306 254.583 340.433 252.786 340.547 250.988C340.749 247.411 340.943 243.892 341.129 240.432C341.825 226.611 342.395 213.853 342.787 202.462V202.361V202.285L374.606 170.946L383.327 162.415L385.605 160.2C386.124 159.707 386.403 159.466 386.403 159.466C386.403 159.466 386.162 159.745 385.656 160.251L383.428 162.517L374.809 171.149L343.167 202.652L343.243 202.474C342.838 213.866 342.344 226.611 341.673 240.445C341.496 243.896 341.31 247.415 341.116 251.001C340.99 252.798 340.876 254.608 340.762 256.431C340.662 258.289 340.455 260.14 340.142 261.975C340.112 262.075 340.065 262.169 340.002 262.253C339.947 262.326 339.865 262.376 339.775 262.392H339.673H339.268H338.559L337.155 262.329L334.345 262.164L328.674 261.772L317.119 260.873H316.828V260.582C316.41 251.431 316.043 242.002 315.752 232.37C315.435 220.523 315.119 208.955 315.524 197.753L315.625 195.665L315.815 193.577C315.856 192.874 315.953 192.175 316.106 191.488L316.334 190.45C316.455 190.118 316.594 189.793 316.752 189.476C317.998 187.044 319.397 184.693 320.941 182.439C323.903 177.933 326.953 173.642 329.94 169.465C335.939 161.124 341.787 153.302 347.293 146.012L351.368 140.646C352.026 139.797 352.634 138.861 353.406 138.114C354.131 137.307 354.918 136.558 355.76 135.874C362.044 131.109 369.775 128.651 377.657 128.913C379.373 129.08 381.055 129.506 382.643 130.178C384.137 130.808 385.511 131.69 386.706 132.786C388.8 134.802 390.369 137.301 391.275 140.063C392.007 142.397 392.151 144.875 391.693 147.278C391.149 150.589 390.072 153.791 388.504 156.758C388.113 157.534 387.624 158.258 387.048 158.909C386.706 159.264 386.491 159.479 386.491 159.479Z" fill="#E0E0E0"/>
<path d="M407.717 186.641C407.596 186.419 407.511 186.18 407.464 185.932C407.299 185.4 407.097 184.666 406.843 183.869C406.299 181.996 405.578 179.388 404.654 176.199C402.831 169.604 400.338 160.555 397.541 150.404V150.265L397.617 150.138C398.313 149.05 399.06 147.885 399.819 146.721L400.388 145.822L400.642 146.328L396.452 145.936H396.237L396.161 145.721C395.414 143.358 394.548 141.035 393.566 138.76C392.699 136.647 391.604 134.636 390.301 132.76C388.991 131.21 387.38 129.94 385.567 129.026C383.897 128.077 382.289 127.28 380.821 126.584C377.859 125.191 375.442 124.179 373.771 123.483L371.86 122.685C371.63 122.61 371.409 122.508 371.202 122.382C371.442 122.411 371.676 122.475 371.898 122.571C372.353 122.723 373.012 122.951 373.86 123.268C375.556 123.888 378.011 124.837 380.998 126.179C382.492 126.862 384.112 127.634 385.82 128.571C387.71 129.489 389.393 130.781 390.769 132.368C392.12 134.262 393.249 136.305 394.136 138.456C395.141 140.751 396.028 143.095 396.794 145.48L396.503 145.253L400.705 145.632H401.236L400.945 146.088L400.376 146.987L398.161 150.404V150.138C400.882 160.327 403.3 169.377 405.059 175.996C405.894 179.211 406.565 181.831 407.059 183.717C407.261 184.578 407.438 185.274 407.565 185.818C407.654 186.084 407.705 186.361 407.717 186.641Z" fill="#E0E0E0"/>
<path d="M403.35 148.822C396.009 153.15 390.048 153.125 377.796 152.087C369.303 151.366 361.861 148.936 353.343 148.67C341.065 148.303 331.826 152.049 320.688 157.112L312.436 166.858L327.915 171.541C338.377 166.165 350.058 163.6 361.81 164.099C380.795 165.137 398.616 159.96 404.92 155.138L407.084 149.138L406.261 145.999L403.654 145.759L403.35 148.822Z" fill="#EEEEEE"/>
<path d="M403.35 148.822C403.35 148.822 403.35 148.556 403.35 148.037C403.35 147.518 403.452 146.771 403.54 145.797V145.708H403.616L406.224 145.923H406.299V145.999C406.54 146.911 406.831 147.961 407.147 149.126C406.54 150.885 405.819 152.923 405.034 155.15C403.181 156.499 401.165 157.609 399.034 158.454C396.597 159.487 394.094 160.358 391.542 161.061C382.063 163.636 372.243 164.725 362.431 164.289C358.677 164.1 354.913 164.218 351.179 164.643C347.238 165.106 343.346 165.915 339.547 167.06C335.573 168.213 331.724 169.756 328.055 171.668H327.928H327.801L318.764 169.161L312.309 167.174L311.828 167.035L312.145 166.655L320.397 156.897H320.46C325.777 154.374 331.277 152.258 336.914 150.568C342.127 149.063 347.54 148.367 352.963 148.505C357.8 148.747 362.608 149.382 367.342 150.404C371.416 151.238 375.537 151.825 379.682 152.163C383.068 152.493 386.469 152.636 389.871 152.594C392.415 152.557 394.943 152.183 397.389 151.48C398.918 151.018 400.405 150.426 401.832 149.708L402.92 149.138L403.312 148.948C403.312 148.948 403.211 149.037 402.971 149.176C402.73 149.315 402.363 149.543 401.882 149.809C400.47 150.584 398.987 151.219 397.452 151.708C394.99 152.47 392.435 152.896 389.858 152.973C386.446 153.049 383.031 152.935 379.631 152.632C375.47 152.328 371.332 151.765 367.24 150.948C362.529 149.963 357.746 149.354 352.938 149.126C347.572 149.003 342.218 149.708 337.066 151.214C331.482 152.915 326.033 155.03 320.764 157.542L320.878 157.454L312.638 167.212L312.487 166.681L318.904 168.63L327.966 171.364H327.713C331.438 169.396 335.351 167.81 339.395 166.63C343.228 165.485 347.154 164.676 351.128 164.213C354.91 163.794 358.72 163.684 362.519 163.884C372.265 164.344 382.024 163.302 391.453 160.795C393.989 160.109 396.478 159.263 398.908 158.264C401.011 157.438 403.009 156.363 404.857 155.062V155.138L407.059 149.138V149.214L406.274 146.075L406.363 146.164L403.755 145.885H403.844L403.578 148.151C403.439 148.581 403.35 148.822 403.35 148.822Z" fill="#2E2166"/>
<path d="M374.328 227.814C374.328 227.978 368.67 226.13 361.836 223.687C357.668 222.318 353.575 220.734 349.571 218.941C349.634 218.777 355.229 220.624 362.064 223.067C366.231 224.436 370.325 226.021 374.328 227.814Z" fill="#E0E0E0"/>
</svg>
