<svg width="249" height="241" viewBox="0 0 249 241" fill="none" xmlns="http://www.w3.org/2000/svg">
<path d="M87.109 0.5H53.3813C52.4796 0.5 51.7487 1.23096 51.7487 2.13265V35.8603C51.7487 36.762 52.4796 37.493 53.3813 37.493H87.109C88.0107 37.493 88.7416 36.762 88.7416 35.8603V2.13265C88.7416 1.23096 88.0107 0.5 87.109 0.5Z" fill="#EAEAEA"/>
<path d="M81.0534 9.63098H81.0118C79.7591 9.63098 78.7439 9.70816 78.7439 9.80909C79.4072 9.97436 80.0924 10.0345 80.7743 9.9872C80.6615 10.1059 80.4953 10.2781 80.2875 10.5096L78.5064 12.5282L72.5695 19.3438L70.07 17.6518C69.6248 17.3609 69.1854 17.0581 68.7758 16.7909L68.6392 16.7078L68.5383 16.8265C65.8964 19.9137 63.5572 22.6744 61.889 24.6692L59.9357 27.044C59.684 27.3201 59.4575 27.6181 59.2589 27.9345C59.5362 27.6919 59.7961 27.43 60.0366 27.1508L62.073 24.8592C63.765 22.9297 66.0982 20.2403 68.7046 17.2065L69.8919 17.9842L72.522 19.7297L72.6526 19.8187L72.7535 19.7L78.6905 12.6885L80.4062 10.6046C80.6318 10.3315 80.7862 10.1297 80.8812 10.0109H80.9109C80.8605 10.6985 80.9186 11.3897 81.083 12.0592C81.184 12.0592 81.2611 11.0677 81.2671 9.83284V9.65473L81.0534 9.63098Z" fill="#EAEAEA"/>
<path d="M174.779 25.1917H192.875C192.875 28.7533 191.825 32.2358 189.854 35.2029C187.884 38.17 185.082 40.4897 181.8 41.8715C178.517 43.2532 174.9 43.6355 171.401 42.9705C167.902 42.3055 164.677 40.6228 162.13 38.1331C159.583 35.6434 157.827 32.4575 157.083 28.9746C156.339 25.4916 156.639 21.8664 157.946 18.5532C159.253 15.2401 161.508 12.3862 164.43 10.3492C167.351 8.31214 170.809 7.18256 174.37 7.10193L174.779 25.1917Z" fill="#EAEAEA"/>
<path d="M179.654 20.7805L179.25 2.68482C184.084 2.68281 188.738 4.51373 192.275 7.80838C195.661 11.1798 197.619 15.7251 197.743 20.5015L179.654 20.7805Z" fill="#CCCCCC"/>
<path d="M182.147 99.6823C182.046 103.007 182.236 113.147 182.236 113.147L185.205 110.179H201.917C202.198 110.177 202.467 110.065 202.665 109.865C202.863 109.666 202.974 109.397 202.974 109.116V99.7358C202.974 99.4555 202.863 99.1867 202.665 98.9885C202.466 98.7903 202.198 98.679 201.917 98.679H183.21C182.938 98.6771 182.675 98.7804 182.477 98.9673C182.279 99.1542 182.161 99.4104 182.147 99.6823Z" fill="#CCCCCC"/>
<path d="M190.684 104.426C190.683 104.581 190.636 104.732 190.549 104.86C190.462 104.988 190.34 105.087 190.196 105.146C190.053 105.204 189.896 105.219 189.744 105.188C189.592 105.157 189.453 105.082 189.344 104.972C189.235 104.862 189.161 104.722 189.132 104.571C189.102 104.419 189.118 104.262 189.177 104.119C189.237 103.976 189.337 103.854 189.466 103.768C189.595 103.682 189.746 103.636 189.901 103.636C190.004 103.636 190.106 103.657 190.202 103.696C190.297 103.736 190.384 103.794 190.457 103.868C190.53 103.941 190.587 104.028 190.626 104.124C190.665 104.22 190.685 104.322 190.684 104.426Z" fill="#EAEAEA"/>
<path d="M193.332 104.426C193.332 104.582 193.286 104.735 193.199 104.865C193.112 104.995 192.988 105.096 192.843 105.156C192.699 105.216 192.54 105.231 192.386 105.2C192.233 105.169 192.092 105.093 191.982 104.982C191.872 104.871 191.797 104.73 191.767 104.576C191.738 104.423 191.754 104.264 191.815 104.12C191.875 103.975 191.978 103.852 192.108 103.766C192.239 103.68 192.392 103.635 192.548 103.636C192.652 103.636 192.754 103.657 192.85 103.696C192.945 103.736 193.032 103.794 193.105 103.868C193.178 103.941 193.235 104.028 193.274 104.124C193.313 104.22 193.333 104.322 193.332 104.426Z" fill="#EAEAEA"/>
<path d="M195.98 104.426C195.98 104.582 195.934 104.735 195.847 104.865C195.76 104.994 195.637 105.096 195.493 105.155C195.348 105.215 195.19 105.231 195.036 105.2C194.883 105.17 194.743 105.095 194.632 104.984C194.522 104.874 194.447 104.733 194.416 104.58C194.386 104.427 194.401 104.268 194.461 104.124C194.521 103.979 194.622 103.856 194.752 103.769C194.882 103.683 195.034 103.636 195.19 103.636C195.4 103.636 195.601 103.719 195.749 103.867C195.897 104.016 195.98 104.216 195.98 104.426Z" fill="#EAEAEA"/>
<path d="M46.061 152.45C46.5063 146.673 50.7571 137.732 55.9816 135.232C58.6141 133.995 61.5203 133.454 64.4217 133.662C67.3231 133.87 70.1224 134.82 72.5516 136.42C75.8228 138.628 78.3045 141.995 81.8844 143.657C88.9672 146.946 97.3738 142.286 102.319 136.242C107.265 130.198 110.364 122.706 115.974 117.244C118.674 114.616 121.871 112.555 125.379 111.18C128.886 109.806 132.633 109.146 136.399 109.24C140.165 109.334 143.874 110.18 147.309 111.728C150.743 113.275 153.834 115.494 156.399 118.253C160.204 122.349 162.698 127.461 165.755 132.139C168.813 136.818 172.737 141.324 178.051 143.075C185.347 145.48 193.582 141.947 198.747 136.254C203.912 130.56 206.595 123.086 208.84 115.736C211.084 108.386 213.049 100.804 217.151 94.3093C221.254 87.8143 228.028 82.4354 235.71 82.2395V152.236L46.061 152.45Z" fill="#EAEAEA"/>
<path d="M248.29 240.346C248.29 240.429 192.863 240.5 124.505 240.5C56.1477 240.5 0.70874 240.429 0.70874 240.346C0.70874 240.263 56.124 240.191 124.505 240.191C192.887 240.191 248.29 240.286 248.29 240.346Z" fill="#28215D"/>
<path d="M201.293 91.0381C201.414 91.0226 201.533 90.9988 201.65 90.9668C201.816 90.909 201.967 90.8152 202.092 90.692C202.217 90.5688 202.313 90.4193 202.374 90.2544C202.446 90.0019 202.468 89.7377 202.439 89.4766C202.439 89.1857 202.439 88.8829 202.439 88.5208C202.439 87.8262 202.439 87.0306 202.439 86.146C202.439 82.5423 202.41 77.3416 202.386 70.9297C202.386 67.7119 202.386 64.1972 202.386 60.4213C202.386 58.5275 202.386 56.5742 202.386 54.5616C202.386 53.5583 202.386 52.5371 202.386 51.5041C202.386 50.9995 202.386 50.4414 202.386 49.9664C202.347 49.7351 202.231 49.5238 202.056 49.3673C201.881 49.2108 201.658 49.1185 201.424 49.1056H173.734C173.465 49.1055 173.207 49.2102 173.014 49.3976C172.821 49.5849 172.709 49.8401 172.701 50.1089C172.701 50.7026 172.701 51.2963 172.701 51.9256V62.5824C172.701 67.2073 172.701 71.6659 172.701 75.9167C172.701 80.1676 172.701 84.2284 172.701 87.9746V89.3817C172.683 89.6049 172.683 89.8293 172.701 90.0525C172.736 90.2543 172.831 90.4408 172.974 90.5869C173.115 90.7362 173.297 90.8413 173.497 90.8896C173.709 90.9212 173.924 90.9312 174.138 90.9193H180.508L195.725 90.9728L199.88 91.0024H200.955H201.323C201.323 91.0024 201.198 91.0024 200.955 91.0024H199.88L195.725 91.0321L180.508 91.0796H175.468H174.138C173.904 91.0935 173.669 91.0816 173.437 91.044C173.191 90.9886 172.968 90.8603 172.796 90.6759C172.618 90.4935 172.498 90.2619 172.452 90.011C172.435 89.7738 172.435 89.5357 172.452 89.2985V87.8915C172.452 84.1156 172.452 80.0785 172.452 75.8336C172.452 71.5887 172.452 67.1241 172.452 62.4993C172.452 60.1918 172.452 57.8408 172.452 55.4462V51.8425C172.452 51.2488 172.452 50.6551 172.452 50.0139C172.463 49.6653 172.609 49.3346 172.859 49.0919C173.11 48.8492 173.445 48.7136 173.794 48.7137H201.442C201.739 48.7325 202.021 48.8512 202.242 49.0507C202.463 49.2501 202.61 49.5185 202.659 49.8121C202.7 50.4058 202.659 50.8688 202.659 51.3972V54.4548C202.659 56.4674 202.659 58.4206 202.659 60.3145C202.659 64.0904 202.659 67.605 202.659 70.8228C202.659 77.2347 202.623 82.4355 202.611 86.0392C202.611 86.9356 202.611 87.7312 202.611 88.4139C202.611 88.7583 202.611 89.0789 202.611 89.3698C202.634 89.6378 202.606 89.9078 202.528 90.1653C202.464 90.3382 202.36 90.4936 202.225 90.6194C202.09 90.7451 201.928 90.8376 201.751 90.8896C201.615 90.9801 201.457 91.0314 201.293 91.0381Z" fill="#28215D"/>
<path d="M189.467 57.2569C185.43 56.3604 180.995 58.5512 179.861 62.7129C178.769 66.7085 181.411 71.3749 185.418 72.4614C187.395 72.935 189.476 72.6679 191.269 71.7107C193.062 70.7535 194.442 69.1725 195.149 67.2666C196.585 62.9979 193.849 58.3968 189.716 57.0372C189.242 56.8769 189.052 57.6309 189.515 57.7853C193.035 59.0736 195.564 62.8732 194.508 66.6907C193.51 70.3122 189.265 72.7345 185.644 71.7727C182.159 70.8465 179.909 67.1063 180.354 63.6213C180.894 59.3526 185.412 56.7998 189.431 57.4944C189.58 57.4944 189.645 57.2985 189.497 57.2688L189.467 57.2569Z" fill="#28215D"/>
<path d="M185.454 72.3368C187.5 72.941 189.703 72.7202 191.589 71.7216C193.475 70.7231 194.895 69.026 195.546 66.9935C196.805 62.6596 193.997 57.9694 189.776 56.6811C188.802 56.3842 188.452 57.821 189.36 58.1772C192.922 59.5783 195.297 63.4551 193.896 67.2607C192.637 70.6447 188.933 72.2774 185.495 71.8915C185.222 71.8559 185.186 72.2833 185.436 72.3546L185.454 72.3368Z" fill="#E5E5E5"/>
<path d="M195.742 79.4373C195.742 79.5204 192.073 79.5917 187.538 79.5917C183.002 79.5917 179.333 79.5204 179.333 79.4373C179.333 79.3542 183.008 79.283 187.538 79.283C192.067 79.283 195.742 79.3542 195.742 79.4373Z" fill="#E5E5E5"/>
<path d="M195.742 81.9249C195.742 82.0139 192.073 82.0792 187.538 82.0792C183.002 82.0792 179.333 82.0139 179.333 81.9249C179.333 81.8358 183.008 81.7705 187.538 81.7705C192.067 81.7705 195.742 81.8417 195.742 81.9249Z" fill="#E5E5E5"/>
<path d="M83.8909 23.1137V78.0064C83.8924 78.5917 84.1256 79.1525 84.5395 79.5664C84.9533 79.9802 85.5141 80.2134 86.0994 80.215H159.219C159.804 80.2134 160.365 79.9802 160.778 79.5664C161.192 79.1525 161.425 78.5917 161.427 78.0064V21.2139C161.427 20.9188 161.368 20.6266 161.253 20.3547C161.139 20.0828 160.971 19.8367 160.759 19.6308C160.548 19.4249 160.297 19.2635 160.023 19.1561C159.748 19.0486 159.454 18.9974 159.159 19.0053L86.04 20.9051C85.4651 20.9221 84.9194 21.1621 84.5183 21.5742C84.1172 21.9864 83.8922 22.5385 83.8909 23.1137Z" fill="#EAEAEA"/>
<path d="M154.896 32.7196C154.896 32.779 153.964 32.2506 152.195 31.6925C149.687 30.9104 147.034 30.7074 144.435 31.0988C142.66 31.3798 140.941 31.9409 139.342 32.7612C137.515 33.7428 135.825 34.9583 134.313 36.3768C132.662 37.8372 131.024 39.4877 129.136 41.0135C127.211 42.6555 124.958 43.8697 122.528 44.5756C121.269 44.9008 119.958 44.9794 118.669 44.8072C117.433 44.6207 116.232 44.2484 115.107 43.7029C113.047 42.6282 111.049 41.4389 109.123 40.1408C107.396 38.9954 105.493 38.1429 103.488 37.6176C101.741 37.1937 99.9367 37.0553 98.1452 37.2079C95.5307 37.4256 93.0005 38.2378 90.7478 39.5827C89.1627 40.5564 88.4146 41.2807 88.373 41.2332C88.5326 41.0392 88.7117 40.8622 88.9074 40.7048C89.445 40.2218 90.0208 39.783 90.6291 39.3927C92.5312 38.1646 94.6606 37.3311 96.891 36.9415C99.1214 36.5519 101.407 36.6143 103.613 37.1248C105.673 37.6391 107.632 38.496 109.408 39.6599C111.323 40.9324 113.305 42.1017 115.344 43.1627C117.521 44.2716 120.023 44.5644 122.398 43.9879C124.748 43.2956 126.927 42.1163 128.792 40.5267C130.656 39.0365 132.3 37.392 133.975 35.9315C135.53 34.4965 137.266 33.271 139.14 32.2862C140.79 31.4862 142.558 30.9551 144.376 30.7129C147.028 30.3421 149.73 30.6046 152.26 31.4788C152.944 31.7117 153.609 31.9976 154.249 32.3337C154.478 32.4397 154.694 32.569 154.896 32.7196Z" fill="#412D89"/>
<path d="M108.315 45.6146H101.161V64.9571H108.315V45.6146Z" fill="#412D89"/>
<path d="M138.665 45.6146H131.511V64.9571H138.665V45.6146Z" fill="#412D89"/>
<path d="M148.776 34.2573H141.622V64.9571H148.776V34.2573Z" fill="#412D89"/>
<path d="M99.0595 58.8658H91.9055V65.3727H99.0595V58.8658Z" fill="#412D89"/>
<path d="M118.432 54.3478H111.278V64.9571H118.432V54.3478Z" fill="#412D89"/>
<path d="M128.548 51.9138H121.394V64.9572H128.548V51.9138Z" fill="#412D89"/>
<path d="M108.6 67.2369C108.6 67.3972 106.872 67.5219 104.735 67.5219C102.598 67.5219 100.87 67.3972 100.87 67.2369C100.87 67.0766 102.604 66.9519 104.735 66.9519C106.867 66.9519 108.6 67.0766 108.6 67.2369Z" fill="#28215D"/>
<path d="M99.7009 67.2369C99.7009 67.3972 97.9674 67.5219 95.836 67.5219C93.7046 67.5219 91.9711 67.3972 91.9711 67.2369C91.9711 67.0766 93.7046 66.9519 95.836 66.9519C97.9674 66.9519 99.7009 67.0766 99.7009 67.2369Z" fill="#28215D"/>
<path d="M150.188 67.2369C150.188 67.3972 148.229 67.5219 145.819 67.5219C143.408 67.5219 141.449 67.3972 141.449 67.2369C141.449 67.0766 143.402 66.9519 145.819 66.9519C148.235 66.9519 150.188 67.0766 150.188 67.2369Z" fill="#28215D"/>
<path d="M135.192 67.5219C137.605 67.5219 139.561 67.3943 139.561 67.2369C139.561 67.0795 137.605 66.9519 135.192 66.9519C132.778 66.9519 130.822 67.0795 130.822 67.2369C130.822 67.3943 132.778 67.5219 135.192 67.5219Z" fill="#28215D"/>
<path d="M128.542 67.2369C128.542 67.3972 126.815 67.5219 124.677 67.5219C122.54 67.5219 120.818 67.3972 120.818 67.2369C120.818 67.0766 122.546 66.9519 124.677 66.9519C126.809 66.9519 128.542 67.0766 128.542 67.2369Z" fill="#28215D"/>
<path d="M118.093 67.2369C118.093 67.3972 116.36 67.5219 114.228 67.5219C112.097 67.5219 110.363 67.3972 110.363 67.2369C110.363 67.0766 112.091 66.9519 114.228 66.9519C116.366 66.9519 118.093 67.0766 118.093 67.2369Z" fill="#28215D"/>
<path d="M141.407 91.3467H141.526C141.648 91.3573 141.767 91.3916 141.876 91.4477C142.059 91.5409 142.208 91.6881 142.304 91.8692C142.419 92.126 142.462 92.4091 142.429 92.6885C142.429 93.9471 142.429 95.7935 142.458 98.1623C142.488 100.531 142.458 103.452 142.488 106.83C142.488 108.524 142.488 110.329 142.488 112.245V114.424C142.522 114.693 142.472 114.967 142.345 115.207C142.205 115.455 141.972 115.639 141.698 115.718C141.434 115.765 141.165 115.781 140.897 115.765H139.341L139.448 115.658C139.448 117.368 139.448 119.221 139.448 121.132V121.447L139.24 121.209L134.39 115.742L134.485 115.783H84.4842H80.9874C80.7915 115.783 80.6193 115.783 80.3937 115.783C80.1766 115.756 79.9712 115.67 79.8 115.534C79.6284 115.391 79.499 115.204 79.426 114.994C79.3933 114.886 79.3753 114.774 79.3726 114.661V102.015C79.3726 99.0766 79.3726 96.1853 79.3726 93.3594V92.2907C79.3795 92.0919 79.4378 91.8982 79.5419 91.7286C79.6459 91.559 79.7921 91.4193 79.9663 91.323C80.1509 91.2332 80.3548 91.1904 80.5599 91.1983H86.2238L114.941 91.2339L134.295 91.2814L139.561 91.3111H134.295L114.941 91.3586L86.2238 91.3942H80.5659C80.4141 91.3834 80.2622 91.4142 80.1265 91.4833C79.9931 91.5519 79.8801 91.6544 79.7988 91.7805C79.7175 91.9066 79.6708 92.0518 79.6635 92.2017V102.015C79.6635 104.956 79.6635 107.946 79.6635 110.986V114.424C79.6484 114.601 79.6625 114.779 79.705 114.952C79.7532 115.106 79.8462 115.243 79.9722 115.344C80.0995 115.447 80.2543 115.511 80.4175 115.528H84.4783H134.479H134.538L134.574 115.569L139.413 121.055L139.205 121.132C139.205 119.215 139.205 117.368 139.205 115.658V115.546H140.891C141.139 115.564 141.388 115.554 141.633 115.516C141.853 115.451 142.04 115.304 142.155 115.106C142.274 114.899 142.328 114.661 142.31 114.424C142.31 114.174 142.31 113.925 142.31 113.681V112.221C142.31 110.303 142.31 108.499 142.31 106.806C142.31 103.428 142.31 100.519 142.31 98.1386C142.31 95.7579 142.31 93.9234 142.31 92.6647C142.348 92.3953 142.313 92.1205 142.209 91.8692C142.12 91.6946 141.982 91.5501 141.811 91.4536C141.684 91.3956 141.547 91.3595 141.407 91.3467Z" fill="#28215D"/>
<path d="M82.6975 111.378C83.1962 109.638 83.778 107.863 84.9357 106.474C86.0934 105.085 87.9754 104.153 89.7268 104.604C92.4994 105.316 93.8352 109.009 96.6671 109.353C98.2344 109.567 99.7602 108.629 100.769 107.412C101.779 106.195 102.402 104.717 103.174 103.339C104.361 101.267 105.923 99.3498 108.054 98.3108C110.185 97.2719 112.928 97.2659 114.793 98.7323C117.987 101.25 117.541 106.807 120.943 109.027C121.77 109.547 122.734 109.81 123.71 109.781C124.687 109.753 125.633 109.434 126.429 108.867C127.943 107.745 128.715 105.809 130.306 104.806C132.146 103.618 134.699 104.099 136.367 105.5C138.036 106.902 138.902 109.063 139.217 111.212" fill="#E5E5E5"/>
<path d="M138.071 101.392C138.023 101.382 137.977 101.364 137.935 101.339L137.543 101.155C137.031 100.937 136.503 100.758 135.963 100.62C133.96 100.19 131.882 100.251 129.908 100.798C128.546 101.167 127.22 101.66 125.948 102.271C124.565 102.912 123.134 103.696 121.608 104.485C120.017 105.345 118.362 106.08 116.657 106.682C114.813 107.334 112.856 107.607 110.904 107.483C108.962 107.3 107.06 106.819 105.264 106.058C103.512 105.358 101.903 104.533 100.372 103.761C97.3201 102.193 94.4347 100.941 91.8937 100.561C89.8784 100.193 87.8026 100.344 85.8618 101C85.1585 101.265 84.4825 101.597 83.8433 101.992C83.8786 101.955 83.9185 101.923 83.962 101.897L84.3182 101.641C84.7896 101.339 85.291 101.087 85.8143 100.887C87.7706 100.177 89.8782 99.989 91.9293 100.341C94.5357 100.703 97.4329 101.95 100.496 103.506C102.034 104.271 103.643 105.091 105.376 105.779C107.145 106.525 109.017 106.995 110.927 107.175C112.839 107.297 114.756 107.03 116.562 106.391C118.252 105.802 119.894 105.081 121.471 104.236C123.003 103.446 124.44 102.674 125.841 102.039C127.131 101.431 128.474 100.944 129.854 100.585C131.862 100.046 133.973 100.019 135.993 100.507C136.73 100.685 137.432 100.984 138.071 101.392Z" fill="#28215D"/>
<path d="M111.58 97.6042C111.586 97.7286 111.555 97.8519 111.49 97.9582C111.425 98.0646 111.33 98.1491 111.217 98.2008C111.104 98.2526 110.977 98.2693 110.855 98.2487C110.732 98.2281 110.618 98.1712 110.528 98.0853C110.438 97.9994 110.375 97.8885 110.349 97.7668C110.322 97.6452 110.333 97.5183 110.379 97.4027C110.425 97.287 110.505 97.1879 110.608 97.118C110.711 97.0481 110.832 97.0106 110.957 97.0105C111.117 97.0118 111.27 97.0738 111.386 97.1841C111.502 97.2944 111.571 97.4446 111.58 97.6042Z" fill="#412D89"/>
<path d="M89.2103 100.246C89.2103 100.37 89.1737 100.49 89.1052 100.593C89.0367 100.695 88.9393 100.775 88.8254 100.822C88.7115 100.869 88.5862 100.882 88.4653 100.858C88.3443 100.834 88.2333 100.774 88.1461 100.687C88.0589 100.6 87.9995 100.489 87.9755 100.368C87.9514 100.247 87.9638 100.122 88.011 100.008C88.0581 99.8938 88.138 99.7964 88.2405 99.7279C88.3431 99.6594 88.4636 99.6229 88.5869 99.6229C88.6699 99.6186 88.7528 99.6318 88.8304 99.6616C88.908 99.6914 88.9784 99.7372 89.0371 99.796C89.0959 99.8547 89.1417 99.9252 89.1715 100.003C89.2013 100.08 89.2145 100.163 89.2103 100.246Z" fill="#412D89"/>
<path d="M133.725 100.252C133.725 100.377 133.688 100.498 133.619 100.602C133.55 100.705 133.452 100.786 133.337 100.834C133.222 100.881 133.095 100.894 132.973 100.869C132.851 100.845 132.739 100.785 132.651 100.697C132.563 100.609 132.503 100.497 132.479 100.375C132.454 100.253 132.467 100.126 132.515 100.011C132.562 99.8963 132.643 99.798 132.746 99.7289C132.85 99.6597 132.972 99.6228 133.096 99.6228C133.263 99.6228 133.423 99.6891 133.541 99.8071C133.659 99.9251 133.725 100.085 133.725 100.252Z" fill="#412D89"/>
<path d="M175.89 188.285H181.453C184.047 188.285 189.61 181.463 159.427 182.241C139.585 182.752 138.279 185.684 139.283 187.394C139.525 187.783 139.87 188.096 140.28 188.301C140.69 188.505 141.148 188.592 141.604 188.552C142.091 188.516 142.732 188.51 143.492 188.516L143.017 190.606L131.974 239.419L133.898 239.253L142.055 212.383L157.616 211.789L158.506 240.358H160.946L161.54 211.641H161.617L163.262 211.581L177.053 211.047L185.228 240.363H187.568L175.89 188.285ZM143.237 208.553L148.681 190.606L149.274 188.576C151.554 188.576 154.22 188.522 156.892 188.522L157.485 208.114L143.237 208.553ZM163.755 207.912H163.161L161.647 207.96L162.051 188.267H170.742L176.086 207.509L163.755 207.912Z" fill="#412D89"/>
<path d="M126.168 236.991V230.68L137.478 230.609L137.567 240.043L136.866 240.096C133.749 240.298 120.997 240.69 118.907 240.037C116.58 239.319 126.168 236.991 126.168 236.991Z" fill="#E5E5E5"/>
<path d="M118.64 239.461C118.64 239.568 122.867 239.657 128.086 239.657C133.304 239.657 137.531 239.568 137.531 239.461C137.531 239.354 133.304 239.271 128.086 239.271C122.867 239.271 118.64 239.354 118.64 239.461Z" fill="#28215D"/>
<path d="M125.971 238.279C126.066 238.231 125.971 237.899 125.74 237.567C125.508 237.235 125.206 237.063 125.147 237.14C125.087 237.217 125.224 237.49 125.449 237.798C125.675 238.107 125.876 238.332 125.971 238.279Z" fill="#28215D"/>
<path d="M125.248 238.695C125.349 238.66 125.295 238.286 125.075 237.894C124.856 237.502 124.559 237.259 124.482 237.3C124.405 237.342 124.541 237.692 124.749 238.054C124.957 238.416 125.147 238.737 125.248 238.695Z" fill="#28215D"/>
<path d="M134.123 239.419C134.171 239.419 134.337 239.283 134.58 239.004C134.88 238.644 135.212 238.312 135.572 238.012C135.926 237.732 136.348 237.548 136.795 237.478C137.139 237.431 137.388 237.478 137.388 237.431C137.388 237.383 137.198 237.235 136.795 237.205C136.268 237.201 135.757 237.38 135.346 237.71C134.951 238.025 134.619 238.412 134.367 238.85C134.171 239.17 134.082 239.39 134.123 239.419Z" fill="#28215D"/>
<path d="M125.936 237.092C125.883 237.181 126.073 237.401 126.399 237.519C126.725 237.638 126.992 237.596 127.028 237.519C127.063 237.442 126.814 237.288 126.529 237.181C126.245 237.074 125.99 237.003 125.936 237.092Z" fill="#28215D"/>
<path d="M126.115 236.487C126.115 236.588 126.406 236.682 126.785 236.682C127.165 236.682 127.474 236.605 127.468 236.504C127.462 236.403 127.16 236.308 126.791 236.303C126.423 236.297 126.126 236.38 126.115 236.487Z" fill="#28215D"/>
<path d="M150.028 236.991V230.68L161.338 230.609L161.427 240.043L160.727 240.096C157.61 240.298 144.857 240.69 142.767 240.037C140.446 239.319 150.028 236.991 150.028 236.991Z" fill="#E5E5E5"/>
<path d="M142.506 239.461C142.506 239.568 146.739 239.657 151.952 239.657C157.164 239.657 161.398 239.568 161.398 239.461C161.398 239.354 157.17 239.271 151.952 239.271C146.733 239.271 142.506 239.354 142.506 239.461Z" fill="#28215D"/>
<path d="M149.838 238.279C149.932 238.231 149.838 237.899 149.606 237.567C149.375 237.235 149.072 237.063 149.013 237.14C148.954 237.217 149.096 237.49 149.316 237.798C149.535 238.107 149.743 238.332 149.838 238.279Z" fill="#28215D"/>
<path d="M149.114 238.695C149.215 238.66 149.162 238.286 148.942 237.894C148.722 237.502 148.426 237.259 148.348 237.3C148.271 237.342 148.408 237.692 148.616 238.054C148.823 238.416 149.019 238.737 149.114 238.695Z" fill="#28215D"/>
<path d="M157.99 239.419C158.037 239.419 158.203 239.283 158.447 239.004C158.747 238.644 159.078 238.312 159.438 238.012C159.793 237.732 160.214 237.548 160.661 237.478C161.005 237.431 161.255 237.478 161.255 237.431C161.255 237.383 161.059 237.235 160.661 237.205C160.135 237.201 159.623 237.38 159.213 237.71C158.818 238.025 158.486 238.412 158.233 238.85C158.037 239.17 157.948 239.39 157.99 239.419Z" fill="#28215D"/>
<path d="M149.803 237.092C149.749 237.181 149.945 237.401 150.265 237.519C150.586 237.638 150.859 237.596 150.894 237.519C150.93 237.442 150.681 237.288 150.396 237.181C150.111 237.074 149.862 237.003 149.803 237.092Z" fill="#28215D"/>
<path d="M149.981 236.487C149.981 236.588 150.272 236.682 150.652 236.682C151.032 236.682 151.341 236.605 151.335 236.504C151.329 236.403 151.026 236.308 150.658 236.303C150.29 236.297 149.993 236.38 149.981 236.487Z" fill="#28215D"/>
<path d="M182.432 123.792C181.969 123.685 181.393 123.745 181.114 123.359C180.835 122.973 181.037 122.522 181.185 122.112C181.682 120.798 181.696 119.351 181.227 118.027C180.89 117.155 180.296 116.405 179.523 115.878C179.636 115.769 179.734 115.645 179.814 115.51C180.033 115.114 180.143 114.668 180.134 114.216C180.149 113.814 180.079 113.413 179.929 113.039C179.778 112.666 179.551 112.328 179.262 112.049C179.007 111.818 178.676 111.69 178.332 111.69C177.989 111.69 177.658 111.818 177.403 112.049C177.309 112.138 177.234 112.245 177.182 112.364C177.131 112.483 177.105 112.611 177.105 112.74C177.105 112.87 177.131 112.998 177.182 113.117C177.234 113.236 177.309 113.343 177.403 113.432C177.528 113.534 177.679 113.598 177.838 113.618C177.998 113.638 178.16 113.613 178.306 113.545C178.502 113.444 178.531 113.319 178.531 113.319C178.458 113.389 178.374 113.447 178.282 113.491C178.147 113.539 178.002 113.55 177.862 113.524C177.721 113.498 177.59 113.436 177.481 113.343C177.403 113.263 177.343 113.167 177.304 113.062C177.265 112.957 177.249 112.845 177.255 112.734C177.262 112.622 177.292 112.513 177.343 112.414C177.394 112.314 177.465 112.226 177.552 112.156C177.779 111.967 178.069 111.869 178.364 111.882C178.659 111.895 178.939 112.018 179.149 112.227C179.404 112.49 179.603 112.803 179.731 113.146C179.86 113.489 179.916 113.856 179.897 114.222C179.905 114.627 179.802 115.028 179.6 115.379C179.52 115.511 179.422 115.631 179.309 115.736C178.992 115.544 178.648 115.402 178.288 115.314C177.522 115.13 176.691 115.178 175.99 114.815C175.406 114.481 174.961 113.948 174.738 113.313C174.738 113.248 174.738 113.177 174.738 113.106C174.822 112.073 174.962 111.047 175.159 110.03C175.291 109.043 175.265 108.041 175.082 107.062C174.945 106.226 174.619 105.434 174.128 104.744C173.637 104.054 172.995 103.487 172.25 103.084C171.739 102.832 171.179 102.696 170.609 102.686C170.04 102.676 169.475 102.791 168.955 103.025C168.677 103.152 168.42 103.322 168.195 103.529L168.071 103.66C167.72 103.834 167.41 104.081 167.162 104.384L165.334 120.877L178.745 129.076C179.789 129.041 180.821 128.841 181.803 128.482C182.292 128.296 182.731 127.998 183.085 127.613C183.44 127.227 183.7 126.765 183.845 126.262C183.969 125.748 183.892 125.205 183.629 124.746C183.367 124.287 182.938 123.945 182.432 123.792ZM173.627 106.522C173.393 105.87 173.032 105.273 172.564 104.763C172.096 104.253 171.531 103.842 170.902 103.553C170.027 103.21 169.052 103.227 168.189 103.601C168.429 103.416 168.693 103.264 168.973 103.149C169.478 102.945 170.021 102.852 170.565 102.877C171.109 102.901 171.641 103.043 172.125 103.292C172.828 103.69 173.431 104.241 173.89 104.906C174.348 105.57 174.65 106.329 174.773 107.127C174.939 108.072 174.959 109.037 174.833 109.989C174.756 110.731 174.548 111.479 174.453 112.274C174.379 111.711 174.336 111.144 174.322 110.576C174.319 109.195 174.084 107.825 173.627 106.522Z" fill="#28215D"/>
<path d="M169.656 106.498C169.575 106.182 169.391 105.902 169.133 105.702C168.626 105.473 168.05 105.447 167.524 105.631L167.495 101.843L160.121 95.8469L156.149 97.907C155.132 98.436 154.28 99.2362 153.689 100.219C153.098 101.202 152.791 102.329 152.801 103.476C152.83 106.527 152.908 110.665 153.109 113.017C153.454 117.054 157.538 117.386 157.538 117.386C157.538 117.386 157.716 118.841 157.835 120.283C157.835 120.283 156.939 132.234 161.142 132.127C164.241 132.05 166.325 125.537 167.204 122.112L167.673 120.23V120.129V120.052L167.584 108.718L167.708 108.849C167.842 108.962 168.006 109.034 168.18 109.055C168.354 109.076 168.531 109.046 168.688 108.968C168.911 108.868 169.111 108.725 169.278 108.547C169.444 108.368 169.573 108.158 169.656 107.929C169.813 107.465 169.813 106.962 169.656 106.498Z" fill="white"/>
<path d="M153.739 106.426C153.739 106.494 153.754 106.561 153.781 106.624C153.808 106.686 153.847 106.742 153.896 106.789C153.946 106.836 154.004 106.873 154.067 106.897C154.131 106.921 154.199 106.933 154.267 106.93C154.403 106.93 154.535 106.876 154.631 106.779C154.728 106.682 154.783 106.551 154.783 106.414C154.783 106.277 154.728 106.146 154.631 106.049C154.535 105.953 154.403 105.898 154.267 105.898C154.197 105.896 154.127 105.908 154.062 105.933C153.996 105.959 153.937 105.998 153.888 106.047C153.838 106.097 153.799 106.156 153.774 106.221C153.748 106.286 153.736 106.356 153.739 106.426Z" fill="#28215D"/>
<path d="M153.222 105.88C153.288 105.946 153.662 105.607 154.22 105.566C154.778 105.524 155.199 105.779 155.259 105.702C155.318 105.625 155.211 105.548 155.027 105.429C154.778 105.271 154.484 105.2 154.19 105.227C153.897 105.253 153.62 105.371 153.4 105.566C153.24 105.714 153.187 105.851 153.222 105.88Z" fill="#28215D"/>
<path d="M159.735 106.248C159.735 106.385 159.79 106.516 159.886 106.613C159.983 106.71 160.114 106.764 160.251 106.764C160.388 106.764 160.519 106.71 160.616 106.613C160.713 106.516 160.767 106.385 160.767 106.248C160.767 106.111 160.713 105.98 160.616 105.883C160.519 105.786 160.388 105.732 160.251 105.732C160.114 105.732 159.983 105.786 159.886 105.883C159.79 105.98 159.735 106.111 159.735 106.248Z" fill="#28215D"/>
<path d="M159.403 105.696C159.468 105.762 159.842 105.429 160.4 105.382C160.958 105.334 161.38 105.595 161.439 105.524C161.498 105.453 161.392 105.364 161.208 105.245C160.957 105.093 160.664 105.025 160.372 105.049C160.08 105.074 159.803 105.19 159.581 105.382C159.421 105.518 159.367 105.667 159.403 105.696Z" fill="#28215D"/>
<path d="M157.497 110.481C157.196 110.544 156.889 110.568 156.583 110.553C156.502 110.564 156.42 110.564 156.339 110.553C156.286 110.541 156.236 110.518 156.194 110.484C156.152 110.45 156.118 110.406 156.096 110.357C156.039 110.161 156.052 109.951 156.131 109.763L156.47 108.576C156.728 107.562 157.063 106.57 157.473 105.607C157.293 106.636 157.035 107.651 156.701 108.641L156.345 109.828C156.278 109.967 156.256 110.122 156.28 110.274C156.309 110.375 156.44 110.392 156.583 110.392C156.89 110.379 157.198 110.409 157.497 110.481Z" fill="#28215D"/>
<path d="M159.426 110.933C159.462 110.891 157.817 111.924 156.683 111.954C156.893 112.232 157.191 112.431 157.529 112.518C157.866 112.605 158.223 112.576 158.542 112.435C158.851 112.342 159.114 112.136 159.278 111.857C159.443 111.579 159.495 111.248 159.426 110.933Z" fill="black"/>
<path d="M157.515 117.392C159.433 117.266 161.275 116.592 162.822 115.451C162.822 115.451 161.682 118.449 157.627 118.378L157.515 117.392Z" fill="black"/>
<path d="M152.213 103.963C153.994 104.206 155.271 103.725 156.992 103.292C158.714 102.858 160.353 101.725 160.952 100.05C161.159 101.157 161.668 102.185 162.425 103.019C162.585 103.197 162.894 103.363 163.018 103.167C163.045 103.109 163.059 103.047 163.059 102.983C163.059 102.92 163.045 102.857 163.018 102.799L162.662 101.386C163.272 102.5 164.064 103.504 165.007 104.355C165.993 105.144 168.991 106.367 168.534 105.192C168.421 104.895 169.424 95.7401 160.721 95.6036C152.017 95.467 152.213 103.963 152.213 103.963Z" fill="#28215D"/>
<path d="M167.637 106.569C167.608 106.569 167.786 106.361 168.16 106.373C168.35 106.388 168.533 106.458 168.684 106.575C168.835 106.692 168.95 106.851 169.013 107.031C169.076 107.212 169.085 107.407 169.039 107.593C168.992 107.778 168.893 107.947 168.753 108.077C168.588 108.222 168.379 108.307 168.16 108.32C167.786 108.32 167.613 108.142 167.637 108.119C167.661 108.095 167.851 108.16 168.136 108.119C168.313 108.087 168.473 107.994 168.589 107.856C168.704 107.718 168.767 107.544 168.767 107.365C168.767 107.185 168.704 107.011 168.589 106.873C168.473 106.735 168.313 106.642 168.136 106.611C167.839 106.527 167.655 106.616 167.637 106.569Z" fill="black"/>
<path d="M182.088 135.007L183.584 134.704C183.584 134.704 180.324 120.052 168.997 120.052H167.661V120.123V120.224L167.192 122.106C166.313 125.532 164.224 132.044 161.13 132.122C157.206 132.222 157.729 121.839 157.812 120.438C157.713 120.449 157.617 120.475 157.527 120.515C157.527 120.515 145.208 121.198 139.716 132.003L149.215 138.943L151.536 137.542C151.536 137.542 152.296 152.824 150.99 156.985C149.518 161.687 147.238 166.894 147.238 166.894C157.681 166.081 169.561 166.55 182.224 167.719L173.776 136.699C176.615 136.548 179.416 135.978 182.088 135.007Z" fill="#E5E5E5"/>
<path d="M171.924 142.327C171.924 142.327 171.846 142.464 171.656 142.66C171.383 142.929 171.083 143.17 170.76 143.378C169.68 144.082 168.409 144.434 167.121 144.387C165.833 144.341 164.591 143.897 163.564 143.117C163.255 142.888 162.972 142.625 162.721 142.333C162.543 142.125 162.466 141.995 162.484 141.983C162.502 141.971 162.905 142.41 163.671 142.939C164.687 143.638 165.881 144.033 167.113 144.079C168.346 144.124 169.565 143.817 170.629 143.194C171.467 142.731 171.882 142.327 171.924 142.327Z" fill="#28215D"/>
<path d="M177.409 150.49C177.3 150.254 177.215 150.007 177.154 149.754C176.988 149.22 176.786 148.567 176.56 147.736C176.05 146.032 175.373 143.675 174.53 141.092C173.687 138.51 172.927 136.17 172.357 134.484C172.096 133.689 171.87 133.018 171.692 132.484C171.594 132.245 171.524 131.996 171.484 131.741C171.613 131.966 171.72 132.203 171.805 132.448C171.995 132.905 172.256 133.576 172.565 134.413C173.188 136.081 174.002 138.403 174.821 140.997C175.64 143.592 176.317 145.954 176.768 147.676C176.994 148.537 177.172 149.238 177.279 149.724C177.352 149.974 177.395 150.231 177.409 150.49Z" fill="#28215D"/>
<path d="M173.734 127.057C173.202 127.046 172.68 126.905 172.214 126.648C171.708 126.485 171.247 126.206 170.867 125.834C171.381 125.935 171.875 126.115 172.333 126.369C172.832 126.526 173.305 126.758 173.734 127.057Z" fill="#28215D"/>
<path d="M176.655 132.139C176.69 131.542 176.829 130.955 177.065 130.406C177.207 129.823 177.448 129.268 177.777 128.767C177.735 129.364 177.595 129.95 177.362 130.501C177.221 131.083 176.982 131.637 176.655 132.139Z" fill="#28215D"/>
<path d="M166.486 135.796C166.616 135.252 166.83 134.731 167.121 134.253C167.32 133.728 167.596 133.236 167.94 132.792C167.715 133.9 167.214 134.933 166.486 135.796Z" fill="#28215D"/>
<path d="M164.645 139.014C164.116 138.738 163.653 138.349 163.291 137.874C162.854 137.466 162.513 136.965 162.294 136.408C163.149 137.217 163.943 138.088 164.669 139.014H164.645Z" fill="#28215D"/>
<path d="M171.995 138.527C171.686 139.171 171.255 139.748 170.725 140.225C170.284 140.701 169.792 141.127 169.258 141.496L168.819 141.763L169.163 141.413C169.246 141.33 169.3 141.294 169.318 141.306C169.335 141.318 169.318 141.383 169.27 141.484L169.175 141.401C169.383 141.152 169.911 140.635 170.505 140.012C170.955 139.472 171.454 138.976 171.995 138.527Z" fill="#28215D"/>
<path d="M173.592 149.125C173.004 149.025 172.445 148.794 171.959 148.448C171.419 148.189 170.945 147.809 170.576 147.338C171.119 147.559 171.635 147.842 172.114 148.181C172.644 148.432 173.141 148.749 173.592 149.125Z" fill="#28215D"/>
<path d="M166.153 146.703C165.952 147.271 165.652 147.799 165.268 148.264C164.968 148.787 164.583 149.256 164.129 149.653C164.327 149.084 164.626 148.555 165.013 148.092C165.314 147.569 165.699 147.1 166.153 146.703Z" fill="#28215D"/>
<path d="M161.273 147.183C160.81 147.013 160.387 146.748 160.032 146.406C159.397 145.913 158.928 145.456 158.981 145.391C159.035 145.325 159.575 145.67 160.222 146.162C160.869 146.655 161.309 147.112 161.273 147.183Z" fill="#28215D"/>
<path d="M158.631 139.952C158.678 140.024 158.215 140.439 157.592 140.884C156.968 141.33 156.404 141.632 156.404 141.561C156.404 141.49 156.814 141.074 157.437 140.629C157.785 140.325 158.191 140.094 158.631 139.952Z" fill="#28215D"/>
<path d="M157.622 136.289C157.556 136.343 157.129 135.891 156.666 135.286C156.203 134.68 155.888 134.14 155.953 134.099C156.019 134.057 156.452 134.502 156.909 135.108C157.366 135.713 157.693 136.242 157.622 136.289Z" fill="#28215D"/>
<path d="M168.207 126.553C168.306 126.037 168.508 125.546 168.801 125.11C169.005 124.626 169.299 124.185 169.668 123.81C169.567 124.327 169.365 124.819 169.074 125.258C168.871 125.742 168.577 126.181 168.207 126.553Z" fill="#28215D"/>
<path d="M154.98 127.17C154.433 127.009 153.919 126.754 153.46 126.416C152.95 126.161 152.49 125.817 152.1 125.401C152.65 125.554 153.166 125.81 153.62 126.155C154.131 126.408 154.592 126.752 154.98 127.17Z" fill="#28215D"/>
<path d="M148.051 125.395C148.128 125.437 147.909 125.947 147.564 126.523C147.22 127.099 146.882 127.544 146.804 127.497C146.727 127.449 146.953 126.951 147.297 126.369C147.641 125.787 147.98 125.354 148.051 125.395Z" fill="#28215D"/>
<path d="M155.259 165.481C154.25 165.068 153.33 164.463 152.551 163.7C153.074 163.865 153.562 164.127 153.988 164.472C154.467 164.731 154.897 165.073 155.259 165.481Z" fill="#28215D"/>
<path d="M175.1 163.356C175.165 163.415 174.732 163.985 174.132 164.638C173.533 165.291 173.004 165.766 172.945 165.707C172.885 165.647 173.313 165.077 173.913 164.424C174.512 163.771 175.041 163.296 175.1 163.356Z" fill="#28215D"/>
<path d="M161.617 165.582C161.593 164.791 161.593 163.999 161.617 163.207C161.694 163.207 161.908 163.712 161.908 164.395C161.954 164.812 161.851 165.233 161.617 165.582Z" fill="#28215D"/>
<path d="M168.635 165.695C168.112 165.554 167.621 165.316 167.186 164.994C166.7 164.758 166.262 164.432 165.898 164.032C166.908 164.407 167.837 164.971 168.635 165.695Z" fill="#28215D"/>
<path d="M182.236 167.725C182.118 167.738 181.998 167.738 181.88 167.725L180.859 167.642L177.119 167.31C173.96 167.037 169.596 166.645 164.764 166.567C159.931 166.49 155.544 166.597 152.379 166.716L148.627 166.876L147.606 166.918C147.488 166.934 147.368 166.934 147.25 166.918L147.6 166.864L148.621 166.769C149.5 166.692 150.782 166.603 152.368 166.508C155.538 166.33 159.919 166.176 164.77 166.271C169.62 166.366 173.984 166.775 177.142 167.102C178.716 167.274 179.992 167.422 180.871 167.535L181.886 167.672C182.004 167.675 182.122 167.693 182.236 167.725Z" fill="#28215D"/>
<g opacity="0.2">
<path d="M171.473 131.741L174.441 151.482C174.441 151.482 177.19 151.482 177.694 150.662L171.473 131.741Z" fill="black"/>
<path d="M171.473 131.741L174.441 151.482C174.441 151.482 177.19 151.482 177.694 150.662L171.473 131.741Z" fill="black"/>
</g>
<path d="M154.238 166.526C147.25 167.066 143.432 166.585 135.744 167.31C133.146 167.652 130.757 168.913 129.008 170.865C127.259 172.816 126.266 175.329 126.209 177.949L124.862 236.018H138.986L141.218 183.957L145.374 184.485C144.839 203.982 146.876 236.018 146.876 236.018L162.561 235.252L161.665 185.251C161.665 185.251 182.759 186.682 182.23 167.743C182.236 167.725 165.625 165.713 154.238 166.526Z" fill="#28215D"/>
<path d="M158.459 166.378C158.106 166.457 157.749 166.516 157.39 166.556C156.702 166.663 155.704 166.811 154.481 167.037C153.046 167.237 151.641 167.61 150.296 168.147C149.52 168.491 148.801 168.951 148.164 169.512C147.487 170.117 146.938 170.852 146.549 171.673C145.84 173.297 145.495 175.056 145.54 176.827C145.54 178.465 145.599 179.955 145.588 181.202C145.576 182.449 145.534 183.458 145.487 184.171C145.487 184.521 145.439 184.794 145.415 184.972C145.412 185.066 145.398 185.16 145.374 185.251C145.348 184.891 145.348 184.53 145.374 184.171C145.374 183.47 145.374 182.467 145.374 181.202C145.374 179.938 145.303 178.459 145.261 176.827C145.199 175.01 145.546 173.202 146.276 171.537C146.684 170.681 147.259 169.916 147.968 169.287C148.629 168.707 149.376 168.235 150.183 167.886C151.555 167.352 152.989 166.993 154.451 166.817C155.68 166.621 156.69 166.502 157.384 166.437C157.729 166.407 157.978 166.384 158.186 166.378C158.276 166.363 158.368 166.363 158.459 166.378Z" fill="#412D89"/>
<path d="M139.971 180.323C140.277 180.894 140.533 181.49 140.737 182.104C141.04 182.684 141.204 183.326 141.218 183.981C140.913 183.41 140.657 182.814 140.452 182.199C140.146 181.621 139.982 180.978 139.971 180.323Z" fill="#412D89"/>
<path d="M141.123 179.136C141.39 179.9 141.528 180.702 141.533 181.511C141.625 182.327 141.519 183.154 141.224 183.921C141.129 183.921 141.289 182.841 141.224 181.546C141.159 180.252 141.016 179.136 141.123 179.136Z" fill="#412D89"/>
<path d="M160.602 180.234C160.962 181.015 161.201 181.846 161.309 182.698C161.506 183.529 161.635 184.375 161.694 185.227C161.336 184.446 161.104 183.612 161.006 182.758C160.8 181.929 160.665 181.085 160.602 180.234Z" fill="#412D89"/>
<path d="M162.015 180.222C162.369 181.887 162.275 183.616 161.742 185.233C161.748 184.396 161.801 183.559 161.902 182.728C161.896 181.891 161.934 181.055 162.015 180.222Z" fill="#412D89"/>
<path d="M138.624 232.61C138.624 232.693 135.531 232.764 131.713 232.764C127.896 232.764 124.802 232.693 124.802 232.61C124.802 232.527 127.896 232.455 131.713 232.455C135.531 232.455 138.624 232.521 138.624 232.61Z" fill="#412D89"/>
<path d="M162.371 232.349C162.371 232.432 158.851 232.503 154.511 232.503C150.171 232.503 146.65 232.432 146.65 232.349C146.65 232.265 150.171 232.194 154.511 232.194C158.851 232.194 162.371 232.265 162.371 232.349Z" fill="#412D89"/>
<path d="M180.36 176.417H180.164H179.57H177.314L169.003 176.458H163.274C162.22 176.455 161.17 176.575 160.145 176.815C159.064 177.061 158.097 177.66 157.396 178.519C156.732 179.478 156.377 180.617 156.381 181.784C156.321 182.971 156.452 184.212 156.5 185.477C156.563 188.002 156.632 190.604 156.707 193.284C157.01 203.97 157.259 213.653 157.349 220.665C157.396 224.168 157.408 227.005 157.408 228.976C157.408 229.942 157.408 230.696 157.408 231.238C157.408 231.482 157.408 231.672 157.408 231.832C157.417 231.899 157.417 231.967 157.408 232.034C157.4 231.967 157.4 231.899 157.408 231.832C157.408 231.684 157.408 231.494 157.408 231.238C157.408 230.698 157.408 229.944 157.366 228.976C157.325 226.999 157.271 224.168 157.206 220.665C157.058 213.659 156.779 203.976 156.476 193.284C156.405 190.612 156.339 188.006 156.274 185.483C156.226 184.23 156.102 182.989 156.167 181.76C156.166 180.536 156.544 179.342 157.248 178.34C157.988 177.438 159.011 176.81 160.151 176.559C161.2 176.318 162.274 176.198 163.351 176.203H169.08L177.392 176.263L179.648 176.298H180.241C180.285 176.334 180.325 176.373 180.36 176.417Z" fill="#412D89"/>
<path opacity="0.2" d="M143.705 184.254C143.705 184.254 143.159 177.218 145.801 173.175L145.38 184.456L143.705 184.254Z" fill="black"/>
<path d="M144.845 177.563C144.794 177.571 144.742 177.571 144.691 177.563L144.228 177.48C143.818 177.402 143.225 177.284 142.447 177.195C141.511 177.079 140.561 177.136 139.645 177.361C139.078 177.511 138.543 177.762 138.066 178.103C137.543 178.492 137.125 179.004 136.848 179.593C136.255 180.84 136.184 182.401 136.148 184.04C136.112 185.679 136.065 187.448 136.017 189.3C135.916 193.005 135.809 197.077 135.697 201.352C135.447 209.889 135.216 217.619 135.05 223.247C134.955 226.026 134.871 228.288 134.818 229.879C134.782 230.645 134.759 231.25 134.741 231.66C134.741 231.85 134.741 232.004 134.711 232.129C134.719 232.182 134.719 232.236 134.711 232.289C134.702 232.236 134.702 232.182 134.711 232.129C134.711 232.004 134.711 231.85 134.711 231.66C134.711 231.221 134.711 230.615 134.711 229.879C134.741 228.282 134.788 226.026 134.842 223.241C134.984 217.613 135.186 209.883 135.4 201.34C135.524 197.066 135.637 192.999 135.744 189.294C135.798 187.442 135.851 185.678 135.904 184.034C135.958 182.389 136.017 180.798 136.664 179.498C136.963 178.88 137.409 178.346 137.965 177.943C138.462 177.594 139.019 177.34 139.609 177.195C140.549 176.974 141.522 176.934 142.477 177.076C143.254 177.183 143.848 177.325 144.258 177.414L144.715 177.533C144.798 177.539 144.851 177.557 144.845 177.563Z" fill="#412D89"/>
<path d="M143.753 132.781C143.753 132.781 128.845 147.736 126.001 151.078C123.573 153.934 125.158 159.319 127.189 159.55C129.219 159.782 162.086 159.336 162.086 159.336L161.653 152.616C161.653 152.616 140.363 152.711 139.74 152.319C139.116 151.927 152.053 138.848 152.053 138.848L143.753 132.781Z" fill="white"/>
<path d="M183.174 134.734C183.174 134.734 187.704 148.466 188.25 150.087C188.796 151.707 191.611 158.576 186.267 159.152C180.924 159.728 152.249 159.152 152.249 159.152L150.117 152.212C150.117 152.212 177.831 152.141 177.694 150.663C177.558 149.184 173.485 136.782 173.485 136.782L183.174 134.734Z" fill="white"/>
<path d="M122.659 130.453L132.959 158.986L180.378 158.968L180.051 157.573L162.258 156.92L153.501 130.014L122.659 130.453Z" fill="#28215D"/>
<path d="M143.795 143.443C143.801 143.765 143.715 144.081 143.548 144.355C143.38 144.629 143.137 144.849 142.848 144.989C142.559 145.129 142.235 145.184 141.916 145.146C141.597 145.108 141.296 144.979 141.048 144.775C140.8 144.571 140.615 144.3 140.516 143.994C140.417 143.689 140.408 143.361 140.49 143.05C140.572 142.739 140.741 142.459 140.977 142.241C141.213 142.023 141.507 141.878 141.824 141.823C142.299 141.779 142.773 141.925 143.142 142.229C143.51 142.532 143.745 142.968 143.795 143.443Z" fill="black"/>
<path d="M204.903 158.363H92.8855H91.6684H90.4573V240.286H92.8855V163.189H204.903V240.346H233.537V163.189V158.363H204.903Z" fill="#412D89"/>
<path d="M67.0776 237.086V230.953L56.0943 230.882L55.9993 240.055L56.682 240.102C59.7158 240.298 72.118 240.696 74.1366 240.049C76.4104 239.348 67.0776 237.086 67.0776 237.086Z" fill="#E5E5E5"/>
<path d="M74.398 239.491C74.398 239.592 70.2896 239.675 65.2195 239.675C60.1494 239.675 56.041 239.592 56.041 239.491C56.041 239.39 60.1494 239.301 65.2195 239.301C70.2896 239.301 74.398 239.384 74.398 239.491Z" fill="#28215D"/>
<path d="M67.2735 238.338C67.1846 238.291 67.2735 237.964 67.493 237.65C67.7125 237.336 68.0209 237.158 68.0862 237.229C68.1514 237.3 68.0091 237.573 67.7896 237.869C67.5701 238.166 67.3625 238.386 67.2735 238.338Z" fill="#28215D"/>
<path d="M67.9739 238.743C67.8789 238.707 67.9264 238.345 68.1461 237.965C68.3658 237.585 68.6448 237.371 68.7398 237.413C68.8348 237.454 68.6864 237.787 68.4845 238.143C68.2827 238.499 68.0986 238.778 67.9739 238.743Z" fill="#28215D"/>
<path d="M59.3479 239.449C59.3064 239.479 59.1401 239.318 58.9027 239.045C58.6142 238.694 58.2921 238.372 57.9409 238.084C57.5975 237.809 57.1881 237.629 56.7535 237.561C56.4151 237.514 56.2014 237.561 56.1598 237.514C56.1182 237.466 56.3438 237.324 56.7535 237.3C57.2656 237.289 57.7648 237.462 58.1605 237.787C58.5421 238.094 58.864 238.468 59.1104 238.891C59.3064 239.206 59.3895 239.419 59.3479 239.449Z" fill="#28215D"/>
<path d="M67.3023 237.187C67.3617 237.276 67.1718 237.484 66.8575 237.602C66.5431 237.721 66.2643 237.674 66.2643 237.573C66.2643 237.472 66.4719 237.353 66.7448 237.252C67.0176 237.152 67.249 237.098 67.3023 237.187Z" fill="#28215D"/>
<path d="M67.1311 236.594C67.1311 236.694 66.8521 236.784 66.4781 236.789C66.104 236.795 65.8131 236.712 65.8191 236.611C65.825 236.51 66.1218 236.421 66.4781 236.415C66.8343 236.41 67.1252 236.493 67.1311 236.594Z" fill="#28215D"/>
<path d="M98.9706 54.1817L99.0715 52.3234C99.2524 51.2948 99.33 50.2506 99.3031 49.2065C99.3016 48.6878 99.2092 48.1734 99.03 47.6867C98.8335 47.0698 98.5539 46.4826 98.1988 45.9412C98.1101 45.8519 98.052 45.7366 98.0331 45.6121C98.0142 45.4877 98.0353 45.3604 98.0935 45.2487C98.1516 45.137 98.2438 45.0467 98.3566 44.9908C98.4695 44.935 98.5972 44.9164 98.7212 44.9379C99.2437 45.0744 100.312 46.3152 100.799 48.1676C101.286 50.0199 102.533 47.277 103.002 46.2856C103.471 45.2941 105.086 42.2959 105.501 42.201C106.095 42.0585 106.386 42.6937 105.887 43.6733C105.388 44.6529 104.106 47.6926 104.652 47.9182C105.04 47.8153 105.445 47.7971 105.84 47.8648C105.902 47.8785 105.958 47.9109 106.002 47.9575C106.045 48.0042 106.074 48.0629 106.083 48.126C106.106 48.4168 106.164 48.7038 106.255 48.9809C106.255 48.9809 106.991 48.7434 107.175 49.0581C107.312 49.385 107.394 49.7319 107.419 50.0852C107.419 50.0852 107.977 49.8418 108.274 50.0318C108.909 50.4473 108.22 51.3201 108.22 51.3201C106.706 53.4994 105.055 55.5796 103.275 57.5479L98.9587 54.0748" fill="white"/>
<path d="M46.1616 54.0569L46.0903 77.7393L56.2247 78.2083L56.5156 72.4495C56.5156 72.4495 60.1252 73.1679 61.0573 69.8135C61.651 67.6762 61.5026 51.13 61.5026 51.13L46.1616 54.0569Z" fill="white"/>
<path d="M60.9744 47.4729C57.8812 48.4703 57.1391 48.8087 55.7499 48.9155C54.3606 49.0224 44.9566 49.0343 44.0957 54.3359C43.9798 54.0867 43.8903 53.826 43.8286 53.5582C43.7591 53.0385 43.7215 52.5151 43.7158 51.9908C43.5667 52.2337 43.4729 52.5064 43.4411 52.7896C43.4093 53.0728 43.4402 53.3596 43.5317 53.6294C43.5555 53.745 43.5893 53.8582 43.6326 53.9678C43.5673 53.9085 43.508 53.8432 43.4367 53.7838C43.0954 53.4818 42.6891 53.2624 42.2493 53.1426C41.9109 53.0595 41.6913 53.0773 41.6556 53.1426C42.2085 53.3811 42.7324 53.6818 43.217 54.0391C43.5318 54.3123 43.8022 54.6328 44.0185 54.989C44.0185 54.989 44.0185 55.0365 44.0185 55.0602C44.0185 55.084 41.994 54.1697 42.5284 57.8387C43.0627 61.5077 45.4553 64.6246 45.7521 70.6328C45.7521 70.6328 54.141 71.6302 55.6371 68.4064L56.8898 64.7077C56.8898 64.7077 54.8712 64.3753 55.1087 62.7545C55.4352 60.5044 57.151 60.451 58.4334 61.4484L59.9057 57.5063C59.9057 57.5063 63.6341 55.0602 63.8478 53.4988C64.0616 51.9374 64.0378 46.4695 60.9744 47.4729Z" fill="#28215D"/>
<path d="M18.0564 232.503L16.5721 239.129L26.8252 240.399L27.1933 233.833L18.0564 232.503Z" fill="#E5E5E5"/>
<path d="M22.6872 232.83C22.6814 233.852 22.5699 234.87 22.3548 235.869C22.2386 236.878 22.0218 237.872 21.7076 238.838C21.8317 236.799 22.1599 234.779 22.6872 232.806V232.83Z" fill="#28215D"/>
<path d="M26.8669 239.693C26.3676 239.676 25.8708 239.615 25.3827 239.509L21.8205 238.915C20.4253 238.683 19.1726 238.452 18.2583 238.25C17.7648 238.168 17.2813 238.035 16.8157 237.852C17.3155 237.861 17.813 237.923 18.2999 238.036L21.8621 238.63C23.2513 238.861 24.5099 239.093 25.4242 239.295C25.919 239.371 26.4031 239.504 26.8669 239.693Z" fill="#28215D"/>
<path d="M33.2666 128.363L14.2684 235.038L30.5237 235.958C30.5237 235.958 47.7883 144.007 50.3234 143.782C51.3861 143.681 51.8135 235.21 52.6625 235.038C53.5115 234.866 70.2299 235.335 70.2299 235.335C70.2299 235.335 67.9679 127.01 68.0094 127.01L33.2666 128.363Z" fill="#28215D"/>
<path d="M57.2814 141.537C57.2814 141.621 54.4792 142.291 50.9883 143.034C47.4974 143.776 44.6477 144.31 44.6298 144.221C44.612 144.132 47.4321 143.467 50.923 142.725C54.4139 141.983 57.2636 141.454 57.2814 141.537Z" fill="#412D89"/>
<path d="M31.7289 229.695C31.7289 229.784 28.054 229.736 23.5241 229.6C18.9942 229.463 15.3252 229.273 15.3252 229.19C15.3252 229.107 19.0001 229.149 23.53 229.285C28.0599 229.422 31.7289 229.6 31.7289 229.695Z" fill="#412D89"/>
<path d="M70.1232 229.707C70.1232 229.79 66.1514 229.742 61.2653 229.594C56.3792 229.446 52.4133 229.261 52.4133 229.178C52.4133 229.095 56.3792 229.143 61.2712 229.285C66.1632 229.428 70.1232 229.6 70.1232 229.707Z" fill="#412D89"/>
<path d="M41.3827 144.494C41.4658 144.494 37.4465 163.54 32.4001 186.991C27.3538 210.441 23.1979 229.445 23.1148 229.428C23.0317 229.41 27.051 210.388 32.0974 186.925C37.1437 163.462 41.2936 144.476 41.3827 144.494Z" fill="#412D89"/>
<path d="M61.3363 229.44C61.3295 229.367 61.3295 229.293 61.3363 229.22C61.3363 229.06 61.3363 228.846 61.3007 228.573C61.3007 227.979 61.2413 227.154 61.1938 226.085C61.1047 223.93 61.0038 220.801 60.891 216.936C60.6654 209.218 60.4398 198.532 60.3864 186.741C60.3329 174.951 60.4457 164.27 60.6001 156.54C60.6713 152.675 60.7485 149.552 60.8198 147.391C60.8554 146.323 60.8791 145.492 60.9029 144.904C60.9029 144.631 60.9029 144.417 60.9029 144.257C60.8949 144.184 60.8949 144.11 60.9029 144.037C60.9122 144.11 60.9122 144.184 60.9029 144.257V144.904C60.9029 145.497 60.9029 146.323 60.9029 147.391C60.8732 149.57 60.8316 152.693 60.7782 156.546C60.6832 164.264 60.6001 174.951 60.6595 186.741C60.7188 198.532 60.9029 209.207 61.0691 216.936C61.1582 220.784 61.2294 223.906 61.2829 226.085C61.2829 227.148 61.3185 227.985 61.3304 228.573C61.3304 228.846 61.3304 229.06 61.3304 229.22C61.3416 229.293 61.3436 229.366 61.3363 229.44Z" fill="#412D89"/>
<path d="M97.2669 53.6472C97.2669 53.6472 84.6807 72.6454 83.612 73.6962C82.5434 74.747 62.8328 76.8368 62.8328 76.8368C56.7771 75.4713 37.2091 75.9225 33.5163 78.6179C30.3163 80.399 26.4335 84.5548 24.4328 94.3686C21.0191 111.158 17.6053 117.344 24.4328 119.69C27.1624 120.62 29.9758 121.284 32.8335 121.672L32.6436 129.272L68.0276 127.069L66.2465 108.202C66.0328 102.9 65.9319 97.3786 65.8013 92.4866C68.0157 91.6495 88.5931 83.8602 90.0061 83.6583C91.4191 83.4565 104.973 58.5274 104.973 58.5274C105.377 55.5648 97.2669 53.6472 97.2669 53.6472Z" fill="#E5E5E5"/>
<path d="M33.8068 88.0043C33.8899 88.0043 33.6999 97.254 33.3853 108.653C33.0706 120.052 32.7381 129.296 32.6491 129.296C32.56 129.296 32.756 120.046 33.0766 108.647C33.3971 97.2481 33.7237 88.0043 33.8068 88.0043Z" fill="#28215D"/>
<path d="M85.3869 77.9709C84.9149 77.3472 84.5644 76.6403 84.3539 75.887C84.0507 75.1775 83.8046 74.4449 83.6177 73.6963C84.0864 74.3211 84.4347 75.0278 84.6448 75.7802C84.9439 76.4918 85.1919 77.2239 85.3869 77.9709Z" fill="#28215D"/>
<path d="M86.7999 76.356C86.1994 76.0178 85.6345 75.62 85.1138 75.1686C84.5225 74.7915 84.0136 74.2988 83.6177 73.72C84.2161 74.0614 84.7807 74.459 85.3038 74.9074C85.8917 75.2886 86.3998 75.7806 86.7999 76.356Z" fill="#28215D"/>
<path d="M104.267 60.0414C103.848 59.8411 103.451 59.6006 103.079 59.323C102.355 58.8659 101.351 58.2484 100.2 57.631C99.048 57.0136 97.9793 56.5208 97.1956 56.1765C96.7579 56.0198 96.3364 55.8209 95.937 55.5828C96.3984 55.6588 96.8489 55.7904 97.2788 55.9746C99.3912 56.7623 101.388 57.8306 103.216 59.1508C103.602 59.4025 103.955 59.7017 104.267 60.0414Z" fill="#28215D"/>
<path d="M33.3856 108.742C32.6483 108.786 31.9087 108.712 31.1949 108.522C30.4599 108.421 29.7508 108.181 29.1051 107.816C29.8341 107.886 30.5553 108.021 31.2602 108.22C31.9863 108.312 32.6994 108.487 33.3856 108.742Z" fill="#28215D"/>
<path d="M66.0682 76.5698C65.4265 76.6798 64.7921 76.8285 64.1684 77.0151C62.6794 77.5026 61.3853 78.4534 60.4752 79.7288C59.5652 81.0042 59.0868 82.5372 59.1101 84.1038C59.1413 84.7539 59.2067 85.4019 59.3061 86.0451C59.2138 85.8914 59.1495 85.7226 59.1161 85.5464C58.9859 85.0778 58.9102 84.5957 58.8905 84.1097C58.8092 82.4832 59.2798 80.8769 60.226 79.5514C61.1722 78.2259 62.5384 77.2589 64.1031 76.8073C64.5687 76.6668 65.0487 76.5791 65.5339 76.5461C65.7119 76.5209 65.8931 76.5289 66.0682 76.5698Z" fill="#28215D"/>
<path d="M68.0332 127.093C68.0332 127.182 60.1193 127.74 50.3531 128.346C40.5868 128.951 32.6551 129.379 32.6492 129.296C32.6432 129.213 40.5631 128.649 50.3353 128.037C60.1074 127.426 68.0273 127.01 68.0332 127.093Z" fill="#28215D"/>
<path d="M53.9391 76.1958C53.9901 76.3381 54.026 76.4853 54.046 76.6351C54.046 76.7836 54.1172 76.9617 54.141 77.1754C54.1647 77.3891 54.1825 77.6444 54.2122 77.9234C54.2828 79.5268 54.022 81.1274 53.4464 82.6255C52.6041 84.873 51.0564 86.7872 49.0352 88.0815C48.7463 88.2648 48.4447 88.4275 48.1328 88.5683C47.8205 88.7202 47.4994 88.853 47.171 88.9661C46.512 89.2036 45.8293 89.4055 45.1525 89.6489C44.4652 89.8742 43.8075 90.1812 43.1933 90.5631C42.5796 90.9786 42.0364 91.4897 41.5844 92.0771C40.7379 93.2992 39.9571 94.5656 39.2453 95.8708C38.5621 97.1188 37.5604 98.1636 36.3421 98.8986C35.1891 99.4813 33.8923 99.7184 32.6078 99.5813C31.4996 99.48 30.4202 99.1719 29.4256 98.673C27.9961 97.95 26.6978 96.9928 25.5844 95.8411C25.1866 95.4433 24.8898 95.1227 24.6939 94.909C24.583 94.8045 24.4853 94.6868 24.403 94.5587C24.5197 94.6529 24.6308 94.754 24.7354 94.8615L25.6675 95.758C26.7978 96.8613 28.0939 97.7808 29.5087 98.483C30.4858 98.9518 31.5399 99.2395 32.6196 99.332C33.8484 99.4458 35.0841 99.2069 36.1818 98.6433C37.3541 97.9305 38.3153 96.9182 38.9662 95.7105C39.6855 94.3925 40.4784 93.116 41.341 91.8871C41.8145 91.2735 42.3839 90.7403 43.0271 90.3079C43.6609 89.9103 44.3407 89.5913 45.0516 89.358L47.0701 88.6871C47.3924 88.578 47.7077 88.4491 48.0141 88.3012C48.317 88.1707 48.6089 88.0158 48.8868 87.8381C50.8732 86.5867 52.405 84.7303 53.2564 82.5424C53.8433 81.0765 54.1319 79.5082 54.1054 77.9294C54.1054 77.6503 54.1054 77.4069 54.0697 77.1873C54.0341 76.9676 54.0163 76.7895 53.9985 76.647C53.9654 76.4986 53.9456 76.3477 53.9391 76.1958Z" fill="#28215D"/>
<path d="M67.3388 119.85C67.3388 119.85 67.2023 119.755 66.941 119.595C66.568 119.354 66.1532 119.184 65.718 119.096C65.0179 118.991 64.3121 118.927 63.6045 118.906C62.7792 118.841 61.8234 118.835 60.7844 118.793C59.6335 118.774 58.4891 118.614 57.3767 118.318C56.0995 117.955 54.8945 117.375 53.8145 116.602C52.613 115.746 51.6173 114.632 50.8995 113.343C50.1319 111.956 49.7237 110.399 49.7121 108.813C49.6892 107.274 50.0989 105.76 50.8945 104.443C51.6901 103.126 52.8397 102.058 54.2123 101.362C54.8295 101.054 55.487 100.834 56.1655 100.709C56.7992 100.603 57.4407 100.552 58.0832 100.555C59.2181 100.59 60.3541 100.556 61.485 100.454C62.3001 100.402 63.0896 100.148 63.7827 99.7164C64.4759 99.2844 65.0511 98.6872 65.4568 97.9783C65.6557 97.5807 65.7804 97.1501 65.8249 96.7078C65.8605 96.405 65.8605 96.2388 65.8724 96.2388C65.8796 96.278 65.8796 96.3183 65.8724 96.3575C65.8724 96.4406 65.8724 96.5594 65.8724 96.7137C65.8479 97.1698 65.7371 97.617 65.5459 98.0317C65.2335 98.6881 64.7545 99.251 64.1566 99.6644C63.3701 100.216 62.4575 100.561 61.5028 100.668C60.3631 100.787 59.217 100.835 58.0713 100.81C57.4424 100.813 56.8148 100.869 56.1952 100.976C55.5451 101.102 54.9156 101.318 54.3251 101.618C53.0053 102.292 51.9006 103.322 51.1358 104.592C50.3709 105.861 49.9765 107.319 49.9971 108.801C50.0116 110.337 50.4074 111.844 51.1488 113.189C51.842 114.44 52.8029 115.522 53.9629 116.359C55.0129 117.119 56.1856 117.694 57.4301 118.057C58.5216 118.36 59.646 118.53 60.7785 118.562C61.8234 118.615 62.7733 118.639 63.6045 118.722C64.3177 118.754 65.0279 118.835 65.7299 118.965C66.1749 119.08 66.5927 119.281 66.9588 119.559C67.0557 119.627 67.1489 119.701 67.2379 119.779C67.2754 119.796 67.3096 119.82 67.3388 119.85Z" fill="#28215D"/>
<path d="M47.6756 128.542C47.6917 128.117 47.6678 127.691 47.6044 127.271C47.384 126.131 46.7281 125.122 45.7758 124.457C45.4623 124.249 45.123 124.084 44.7665 123.964C44.3779 123.855 43.9807 123.78 43.5791 123.739C42.6419 123.717 41.71 123.592 40.8006 123.365C40.3012 123.198 39.8449 122.922 39.4648 122.557C39.0813 122.172 38.775 121.716 38.5624 121.215C38.1327 120.165 37.9993 119.017 38.1765 117.897C38.509 115.611 39.5123 113.646 39.6845 111.71C39.8058 110.807 39.7226 109.888 39.4411 109.021C39.1838 108.275 38.7029 107.626 38.0637 107.163C37.1266 106.477 35.962 106.177 34.8103 106.326C34.3933 106.404 33.9841 106.52 33.5873 106.67C33.9456 106.433 34.3504 106.275 34.7747 106.207C35.9669 106.005 37.1903 106.285 38.1765 106.985C38.8627 107.467 39.3832 108.149 39.6667 108.938C39.9734 109.838 40.0709 110.797 39.9517 111.74C39.7795 113.741 38.7643 115.73 38.4674 117.938C38.2969 119.004 38.4201 120.096 38.8236 121.097C39.0222 121.561 39.3039 121.986 39.6548 122.349C40.0004 122.684 40.4162 122.938 40.8719 123.092C41.7617 123.319 42.6733 123.45 43.591 123.483C44.0179 123.527 44.4394 123.613 44.8496 123.739C45.6082 124.001 46.2794 124.468 46.7887 125.088C47.298 125.709 47.6255 126.458 47.735 127.253C47.7784 127.572 47.7784 127.896 47.735 128.215C47.7254 128.326 47.7055 128.435 47.6756 128.542Z" fill="#28215D"/>
<path d="M46.4883 95.6925C46.4883 95.6925 46.6129 95.5619 46.9098 95.4728C47.3355 95.362 47.7858 95.3933 48.1922 95.5619C48.4768 95.679 48.7323 95.8574 48.9402 96.0844C49.1748 96.3555 49.3235 96.6903 49.3677 97.0461C49.4214 97.4553 49.3525 97.8711 49.1697 98.2411C48.9868 98.611 48.6983 98.9183 48.3406 99.1241C47.9679 99.3011 47.5505 99.3618 47.1428 99.2983C46.7351 99.2347 46.356 99.0499 46.0549 98.7678C45.7915 98.5211 45.6093 98.2002 45.5324 97.8476C45.4734 97.5439 45.4877 97.2305 45.574 96.9333C45.6916 96.5074 45.954 96.1358 46.3161 95.8825C46.4384 95.7793 46.59 95.717 46.7495 95.7044C46.7495 95.7044 46.607 95.7934 46.3873 95.9775C46.089 96.2438 45.8815 96.5967 45.7936 96.9868C45.7173 97.2662 45.7202 97.5613 45.802 97.8391C45.8838 98.1169 46.0412 98.3666 46.2567 98.56C46.5168 98.7946 46.8402 98.9473 47.1865 98.999C47.5329 99.0508 47.8868 98.9993 48.204 98.851C48.5092 98.6724 48.7559 98.409 48.914 98.0928C49.0721 97.7765 49.1349 97.4211 49.0946 97.0699C49.0605 96.783 48.9515 96.5101 48.7785 96.2787C48.6055 96.0474 48.3746 95.8656 48.109 95.7519C47.74 95.5751 47.3257 95.515 46.9217 95.5797C46.6486 95.6391 46.5001 95.7163 46.4883 95.6925Z" fill="#28215D"/>
<path d="M28.6895 121.002C28.6242 121.002 28.9033 119.957 28.9686 118.259C28.992 117.798 28.992 117.336 28.9686 116.876C28.9686 116.377 28.8736 115.848 28.8083 115.29C28.6113 114.09 28.2951 112.913 27.8643 111.776C27.4147 110.648 26.8497 109.569 26.1782 108.558C25.8775 108.122 25.5545 107.702 25.2105 107.299C24.9189 106.938 24.6078 106.593 24.2784 106.266C23.091 105.079 22.1767 104.485 22.2183 104.444C22.444 104.548 22.6571 104.677 22.8535 104.829C23.0998 104.987 23.3357 105.159 23.56 105.346C23.8651 105.585 24.1564 105.84 24.4327 106.112C24.7776 106.432 25.1028 106.773 25.4064 107.133C25.7603 107.541 26.0932 107.967 26.4038 108.409C27.0978 109.433 27.681 110.528 28.1433 111.675C28.5805 112.825 28.8929 114.02 29.0754 115.237C29.1509 115.772 29.1965 116.311 29.212 116.852C29.2423 117.32 29.2423 117.79 29.212 118.259C29.1903 118.645 29.1487 119.029 29.0873 119.411C29.0512 119.701 28.9957 119.989 28.9211 120.271C28.8744 120.524 28.7967 120.769 28.6895 121.002Z" fill="#28215D"/>
<path d="M90.291 83.421C89.9868 83.3124 89.6912 83.1814 89.4064 83.0291C88.8424 82.7679 88.029 82.3939 86.9841 82.0139C85.7712 81.5645 84.5131 81.248 83.232 81.07C81.6682 80.8457 80.0759 80.9243 78.5418 81.3015C76.9946 81.6615 75.5645 82.4093 74.386 83.4744C73.4346 84.3428 72.7074 85.4285 72.2665 86.6388C71.9767 87.457 71.8555 88.3254 71.9103 89.1917C71.9578 89.7854 72.0528 90.1416 72.0231 90.1475C71.9934 90.1535 71.9815 90.0703 71.934 89.91C71.8707 89.678 71.8231 89.442 71.7915 89.2035C71.6868 88.3155 71.7801 87.4153 72.0646 86.5675C72.4854 85.3051 73.2186 84.1696 74.196 83.2666C75.3911 82.1597 76.8509 81.3787 78.435 80.9987C80.0088 80.6158 81.6422 80.5432 83.2439 80.785C84.5414 80.9823 85.8122 81.3269 87.0316 81.8121C87.8452 82.1331 88.6383 82.5038 89.4064 82.9223C89.6795 83.0707 89.8932 83.1894 90.0298 83.2785C90.125 83.3091 90.2136 83.3575 90.291 83.421Z" fill="#28215D"/>
<path d="M95.1533 56.8354C95.1533 56.8354 95.2126 56.877 95.3136 56.9779C95.462 57.1171 95.599 57.268 95.7232 57.4291C96.1928 58.0185 96.5638 58.6802 96.8215 59.3883C97.2098 60.443 97.3697 61.5681 97.2906 62.6893C97.1991 64.0666 96.7555 65.3974 96.0022 66.5542C95.2302 67.7036 94.1669 68.6276 92.921 69.2317C91.9179 69.7332 90.8228 70.0241 89.7032 70.0867C88.9508 70.1349 88.1956 70.0648 87.4649 69.8789C87.2629 69.8319 87.0645 69.7704 86.8713 69.6948C86.7406 69.6473 86.6753 69.6176 86.6813 69.6058C87.6529 69.8363 88.6528 69.9243 89.6497 69.867C90.7351 69.7768 91.7921 69.4742 92.7607 68.9765C93.9574 68.3849 94.9802 67.493 95.7291 66.388C96.3867 65.371 96.8062 64.2187 96.9563 63.017C97.1064 61.8152 96.9832 60.5952 96.5959 59.4477C96.2493 58.5093 95.763 57.6286 95.1533 56.8354Z" fill="#28215D"/>
<path d="M56.391 76.1127C54.6768 76.2824 52.9539 76.3478 51.2318 76.3086C49.5114 76.373 47.7886 76.3353 46.0726 76.1958C47.7868 76.0261 49.5097 75.9606 51.2318 75.9999C52.9523 75.9354 54.675 75.9731 56.391 76.1127Z" fill="#28215D"/>
</svg>
