<svg width="247" height="241" viewBox="0 0 247 241" fill="none" xmlns="http://www.w3.org/2000/svg">
<path d="M79.5992 0.5H77.344V10.5981H79.5992V0.5Z" fill="#F5F5F5"/>
<path d="M73.4227 4.4214V6.67664L83.5208 6.67664V4.4214H73.4227Z" fill="#F5F5F5"/>
<path d="M134.691 50.2424H131.236V65.7266H134.691V50.2424Z" fill="#F5F5F5"/>
<path d="M125.219 56.26V59.7145H140.703V56.26H125.219Z" fill="#F5F5F5"/>
<path d="M176.113 5.16431H173.857V15.2624H176.113V5.16431Z" fill="#F5F5F5"/>
<path d="M169.931 9.08046V11.3357H180.029V9.08046H169.931Z" fill="#F5F5F5"/>
<path d="M227.781 23.827H224.327V39.3112H227.781V23.827Z" fill="#F5F5F5"/>
<path d="M218.31 29.8392V33.2937H233.794V29.8392H218.31Z" fill="#F5F5F5"/>
<path d="M245.139 99.1254H174.982V228.905H245.139V99.1254Z" fill="white"/>
<path d="M237.099 224.596H240.586V150.916H237.099V224.596Z" fill="#F5F5F5"/>
<path d="M230.848 224.596H234.335V150.916H230.848V224.596Z" fill="#F5F5F5"/>
<path d="M224.592 224.596H228.079V150.916H224.592V224.596Z" fill="#F5F5F5"/>
<path d="M218.331 224.596H221.817V150.916H218.331V224.596Z" fill="#F5F5F5"/>
<path d="M212.382 224.596H215.868V150.916H212.382V224.596Z" fill="#F5F5F5"/>
<path d="M206.259 224.596H209.745V150.916H206.259V224.596Z" fill="#F5F5F5"/>
<path d="M200.008 224.596H203.494V150.916H200.008V224.596Z" fill="#F5F5F5"/>
<path d="M193.364 224.596H196.85V150.916H193.364V224.596Z" fill="#F5F5F5"/>
<path d="M187.108 224.596H190.594V150.916H187.108V224.596Z" fill="#F5F5F5"/>
<path d="M181.016 224.596H184.502V150.916H181.016V224.596Z" fill="#F5F5F5"/>
<path d="M236.882 146.49H240.368V107.653H236.882V146.49Z" fill="#F5F5F5"/>
<path d="M230.626 146.49H234.112V107.653H230.626V146.49Z" fill="#F5F5F5"/>
<path d="M224.369 146.49H227.856V107.653H224.369V146.49Z" fill="#F5F5F5"/>
<path d="M218.118 146.49H221.605V107.653H218.118V146.49Z" fill="#F5F5F5"/>
<path d="M212.17 146.49H215.656V107.653H212.17V146.49Z" fill="#F5F5F5"/>
<path d="M206.041 146.49H209.527V107.653H206.041V146.49Z" fill="#F5F5F5"/>
<path d="M199.785 146.49H203.271V107.653H199.785V146.49Z" fill="#F5F5F5"/>
<path d="M192.78 146.49H196.267V107.653H192.78V146.49Z" fill="#F5F5F5"/>
<path d="M186.524 146.49H190.01V107.653H186.524V146.49Z" fill="#F5F5F5"/>
<path d="M180.591 146.49H184.078V107.653H180.591V146.49Z" fill="#F5F5F5"/>
<path d="M173.136 134.896H123.537V228.905H173.136V134.896Z" fill="white"/>
<path d="M165.096 224.596H168.583V150.916H165.096V224.596Z" fill="#F5F5F5"/>
<path d="M158.835 224.596H162.321V150.916H158.835V224.596Z" fill="#F5F5F5"/>
<path d="M152.584 224.596H156.07V150.916H152.584V224.596Z" fill="#F5F5F5"/>
<path d="M146.328 224.596H149.814V150.916H146.328V224.596Z" fill="#F5F5F5"/>
<path d="M140.379 224.596H143.865V150.916H140.379V224.596Z" fill="#F5F5F5"/>
<path d="M134.255 224.596H137.742V150.916H134.255V224.596Z" fill="#F5F5F5"/>
<path d="M127.994 224.596H131.48V150.916H127.994L127.994 224.596Z" fill="#F5F5F5"/>
<path d="M164.879 146.49H168.365V139.523H164.879V146.49Z" fill="#F5F5F5"/>
<path d="M158.623 146.49H162.109V139.523H158.623V146.49Z" fill="#F5F5F5"/>
<path d="M152.361 146.49H155.847V139.523H152.361V146.49Z" fill="#F5F5F5"/>
<path d="M146.105 146.49H149.591V139.523H146.105V146.49Z" fill="#F5F5F5"/>
<path d="M140.162 146.49H143.648V139.523H140.162V146.49Z" fill="#F5F5F5"/>
<path d="M134.038 146.49H137.524V139.523H134.038V146.49Z" fill="#F5F5F5"/>
<path d="M127.782 146.49H131.268V139.523H127.782V146.49Z" fill="#F5F5F5"/>
<path d="M175.11 229.52C175.036 229.52 174.972 200.388 174.972 164.463C174.972 128.539 175.036 99.396 175.11 99.396C175.184 99.396 175.248 128.523 175.248 164.463C175.248 200.404 175.189 229.52 175.11 229.52Z" fill="#F5F5F5"/>
<path d="M238.628 57.9846H185.399V99.396H238.628V57.9846Z" fill="white"/>
<path d="M198.331 93.527H201.817V66.7613H198.331V93.527Z" fill="#F5F5F5"/>
<path d="M192.08 93.527H195.566V66.7613H192.08V93.527Z" fill="#F5F5F5"/>
<path d="M211.321 93.527H214.807V66.7613H211.321V93.527Z" fill="#F5F5F5"/>
<path d="M205.065 93.527H208.551V66.7613H205.065V93.527Z" fill="#F5F5F5"/>
<path d="M224.305 93.527H227.792V66.7613H224.305V93.527Z" fill="#F5F5F5"/>
<path d="M218.049 93.527H221.536V66.7613H218.049V93.527Z" fill="#F5F5F5"/>
<path d="M231.045 93.527H234.531V66.7613H231.045V93.527Z" fill="#F5F5F5"/>
<path d="M104.789 144.601H55.1898V229.212H104.789V144.601Z" fill="white"/>
<path d="M63.2287 167.462H59.7424V225.806H63.2287V167.462Z" fill="#F5F5F5"/>
<path d="M69.4852 167.462H65.9988V225.806H69.4852V167.462Z" fill="#F5F5F5"/>
<path d="M75.7417 167.462H72.2553V225.806H75.7417V167.462Z" fill="#F5F5F5"/>
<path d="M81.9979 167.462H78.5116V225.806H81.9979V167.462Z" fill="#F5F5F5"/>
<path d="M87.9464 167.462H84.46V225.806H87.9464V167.462Z" fill="#F5F5F5"/>
<path d="M94.07 167.462H90.5836V225.806H94.07V167.462Z" fill="#F5F5F5"/>
<path d="M100.326 167.462H96.8399V225.806H100.326V167.462Z" fill="#F5F5F5"/>
<path d="M63.4465 149.881H59.9602V163.954H63.4465V149.881Z" fill="#F5F5F5"/>
<path d="M69.7027 149.881H66.2164V163.954H69.7027V149.881Z" fill="#F5F5F5"/>
<path d="M75.9592 149.881H72.4729V163.954H75.9592V149.881Z" fill="#F5F5F5"/>
<path d="M82.2155 149.881H78.7292V163.954H82.2155V149.881Z" fill="#F5F5F5"/>
<path d="M88.1639 149.881H84.6776V163.954H88.1639V149.881Z" fill="#F5F5F5"/>
<path d="M94.2875 149.881H90.8012V163.954H94.2875V149.881Z" fill="#F5F5F5"/>
<path d="M100.544 149.881H97.0575V163.954H100.544V149.881Z" fill="#F5F5F5"/>
<path d="M57.8272 67.7961H4.92737V229.212H57.8272V67.7961Z" fill="white"/>
<path d="M38.586 19.7517H25.5906V22.1821H38.586V19.7517Z" fill="white"/>
<path d="M33.0458 0.5H30.9763V20.4628H33.0458V0.5Z" fill="white"/>
<path d="M50.4405 22.1821H13.7306V68.5869H50.4405V22.1821Z" fill="white"/>
<path d="M21.9501 27.8971H18.3046V65.3923H21.9501V27.8971Z" fill="#F5F5F5"/>
<path d="M28.4876 27.8971H24.8421V65.3923H28.4876V27.8971Z" fill="#F5F5F5"/>
<path d="M35.0306 27.8971H31.3851V65.3923H35.0306V27.8971Z" fill="#F5F5F5"/>
<path d="M41.5681 27.8971H37.9226V65.3923H41.5681V27.8971Z" fill="#F5F5F5"/>
<path d="M47.7873 27.8971H44.1417V65.3923H47.7873V27.8971Z" fill="#F5F5F5"/>
<path d="M13.5025 74.4186H9.78267V222.707H13.5025V74.4186Z" fill="#F5F5F5"/>
<path d="M20.1778 74.4186H16.458V222.707H20.1778V74.4186Z" fill="#F5F5F5"/>
<path d="M26.8482 74.4186H23.1283V222.707H26.8482V74.4186Z" fill="#F5F5F5"/>
<path d="M33.5185 74.4186H29.7987V222.707H33.5185V74.4186Z" fill="#F5F5F5"/>
<path d="M39.8647 74.4186H36.1449V222.707H39.8647V74.4186Z" fill="#F5F5F5"/>
<path d="M46.3967 74.4186H42.6769V222.707H46.3967V74.4186Z" fill="#F5F5F5"/>
<path d="M53.067 74.4186H49.3472V222.707H53.067V74.4186Z" fill="#F5F5F5"/>
<path d="M246.704 229.706C246.704 229.78 191.517 229.844 123.505 229.844C55.4923 229.844 0.294769 229.78 0.294769 229.706C0.294769 229.632 55.4498 229.557 123.5 229.557C191.549 229.557 246.704 229.632 246.704 229.706Z" fill="#2E2166"/>
<path d="M170.891 42.0229L165.872 42.9197C163.35 45.7671 159.855 47.5685 156.073 47.9697C152.291 48.371 148.496 47.3431 145.433 45.0881C142.37 42.8331 140.262 39.5142 139.522 35.7835C138.782 32.0529 139.464 28.1805 141.435 24.9274C143.405 21.6743 146.521 19.2758 150.17 18.2034C153.819 17.131 157.737 17.4622 161.154 19.1319C164.571 20.8017 167.24 23.6891 168.637 27.2268C170.033 30.7645 170.056 34.6965 168.7 38.25L170.891 42.0229Z" fill="white"/>
<path d="M170.891 42.0228C170.891 42.0228 170.833 41.9379 170.732 41.7734L170.302 41.0465L168.652 38.2712H168.742C168.731 38.2813 168.717 38.2869 168.702 38.2869C168.688 38.2869 168.673 38.2813 168.663 38.2712C168.655 38.2612 168.651 38.2491 168.651 38.2367C168.651 38.2243 168.655 38.2122 168.663 38.2022C169.538 35.8668 169.827 33.3526 169.506 30.8793C169.404 30.1018 169.241 29.3336 169.018 28.5817C168.764 27.7837 168.448 27.0066 168.074 26.2574C167.272 24.5897 166.167 23.0854 164.815 21.8213C163.26 20.3702 161.417 19.2615 159.406 18.5668C157.395 17.8722 155.261 17.607 153.141 17.7884C150.796 18.0209 148.536 18.7888 146.535 20.033C144.432 21.3365 142.69 23.1463 141.467 25.297C139.615 28.536 139.026 32.3461 139.816 35.9931C140.605 39.6401 142.716 42.8659 145.742 45.0491C148.768 47.2323 152.495 48.2184 156.205 47.8174C159.915 47.4164 163.345 45.6566 165.834 42.8772C165.834 42.8772 165.834 42.8772 165.866 42.8772L169.581 42.2563L170.552 42.0971L170.891 42.0441L170.578 42.1131L169.634 42.2935L165.882 42.9992H165.919C164.247 44.9107 162.121 46.3706 159.737 47.2444C156.779 48.3284 153.558 48.4739 150.514 47.661C147.47 46.8481 144.75 45.1163 142.726 42.7017C140.702 40.2871 139.472 37.3072 139.203 34.1679C138.934 31.0286 139.639 27.8828 141.223 25.159L141.717 24.3365C141.897 24.0765 142.088 23.8059 142.274 23.5671C142.653 23.0633 143.06 22.5814 143.494 22.1237C143.701 21.8902 143.951 21.6939 144.173 21.4816C144.394 21.2624 144.628 21.0568 144.874 20.8661C145.354 20.4797 145.859 20.1252 146.386 19.8048C148.423 18.5405 150.723 17.7616 153.109 17.5284C155.267 17.3469 157.439 17.6211 159.484 18.3332C161.529 19.0453 163.402 20.1795 164.98 21.6621C166.345 22.9491 167.459 24.4785 168.265 26.1725C168.636 26.9426 168.944 27.7411 169.188 28.5604C169.41 29.3227 169.57 30.1018 169.666 30.89C169.976 33.3902 169.661 35.9284 168.747 38.2765L168.652 38.2234C168.663 38.2144 168.677 38.2095 168.692 38.2095C168.706 38.2095 168.72 38.2144 168.732 38.2234L170.324 41.073L170.732 41.7947L170.891 42.0228Z" fill="#2E2166"/>
<path d="M154.309 39.0513L146.848 34.0632L148.589 31.4631L153.592 34.8061L159.812 26.5706L162.311 28.4596L154.309 39.0513Z" fill="#2E2166"/>
<path d="M84.5452 40.553L87.0445 35.634C86.0138 32.8487 85.7458 29.8387 86.2681 26.9151C86.7905 23.9916 88.0842 21.2606 90.0156 19.0046C91.9471 16.7486 94.446 15.0494 97.2541 14.0827C100.062 13.1161 103.078 12.917 105.988 13.5062C108.591 14.0266 111.031 15.1604 113.107 16.8134C115.183 18.4664 116.834 20.5909 117.924 23.0104C119.014 25.4299 119.511 28.0746 119.373 30.7246C119.236 33.3747 118.468 35.9538 117.134 38.2475C115.799 40.5412 113.937 42.4833 111.701 43.9126C109.465 45.3419 106.92 46.217 104.278 46.4654C101.636 46.7136 98.9731 46.3279 96.5101 45.3403C94.0471 44.3526 91.8554 42.7914 90.1169 40.7865L84.5452 40.553Z" fill="white"/>
<path d="M84.5451 40.553H84.9166L85.9778 40.5848L90.0956 40.7228L90.0426 40.8077C90.0341 40.7943 90.0313 40.7781 90.0348 40.7627C90.0383 40.7473 90.0478 40.7339 90.0611 40.7254C90.0745 40.717 90.0907 40.7142 90.1061 40.7177C90.1215 40.7212 90.1349 40.7306 90.1434 40.744C91.9729 42.8282 94.2926 44.4239 96.8932 45.3871C97.6987 45.6893 98.5274 45.9253 99.3713 46.0929C100.277 46.2621 101.194 46.3649 102.115 46.4007C104.41 46.4902 106.699 46.1001 108.835 45.2552C110.971 44.4103 112.907 43.1293 114.52 41.4939C116.133 39.8585 117.387 37.9046 118.202 35.7572C119.017 33.6097 119.376 31.3159 119.254 29.0221C119.228 28.6984 119.228 28.3694 119.191 28.0457C119.154 27.722 119.09 27.3983 119.037 27.0746L118.963 26.5865C118.931 26.4273 118.883 26.2681 118.846 26.1089L118.596 25.1431C118.512 24.8247 118.374 24.5169 118.267 24.2039C118.164 23.8864 118.043 23.5746 117.907 23.2699C117.633 22.6541 117.323 22.0552 116.978 21.4764C116.798 21.1898 116.638 20.8927 116.447 20.6114L115.848 19.7995L115.54 19.4228L115.206 19.0513L114.537 18.3031C113.607 17.3705 112.572 16.548 111.454 15.8515C109.286 14.5111 106.842 13.6785 104.306 13.4159C102.005 13.2013 99.6845 13.4678 97.4919 14.1987C95.2994 14.9295 93.283 16.1086 91.5708 17.661C90.0738 19.0166 88.8381 20.6353 87.9253 22.4368C87.729 22.8666 87.4849 23.2752 87.3363 23.7104L86.8693 24.9892C86.6301 25.8159 86.4387 26.6557 86.2962 27.5045C85.8845 30.2478 86.1692 33.0506 87.124 35.6551C87.1293 35.6706 87.1293 35.6874 87.124 35.7029C86.3015 37.2948 85.6701 38.4941 85.2402 39.3272L84.7468 40.2664C84.6353 40.4787 84.5716 40.5901 84.5716 40.5901L84.7202 40.2824C84.8263 40.0595 84.9802 39.7517 85.1819 39.3431L87.0179 35.6286V35.6764C86.0293 33.0581 85.7207 30.2319 86.1211 27.462C86.2598 26.6029 86.4476 25.7525 86.6836 24.9149L87.1559 23.6202C87.3273 23.1785 87.5221 22.7463 87.7396 22.3254C88.6589 20.4977 89.9053 18.8539 91.4169 17.4753C94.6407 14.5528 98.8681 12.9872 103.218 13.1048C107.568 13.2225 111.704 15.0143 114.765 18.1068L115.444 18.8656L115.789 19.2424L116.092 19.6509L116.654 20.4841C116.845 20.7653 117.015 21.0678 117.185 21.3649C117.539 21.9351 117.856 22.5271 118.135 23.1373C118.294 23.4397 118.379 23.774 118.506 24.0871C118.634 24.4002 118.756 24.7186 118.841 25.0423L119.09 26.024C119.127 26.1832 119.18 26.3477 119.212 26.5122L119.286 27.0057C119.339 27.3347 119.387 27.6637 119.44 27.9927C119.493 28.3217 119.483 28.656 119.504 28.985C119.624 31.3104 119.259 33.6354 118.431 35.8116C117.602 37.9878 116.329 39.9674 114.693 41.6241C113.057 43.2809 111.093 44.5783 108.927 45.4336C106.762 46.2889 104.441 46.6833 102.115 46.5917C101.183 46.5566 100.255 46.4484 99.3394 46.268C95.7312 45.5311 92.4702 43.616 90.0691 40.8236L90.1646 40.7599C90.1737 40.7712 90.1786 40.7853 90.1786 40.7997C90.1786 40.8142 90.1737 40.8282 90.1646 40.8395H90.1328L85.9778 40.622L84.9166 40.5636L84.5451 40.553Z" fill="#2E2166"/>
<path d="M103.362 37.7724H95.2058V21.1473H103.362V37.7724ZM95.7364 37.2417H102.831V21.678H95.7364V37.2417Z" fill="#2E2166"/>
<path d="M98.6653 23.599H96.9885V25.6261H98.6653V23.599Z" fill="#2E2166"/>
<path d="M101.579 23.599H99.9019V25.6261H101.579V23.599Z" fill="#2E2166"/>
<path d="M98.6653 26.7616H96.9885V28.7887H98.6653V26.7616Z" fill="#2E2166"/>
<path d="M101.579 26.7616H99.9019V28.7887H101.579V26.7616Z" fill="#2E2166"/>
<path d="M98.6653 29.9294H96.9885V31.9565H98.6653V29.9294Z" fill="#2E2166"/>
<path d="M101.579 29.9294H99.9019V31.9565H101.579V29.9294Z" fill="#2E2166"/>
<path d="M98.6653 33.193H96.9885V35.22H98.6653V33.193Z" fill="#2E2166"/>
<path d="M101.579 33.193H99.9019V35.22H101.579V33.193Z" fill="#2E2166"/>
<path d="M106.169 31.3676H104.492V33.3946H106.169V31.3676Z" fill="#2E2166"/>
<path d="M109.082 31.3676H107.405V33.3946H109.082V31.3676Z" fill="#2E2166"/>
<path d="M106.169 34.2065H104.492V36.2336H106.169V34.2065Z" fill="#2E2166"/>
<path d="M109.082 34.2065H107.405V36.2336H109.082V34.2065Z" fill="#2E2166"/>
<path d="M110.764 37.7724H102.805V29.505H110.764V37.7724ZM103.335 37.2418H110.234V30.0356H103.335V37.2418Z" fill="#2E2166"/>
<path d="M109.273 23.1107H105.532V28.4331H109.273V23.1107Z" fill="#CDCDCD"/>
<path d="M107.4 24.0182H104.731L106.068 22.3413L107.4 20.6698L108.737 22.3413L110.074 24.0182H107.4Z" fill="#CDCDCD"/>
<path d="M192.812 222.511V223.115C192.812 223.115 182.661 227.302 182.571 229.239L202.799 228.942L202.427 222.213C200.94 222.95 199.311 223.358 197.652 223.409C195.993 223.461 194.342 223.154 192.812 222.511Z" fill="#2E2166"/>
<path d="M202.804 228.942L202.714 227.35L183.362 228.226C183.362 228.226 182.465 228.629 182.576 229.287L202.804 228.942Z" fill="#CDCDCD"/>
<path d="M192.749 223.19C192.749 223.285 193.247 223.322 193.736 223.635C194.224 223.949 194.489 224.357 194.579 224.315C194.67 224.272 194.516 223.704 193.916 223.344C193.316 222.983 192.722 223.084 192.749 223.19Z" fill="white"/>
<path d="M190.637 224.081C190.637 224.177 191.045 224.336 191.39 224.75C191.735 225.164 191.83 225.604 191.921 225.599C192.011 225.594 192.075 225.031 191.639 224.538C191.204 224.044 190.637 223.986 190.637 224.081Z" fill="white"/>
<path d="M189.469 226.639C189.559 226.639 189.692 226.161 189.427 225.625C189.161 225.089 188.7 224.877 188.663 224.962C188.625 225.047 188.912 225.328 189.119 225.774C189.326 226.22 189.374 226.628 189.469 226.639Z" fill="white"/>
<path d="M207.278 216.413L198.665 218.823L200.814 223.704L198.58 236.063C198.519 236.402 198.584 236.752 198.765 237.046C198.945 237.339 199.227 237.556 199.557 237.655C199.813 237.727 200.085 237.726 200.341 237.652C200.597 237.578 200.827 237.434 201.005 237.236C202.905 235.113 209.857 227.228 209.692 226.267L209.416 223.699C209.358 223.169 208.843 221.9 208.843 221.784L207.278 216.413Z" fill="#2E2166"/>
<path d="M199.811 237.719L209.612 225.387L209.66 225.949C209.695 226.18 209.677 226.416 209.608 226.639C209.539 226.862 209.421 227.067 209.262 227.239C208.493 228.48 206.307 231.298 201.043 237.252C200.89 237.423 200.698 237.554 200.484 237.636C200.27 237.717 200.039 237.745 199.811 237.719Z" fill="#CDCDCD"/>
<path d="M202.396 231.638C202.029 231.25 201.591 230.937 201.106 230.714C200.589 230.568 200.049 230.517 199.514 230.566C199.514 230.534 199.663 230.412 199.981 230.343C200.394 230.257 200.823 230.29 201.218 230.438C201.612 230.582 201.957 230.836 202.21 231.171C202.385 231.425 202.427 231.622 202.396 231.638Z" fill="white"/>
<path d="M201.584 233.5C201.174 233.322 200.754 233.168 200.326 233.038C199.88 233 199.431 232.986 198.984 232.996C199.183 232.849 199.414 232.75 199.658 232.708C199.902 232.665 200.153 232.68 200.39 232.752C201.212 232.911 201.653 233.458 201.584 233.5Z" fill="white"/>
<path d="M203.993 229.191C203.383 228.867 202.75 228.589 202.098 228.358C201.418 228.218 200.728 228.125 200.034 228.082C200.721 227.839 201.47 227.839 202.157 228.082C202.881 228.222 203.532 228.615 203.993 229.191Z" fill="white"/>
<path d="M200.713 222.028C200.799 222.577 200.833 223.133 200.814 223.689C200.708 224.405 200.554 225.323 200.384 226.315C200.178 227.488 199.976 228.549 199.817 229.319C199.756 229.738 199.653 230.151 199.509 230.55C199.51 230.125 199.555 229.702 199.642 229.287C199.753 228.512 199.923 227.445 200.13 226.267C200.305 225.275 200.475 224.362 200.618 223.657C200.606 223.112 200.638 222.567 200.713 222.028Z" fill="#CDCDCD"/>
<path d="M212.966 142.468C213.645 139.194 215.365 133.272 214.691 130.545C213.099 124.225 210.366 120.569 206.604 112.545H203.807L176.967 112.078L174.771 116.95C172.33 123.514 170.663 127.43 169.995 132.232C169.204 137.761 170.589 145.774 173.667 153.867C180.3 171.33 184.004 185.297 184.28 189.059C184.556 192.821 184.932 196.705 188.424 208.618C190.966 217.316 192.85 222.511 192.85 222.511C195.503 224.007 198.299 224.41 200.852 222.956L208.642 219.953C208.642 219.953 206.254 199.443 203.468 193.999C201.462 190.083 198.161 188.226 199.711 183.121C201.26 178.016 210.886 152.524 212.966 142.468Z" fill="#2E2166"/>
<path d="M181.552 125.907C181.591 125.95 181.627 125.996 181.658 126.045L181.955 126.453L183.091 128.072L187.336 134.19V134.217V134.243C187.129 136.536 187.05 139.194 186.906 142.16C186.763 145.127 186.609 148.385 186.445 151.887C186.28 155.389 186.063 159.136 185.861 163.057C185.659 166.979 185.426 171.086 185.033 175.304C184.624 178.812 184.264 182.261 184.561 185.572C184.64 186.4 184.741 187.217 184.895 188.019C185.031 188.812 185.226 189.594 185.479 190.359C186.009 191.845 186.678 193.288 187.288 194.689C189.766 200.298 192.064 205.302 194.017 209.52L198.644 219.475L199.891 222.192C200.024 222.495 200.13 222.723 200.209 222.898C200.289 223.073 200.31 223.142 200.31 223.142C200.31 223.142 200.263 223.068 200.183 222.908L199.843 222.213C199.541 221.587 199.111 220.68 198.554 219.523L193.879 209.584C191.926 205.381 189.586 200.377 187.097 194.774C186.482 193.368 185.834 191.945 185.267 190.428C185.011 189.653 184.814 188.86 184.678 188.056C184.518 187.244 184.412 186.421 184.333 185.588C184.03 182.24 184.391 178.77 184.8 175.262C185.192 171.065 185.394 166.952 185.633 163.057C185.871 159.162 186.052 155.389 186.238 151.887C186.423 148.385 186.583 145.121 186.736 142.16C186.89 139.199 186.986 136.536 187.209 134.243V134.291C185.415 131.638 183.993 129.563 183.011 128.13L181.908 126.491L181.632 126.066C181.599 126.016 181.573 125.963 181.552 125.907Z" fill="#CDCDCD"/>
<path d="M185.129 68.5709L186.779 64.4054L196.601 63.8748L200.613 64.4054L201.053 65.5622L203.775 113.734C203.775 113.734 194.261 115.655 189.506 114.986C184.752 114.318 179.154 112.147 179.154 112.147V84.7503L185.129 68.5709Z" fill="white"/>
<path d="M199.912 70.529C199.912 70.529 199.912 70.5608 199.843 70.6139L199.631 70.8526C199.445 71.0596 199.164 71.3833 198.793 71.7229C197.78 72.7278 196.706 73.6689 195.577 74.5406L195.529 74.5778L195.492 74.53C194.43 73.3661 193.444 72.1341 192.542 70.842C192.441 70.6988 192.345 70.5502 192.25 70.4175H192.372C191.528 71.5478 190.732 72.6197 190.011 73.6014C189.918 73.7266 189.807 73.8374 189.682 73.9304C189.618 73.981 189.545 74.0183 189.466 74.0402C189.388 74.062 189.306 74.068 189.225 74.0577C189.075 74.025 188.938 73.9473 188.833 73.8349C188.726 73.7287 188.647 73.6173 188.562 73.5165L187.628 72.3491L186.291 70.6563L185.935 70.1946C185.892 70.1429 185.853 70.0879 185.819 70.0302L185.957 70.1787L186.333 70.6245L187.708 72.2854L188.652 73.4422C188.822 73.6438 188.992 73.8879 189.246 73.9304C189.501 73.9728 189.729 73.75 189.905 73.5218L192.255 70.3379L192.314 70.253L192.372 70.3379L192.659 70.7571C193.56 72.0442 194.538 73.2757 195.588 74.4451H195.497C196.629 73.5852 197.712 72.6622 198.74 71.6805C199.116 71.3196 199.403 71.0331 199.605 70.8367L199.833 70.6139C199.856 70.5825 199.883 70.554 199.912 70.529Z" fill="#2E2166"/>
<g opacity="0.3">
<path d="M188.689 73.5855C188.689 73.5855 189.936 75.1191 190.281 74.7317C190.626 74.3443 192.478 71.4895 192.695 71.3727C192.913 71.256 195.147 75.257 196.023 74.9811C196.898 74.7052 200.018 71.5797 200.018 71.5797L200.077 70.3539L195.534 74.4876L192.313 70.3645L189.597 73.8933C189.597 73.8933 189.023 74.3602 188.689 73.5855Z" fill="white"/>
</g>
<path d="M190.78 115.278C190.767 115.128 190.767 114.977 190.78 114.827C190.78 114.509 190.78 114.074 190.822 113.532C190.87 112.386 190.934 110.768 191.013 108.757C191.183 104.74 191.411 99.2049 191.623 93.0654C191.836 86.9258 191.99 81.3912 192.101 77.369C192.154 75.379 192.202 73.7606 192.234 72.5932C192.255 72.0519 192.271 71.6221 192.281 71.3037C192.281 71.1526 192.294 71.0017 192.319 70.8527C192.331 71.0027 192.331 71.1536 192.319 71.3037V72.5985C192.319 73.75 192.292 75.3684 192.271 77.3743C192.212 81.3912 192.085 86.9258 191.878 93.076C191.671 99.2262 191.406 104.75 191.188 108.767C191.072 110.752 190.976 112.37 190.907 113.543C190.87 114.074 190.838 114.514 190.812 114.838C190.811 114.985 190.8 115.132 190.78 115.278Z" fill="#2E2166"/>
<g opacity="0.3">
<path d="M182.125 95.8353L176.967 129.696L177.365 133.362C177.816 133.893 178.724 133.707 179.18 133.198C179.593 132.645 179.839 131.986 179.891 131.298C181.87 119.587 182.932 107.679 182.125 95.8353Z" fill="white"/>
</g>
<path d="M174.866 68.6982C173.919 69.0033 173.06 69.5335 172.364 70.2433C171.667 70.9531 171.152 71.8213 170.865 72.7735L164.72 94.4503L169.761 109.308L175.025 100.351L178.74 67.9341L174.866 68.6982Z" fill="#2E2166"/>
<path d="M181.966 67.308L176.129 68.4488L174.494 99.4331C174.494 99.8152 174.876 105.801 174.876 105.801L164.794 128.311C167.044 132.322 173.125 134.206 177.413 135.209C177.413 135.209 181.753 104.432 182.035 97.6501C182.316 90.8685 186.673 64.5009 186.673 64.5009L181.966 67.308Z" fill="#2E2166"/>
<path d="M166.057 125.758L166.094 125.658L166.222 125.36L166.71 124.225C167.14 123.232 167.771 121.8 168.546 120.011L174.829 105.748V105.78C174.781 104.246 174.723 102.654 174.648 101.004C174.479 97.3371 174.277 93.8402 174.144 90.6616C174.012 87.4831 173.927 84.6123 173.9 82.2032C173.874 79.794 173.9 77.8466 173.9 76.5041C173.9 75.8355 173.927 75.3154 173.937 74.9546C173.937 74.7795 173.937 74.6468 173.937 74.5513C173.937 74.4558 173.937 74.4133 173.937 74.4133C173.937 74.4133 173.937 74.4611 173.937 74.5513V74.9546C173.937 75.3154 173.937 75.8355 173.937 76.5041C173.937 77.8466 173.937 79.7994 173.974 82.2032C174.012 84.607 174.102 87.4725 174.25 90.6563C174.399 93.8402 174.579 97.3318 174.781 100.999C174.855 102.628 174.914 104.225 174.956 105.774V105.806L168.631 120.054C167.835 121.832 167.198 123.238 166.752 124.246C166.535 124.734 166.36 125.111 166.222 125.371C166.163 125.498 166.121 125.594 166.084 125.663C166.079 125.696 166.07 125.728 166.057 125.758Z" fill="#2E2166"/>
<path d="M181.759 94.2858C181.759 94.2858 181.759 94.2593 181.733 94.2115L181.679 93.994C181.632 93.7923 181.568 93.5164 181.488 93.1609C181.335 92.4339 181.122 91.3779 180.921 90.0566C180.719 88.7353 180.528 87.1699 180.39 85.4135C180.252 83.657 180.114 81.7308 180.019 79.7038C179.987 78.9449 179.95 78.202 179.918 77.475L179.87 76.4138C179.87 76.2386 179.87 76.0635 179.87 75.8831V75.6178V75.4851C179.87 75.4851 179.87 75.4427 179.87 75.4162C179.87 75.3896 179.87 75.4161 179.87 75.3684V75.3366C179.87 75.3366 179.934 75.31 179.944 75.3366C179.955 75.3631 179.981 75.3366 179.997 75.379H179.897L181.457 74.2859V74.4026L179.748 73.5483H179.7V73.5005C179.955 72.5401 180.263 71.6804 180.528 70.9269C180.793 70.1734 181.059 69.5154 181.255 68.9795C181.451 68.4435 181.632 68.0296 181.748 67.7431C181.807 67.6104 181.855 67.5043 181.886 67.4194C181.918 67.3345 181.939 67.3132 181.939 67.3132C181.932 67.3536 181.92 67.3928 181.902 67.43L181.786 67.759C181.674 68.0561 181.52 68.4753 181.319 69.006C181.117 69.5366 180.883 70.1999 180.623 70.9587C180.363 71.7176 180.066 72.5507 179.817 73.5324L179.785 73.4634L181.483 74.2434L181.589 74.2912L181.494 74.3602L179.939 75.4533H179.838C179.838 75.4533 179.891 75.4162 179.886 75.4162C179.89 75.4185 179.894 75.4197 179.899 75.4197C179.904 75.4197 179.908 75.4185 179.912 75.4162H179.939V75.6125V75.8725L179.965 76.4032C179.965 76.7534 179.997 77.1142 180.013 77.4644C180.045 78.1914 180.082 78.9343 180.114 79.6931C180.21 81.7202 180.326 83.6464 180.475 85.3976C180.623 87.1487 180.804 88.7247 181.006 90.0407C181.207 91.3567 181.393 92.4126 181.536 93.1449C181.605 93.5005 181.664 93.7817 181.701 93.9834C181.701 94.0736 181.733 94.1479 181.743 94.2009C181.754 94.254 181.759 94.2858 181.759 94.2858Z" fill="#2E2166"/>
<path d="M210.663 108.608L214.377 71.118L203.94 67.292C203.94 67.292 201.493 65.0421 200.193 63.88L199.732 69.7595C199.732 69.7595 198.32 93.8242 200.543 105.944C202.767 118.064 202.454 117.65 204.077 125.535C205.261 131.272 205.457 136.281 207.261 136.785C209.066 137.289 218.065 133.994 218.065 133.994L210.663 108.608Z" fill="#2E2166"/>
<path d="M214.372 71.118C214.372 71.118 218.458 72.6728 219.074 77.9315C219.525 81.8158 221.913 104.002 219.413 106.767C216.424 109.98 213.155 112.921 209.644 115.554L203.807 107.961L209.347 101.869L212.472 74.9917L214.372 71.118Z" fill="#2E2166"/>
<path d="M202.788 92.9965C202.786 92.9718 202.786 92.9469 202.788 92.9222C202.788 92.8691 202.788 92.8001 202.826 92.7152C202.864 92.5242 202.918 92.2589 202.985 91.9193C203.112 91.2294 203.303 90.2265 203.478 88.9795C203.85 86.4855 204.168 83.0204 204.348 79.1785C204.391 78.2729 204.433 77.3885 204.476 76.5253C204.476 76.0955 204.513 75.6763 204.534 75.2624L204.566 74.6521C204.566 74.5513 204.566 74.4505 204.566 74.3497V74.2064C204.569 74.1835 204.569 74.1603 204.566 74.1374C204.58 74.1419 204.595 74.1419 204.608 74.1374H204.651H204.555L203.001 73.039L202.91 72.9806L203.011 72.9328L204.709 72.1528L204.677 72.2165C204.528 71.5328 204.413 70.8421 204.333 70.147C204.253 69.5314 204.179 69.0061 204.094 68.5816C204.009 68.157 203.919 67.8281 203.855 67.6052L203.77 67.3558C203.77 67.3027 203.744 67.2709 203.77 67.2709C203.784 67.2965 203.797 67.3231 203.807 67.3505C203.807 67.4088 203.866 67.4884 203.903 67.5946C204.015 67.9116 204.106 68.2361 204.173 68.5656C204.269 68.9955 204.354 69.5208 204.444 70.131C204.531 70.823 204.654 71.5102 204.81 72.1899V72.2324H204.768L203.096 73.0655V72.9594L204.656 74.0472H204.555C204.571 74.0339 204.589 74.0248 204.608 74.0207C204.626 74.0164 204.644 74.0164 204.662 74.0207C204.662 74.0207 204.662 74.0525 204.662 74.0684V74.3019C204.662 74.4027 204.662 74.5035 204.662 74.6044C204.662 74.806 204.662 75.0077 204.635 75.2146C204.635 75.6285 204.598 76.0477 204.582 76.4775C204.54 77.3319 204.502 78.218 204.46 79.1308C204.324 82.415 204.017 85.6899 203.542 88.9423C203.351 90.1894 203.144 91.187 203.011 91.8768C202.932 92.2111 202.873 92.4764 202.826 92.6675C202.804 92.7524 202.788 92.8213 202.778 92.8744C202.799 92.9752 202.794 92.9965 202.788 92.9965Z" fill="#2E2166"/>
<path d="M217.163 102.766C217.163 102.766 216.797 102.521 216.171 102.235C215.802 102.056 215.419 101.909 215.025 101.794C214.541 101.66 214.045 101.571 213.544 101.529C213.044 101.497 212.541 101.511 212.043 101.572C211.636 101.624 211.235 101.713 210.844 101.837C210.175 102.044 209.782 102.261 209.782 102.235C209.862 102.168 209.952 102.112 210.048 102.07C210.152 102.013 210.261 101.962 210.371 101.917C210.516 101.848 210.665 101.787 210.817 101.736C211.212 101.599 211.619 101.5 212.032 101.439C213.048 101.291 214.085 101.369 215.067 101.667C215.465 101.79 215.85 101.948 216.219 102.139C216.362 102.212 216.5 102.294 216.633 102.383C216.738 102.444 216.839 102.512 216.935 102.585C217.018 102.636 217.095 102.697 217.163 102.766Z" fill="#2E2166"/>
<g opacity="0.3">
<path d="M203.945 67.7749C203.945 67.7749 205.829 72.1686 205.537 72.5507C205.245 72.9328 204.285 73.1769 204.285 73.1769C204.285 73.1769 205.908 73.8826 205.908 74.5035C205.908 75.7452 204.163 83.0893 204.163 83.0893L204.592 74.1161L203.038 73.0548L204.736 72.2641L203.945 67.7749Z" fill="white"/>
</g>
<path d="M211.459 80.1443C211.473 80.2464 211.473 80.3499 211.459 80.4521C211.459 80.6802 211.427 80.9827 211.406 81.3276C211.347 82.1289 211.263 83.2167 211.162 84.5486C210.923 87.3027 210.605 91.0384 210.249 95.1615C210.127 96.4456 210.015 97.6927 209.904 98.876C209.847 99.4703 209.784 100.049 209.713 100.611C209.661 101.161 209.565 101.706 209.426 102.24L205.378 106.448L204.232 107.594C204.103 107.739 203.961 107.871 203.807 107.987C203.917 107.829 204.041 107.682 204.178 107.547L205.272 106.347L209.22 102.15V102.193C209.344 101.669 209.431 101.137 209.48 100.601C209.543 100.043 209.602 99.465 209.66 98.8707C209.766 97.6821 209.878 96.435 209.994 95.1562C210.382 91.0331 210.732 87.2974 210.987 84.5433C211.125 83.2114 211.241 82.1236 211.321 81.3276C211.363 80.9774 211.4 80.6855 211.427 80.4574C211.424 80.3521 211.435 80.2469 211.459 80.1443Z" fill="#2E2166"/>
<path d="M165.824 90.5608L161.775 99.5817L157.954 95.2994L152.855 98.8972L158.846 108.507C160.73 110.922 162.529 112.567 164.577 112.307C164.989 112.25 165.394 112.152 165.787 112.015C168.599 111.054 170.536 109.165 171.268 106.284L173.587 94.6574L165.824 90.5608Z" fill="#2E2166"/>
<path d="M166.243 106.671C166.208 106.546 166.181 106.418 166.163 106.289C166.121 106.045 166.047 105.689 165.946 105.254C165.845 104.819 165.707 104.31 165.527 103.747C165.346 103.185 165.118 102.58 164.847 101.959C164.577 101.338 164.274 100.76 163.988 100.245C163.701 99.7302 163.409 99.2845 163.16 98.9183C162.91 98.5522 162.693 98.255 162.544 98.0587C162.461 97.9595 162.385 97.8549 162.316 97.7456C162.411 97.833 162.498 97.9289 162.576 98.0321C162.741 98.2232 162.963 98.5097 163.223 98.8706C163.484 99.2314 163.754 99.6825 164.078 100.192C164.398 100.75 164.691 101.324 164.953 101.911C165.224 102.537 165.447 103.153 165.627 103.715C165.808 104.278 165.935 104.777 166.025 105.238C166.116 105.7 166.174 106.034 166.206 106.3C166.229 106.422 166.241 106.546 166.243 106.671Z" fill="#2E2166"/>
<path d="M188.567 33.108L188.535 33.2452C188.562 33.2188 188.562 33.1555 188.567 33.108Z" fill="#2E2166"/>
<path d="M178.756 59.0618C178.824 57.6184 178.283 56.2228 177.827 54.8485C177.371 53.4741 176.994 51.9883 177.381 50.6033C177.869 48.8522 179.445 47.6317 180.294 46.0186C181.143 44.4054 181.207 42.5004 181.356 40.6803C181.504 38.8602 181.812 36.9287 183.022 35.5543C184.55 33.8138 188.551 33.5007 190.451 34.8432C190.743 45.2014 190.653 55.4587 188.434 65.5834C183.377 65.801 180.814 64.814 176.405 62.3412C177.811 62.0387 178.687 60.5104 178.756 59.0618Z" fill="#2E2166"/>
<path d="M200.443 65.6258L202.274 40.4733C202.3 39.918 202.117 39.3731 201.762 38.9458C201.406 38.5186 200.903 38.24 200.353 38.165L188.678 34.8591C184.921 34.3284 182.284 38.9238 181.939 42.6967C181.557 46.8888 181.255 52.0254 181.663 55.1721C182.486 61.5027 187.293 62.4419 187.293 62.4419C187.193 65.5621 187.23 65.6258 187.23 65.6258L192.382 70.3379L200.443 65.6258Z" fill="white"/>
<path d="M183.643 48.173C183.634 48.3835 183.708 48.589 183.849 48.7457C183.99 48.9024 184.186 48.9978 184.396 49.0114C184.499 49.0224 184.603 49.0128 184.702 48.983C184.8 48.9533 184.892 48.9041 184.972 48.8384C185.052 48.7726 185.117 48.6916 185.165 48.6002C185.213 48.5087 185.242 48.4086 185.251 48.3057C185.258 48.0956 185.184 47.8908 185.043 47.7344C184.903 47.578 184.707 47.4823 184.497 47.4673C184.394 47.4563 184.291 47.466 184.192 47.4957C184.093 47.5254 184.001 47.5746 183.921 47.6403C183.842 47.7061 183.776 47.7871 183.728 47.8786C183.68 47.97 183.651 48.0702 183.643 48.173Z" fill="#2E2166"/>
<path d="M182.969 45.4242C183.064 45.5303 183.69 45.0952 184.561 45.1217C185.431 45.1483 186.057 45.6046 186.153 45.4985C186.248 45.3924 186.105 45.2597 185.834 45.0475C185.464 44.7768 185.019 44.6268 184.561 44.6176C184.109 44.6033 183.665 44.7335 183.292 44.9891C183.017 45.1642 182.932 45.3552 182.969 45.4242Z" fill="#2E2166"/>
<path d="M191.061 48.3269C191.052 48.5374 191.126 48.7429 191.267 48.8996C191.408 49.0563 191.604 49.1517 191.815 49.1653C191.917 49.1763 192.021 49.1666 192.12 49.1369C192.219 49.1072 192.311 49.058 192.39 48.9923C192.47 48.9265 192.536 48.8455 192.583 48.7541C192.631 48.6626 192.66 48.5625 192.669 48.4596C192.678 48.2491 192.604 48.0436 192.463 47.8869C192.322 47.7302 192.126 47.6348 191.915 47.6212C191.813 47.6094 191.709 47.6186 191.609 47.648C191.51 47.6774 191.418 47.7266 191.338 47.7924C191.258 47.8583 191.193 47.9396 191.145 48.0314C191.098 48.1233 191.069 48.2238 191.061 48.3269Z" fill="#2E2166"/>
<path d="M191.512 45.8063C191.613 45.9124 192.239 45.4773 193.104 45.5038C193.969 45.5304 194.601 45.9867 194.696 45.8806C194.792 45.7745 194.648 45.6418 194.378 45.4348C194.008 45.1617 193.563 45.0097 193.104 44.9997C192.653 44.9854 192.208 45.1156 191.836 45.3712C191.565 45.5675 191.464 45.7585 191.512 45.8063Z" fill="#2E2166"/>
<path d="M188.174 52.1687C187.721 52.0087 187.248 51.9088 186.768 51.8716C186.545 51.845 186.338 51.792 186.306 51.6381C186.292 51.4087 186.35 51.1807 186.471 50.9854C186.694 50.4547 186.933 49.9241 187.177 49.3139C188.158 46.9313 188.875 44.9732 188.769 44.9307C188.663 44.8883 187.798 46.7933 186.816 49.1759C186.582 49.7596 186.354 50.3221 186.142 50.858C185.993 51.122 185.942 51.4304 185.999 51.7283C186.03 51.8066 186.078 51.877 186.139 51.9348C186.201 51.9925 186.274 52.0361 186.354 52.0626C186.477 52.0993 186.603 52.1207 186.731 52.1263C187.209 52.1987 187.693 52.213 188.174 52.1687Z" fill="#2E2166"/>
<path d="M187.283 62.442C190.244 62.5686 193.183 61.8725 195.773 60.4308C196.15 59.5606 194.086 63.5775 187.235 64.0922L187.283 62.442Z" fill="#2E2166"/>
<path d="M188.238 54.2383C188.441 53.9553 188.71 53.7264 189.021 53.5719C189.333 53.4174 189.678 53.3419 190.026 53.3521C190.254 53.362 190.476 53.4271 190.672 53.5417C190.869 53.6563 191.035 53.8171 191.156 54.0101C191.275 54.228 191.332 54.4742 191.321 54.7221C191.31 54.97 191.231 55.2101 191.093 55.4163C190.929 55.6281 190.705 55.7859 190.451 55.8691C190.196 55.9524 189.923 55.9573 189.665 55.8833C189.186 55.7109 188.755 55.4272 188.408 55.0555C188.297 54.9638 188.207 54.8499 188.142 54.7212C188.111 54.6501 188.099 54.5719 188.107 54.4945C188.115 54.4171 188.144 54.3434 188.19 54.2807" fill="#2E2166"/>
<path d="M190.716 52.8533C190.573 52.8533 190.546 53.7819 189.719 54.4452C188.891 55.1085 187.893 54.9758 187.877 55.0926C187.861 55.2093 188.1 55.2836 188.525 55.3048C189.076 55.3278 189.619 55.1569 190.058 54.822C190.479 54.497 190.757 54.0213 190.833 53.4954C190.891 53.0761 190.78 52.8533 190.716 52.8533Z" fill="#2E2166"/>
<path d="M191.231 42.2404C191.311 42.4792 192.181 42.3943 193.2 42.5429C194.219 42.6914 195.036 42.9992 195.174 42.7923C195.237 42.6914 195.099 42.4633 194.776 42.2245C194.34 41.9347 193.842 41.7528 193.322 41.6938C192.802 41.6152 192.271 41.6607 191.772 41.8265C191.39 41.922 191.199 42.1024 191.231 42.2404Z" fill="#F5F5F5"/>
<path d="M183.361 42.4155C183.51 42.6171 184.115 42.4155 184.831 42.4155C185.548 42.4155 186.158 42.5853 186.307 42.3836C186.37 42.2828 186.28 42.0865 186.02 41.8901C185.671 41.6491 185.255 41.5229 184.831 41.5293C184.407 41.5272 183.992 41.655 183.643 41.8954C183.383 42.1183 183.298 42.3199 183.361 42.4155Z" fill="#2E2166"/>
<path d="M187.277 34.8114C188.339 32.2218 190.7 31.6753 193.21 31.4046C195.72 31.134 199.445 32.1741 201.52 33.5272C203.245 34.5782 204.796 35.8924 206.115 37.4221C207.23 38.8602 207.707 40.4999 208.418 42.1555C209.48 44.7344 209.426 47.584 209.575 50.3539C209.767 53.834 210.324 57.2844 211.236 60.6484C211.565 61.8583 211.899 63.3016 210.175 63.9968C209.854 64.1209 209.519 64.203 209.177 64.2409C206.524 64.5592 203.956 65.4242 201 65.6099H199.18C196.871 65.6099 195.688 64.1241 195.768 62.2403C196.006 56.5465 198.782 47.1966 199.09 45.403C199.105 45.4242 200.066 33.1345 187.277 34.8114Z" fill="#2E2166"/>
<path d="M188.111 34.7583C188.496 35.0796 188.812 35.4757 189.04 35.9226C189.268 36.3695 189.403 36.8579 189.437 37.3584C189.575 38.3507 189.517 39.3696 189.703 40.3513C189.897 41.3378 190.326 42.2631 190.953 43.0491C191.58 43.835 192.387 44.4586 193.306 44.867C193.895 45.1164 194.696 45.2226 195.062 44.6972C195.041 45.3969 195.232 46.0866 195.611 46.6751C195.99 47.2635 196.539 47.723 197.185 47.9925C198.119 48.3693 199.164 48.3056 200.146 48.5232C201.128 48.7407 202.157 49.4146 202.21 50.4229L202.624 43.4237L200.655 37.2364L194.606 33.6439L188.111 34.7583Z" fill="#2E2166"/>
<path d="M198.851 46.2945C198.647 46.153 198.454 45.9969 198.273 45.8275C197.817 45.3234 197.49 44.7174 197.317 44.0605C197.076 43.0852 196.935 42.0876 196.898 41.0836C196.851 39.8449 196.707 38.6119 196.468 37.3956C196.224 36.1667 195.657 35.0254 194.823 34.0897C194.45 33.6885 194.001 33.3657 193.502 33.1398C193.066 32.9466 192.599 32.8317 192.122 32.8002C191.433 32.7446 190.743 32.91 190.154 33.2725C190.061 33.3255 189.974 33.3877 189.894 33.4582C189.83 33.5046 189.771 33.558 189.719 33.6174C189.671 33.6638 189.627 33.7134 189.586 33.766C189.768 33.5964 189.965 33.4437 190.175 33.3096C190.763 32.9712 191.441 32.823 192.117 32.8851C193.132 32.958 194.081 33.4154 194.77 34.164C195.577 35.0917 196.126 36.2153 196.362 37.4221C196.598 38.6319 196.744 39.8575 196.797 41.0889C196.839 42.1016 196.99 43.1069 197.248 44.087C197.43 44.7523 197.774 45.3616 198.251 45.8593C198.425 46.0372 198.628 46.1843 198.851 46.2945Z" fill="white"/>
<path d="M204.083 45.4508C203.766 45.4137 203.456 45.3352 203.16 45.2173C202.374 44.8368 201.706 44.2498 201.228 43.5193C200.882 43.0294 200.586 42.5069 200.342 41.9592C200.08 41.322 199.914 40.6497 199.848 39.9639C199.758 39.2423 199.732 38.4728 199.647 37.6769C199.599 37.2842 199.546 36.8756 199.456 36.4723C199.36 36.0624 199.225 35.6626 199.052 35.2784C198.373 33.806 197.164 32.6431 195.667 32.0202C194.448 31.5212 193.1 31.43 191.825 31.7602C190.969 31.9715 190.166 32.3601 189.469 32.9011C189.215 33.097 188.98 33.3174 188.769 33.5591C188.787 33.5481 188.803 33.5337 188.816 33.5166L188.954 33.3946C189.013 33.3362 189.087 33.2672 189.177 33.1929C189.267 33.1186 189.374 33.0231 189.501 32.9382C190.2 32.4172 190.998 32.0451 191.846 31.8451C193.103 31.534 194.426 31.6306 195.625 32.121C197.085 32.7366 198.266 33.8706 198.941 35.3049C199.107 35.683 199.239 36.0755 199.334 36.4776C199.418 36.8721 199.481 37.2706 199.525 37.6716C199.61 38.4569 199.641 39.2263 199.732 39.9586C199.807 40.6534 199.986 41.333 200.262 41.9751C200.512 42.534 200.816 43.0672 201.17 43.567C201.664 44.3023 202.35 44.8878 203.154 45.2598C203.377 45.344 203.608 45.401 203.844 45.4296H204.03L204.083 45.4508Z" fill="#CDCDCD"/>
<path d="M195.062 44.6972C195.062 44.6972 195.062 44.6972 195.062 44.7556C195.062 44.814 195.062 44.8564 195.062 44.9254C195.062 44.9944 195.062 45.1005 195.099 45.212C195.136 45.3234 195.147 45.4507 195.179 45.594C195.264 45.9434 195.398 46.2791 195.577 46.5916C195.819 47.0071 196.144 47.3684 196.532 47.6529C197.605 48.355 198.885 48.6712 200.161 48.5497C200.922 48.5126 201.676 48.3952 202.411 48.1995C203.214 47.9983 203.986 47.6876 204.704 47.2762L204.847 47.1913H204.682C203.76 47.0611 202.865 46.7852 202.029 46.3741H201.982L201.944 46.4855C203.819 46.7878 205.741 46.4435 207.394 45.5091L207.506 45.4454L207.383 45.4083C206.218 45.0575 205.123 44.5023 204.152 43.7686C203.393 43.1905 202.809 42.4136 202.464 41.524C202.265 40.9367 202.171 40.3186 202.188 39.6986C202.188 39.4916 202.215 39.3271 202.226 39.2051V39.0565V39.014C202.227 39.0282 202.227 39.0424 202.226 39.0565V39.1838C202.226 39.3006 202.194 39.4651 202.167 39.6773C202.137 40.3047 202.221 40.9324 202.417 41.5293C202.77 42.4448 203.373 43.2428 204.157 43.8323C205.137 44.5766 206.239 45.1425 207.415 45.5038V45.403C205.783 46.3189 203.888 46.6555 202.04 46.3581L201.631 46.2892L202.003 46.4696H202.05C202.886 46.883 203.781 47.1624 204.704 47.2974V47.1859C203.993 47.5919 203.231 47.9006 202.438 48.104C201.711 48.3 200.966 48.4174 200.214 48.4542C198.96 48.5811 197.7 48.28 196.638 47.5998C196.251 47.3159 195.928 46.9545 195.688 46.5386C195.511 46.2295 195.372 45.8998 195.274 45.5569C195.242 45.4136 195.211 45.2915 195.189 45.1801C195.168 45.0687 195.157 44.9732 195.142 44.8989C195.126 44.8246 195.142 44.7715 195.115 44.7291C195.098 44.7169 195.081 44.7063 195.062 44.6972Z" fill="#CDCDCD"/>
<path d="M207.999 61.922C208.031 61.922 207.649 58.5471 207.145 54.3975C206.641 50.2478 206.2 46.8835 206.168 46.8835C206.136 46.8835 206.519 50.2584 207.023 54.4081C207.527 58.5577 207.962 61.922 207.999 61.922Z" fill="#CDCDCD"/>
<path d="M195.221 109.542C194.722 109.439 194.206 109.441 193.707 109.548C193.209 109.654 192.738 109.864 192.324 110.163C191.008 111.128 188.753 112.413 186.487 111.967C182.969 111.272 181.059 107.971 181.844 104.007C182.629 100.043 185.638 97.6766 189.161 98.3718C191.438 98.8175 193.04 100.855 193.895 102.251C194.165 102.682 194.522 103.053 194.942 103.34C195.362 103.628 195.836 103.826 196.336 103.922C196.818 104.017 197.314 104.016 197.796 103.919C198.278 103.822 198.736 103.632 199.144 103.358C199.552 103.084 199.902 102.732 200.174 102.322C200.446 101.913 200.635 101.454 200.729 100.972L204.635 77.4857L167.851 71.0596L142.709 66.703L138.782 88.99C138.384 91.0171 140.088 92.816 142.115 93.2352C142.614 93.3374 143.129 93.3346 143.627 93.2268C144.125 93.1189 144.594 92.9086 145.007 92.609C146.323 91.6432 148.583 90.3591 150.844 90.8048C154.367 91.5 156.277 94.8006 155.492 98.791C154.707 102.781 151.693 105.122 148.169 104.426C145.898 103.981 144.29 101.943 143.436 100.547C143.166 100.115 142.81 99.7437 142.39 99.4552C141.97 99.1668 141.495 98.9678 140.995 98.8706C140.513 98.7728 140.016 98.7717 139.533 98.8674C139.051 98.9632 138.592 99.1538 138.184 99.4283C137.776 99.7028 137.426 100.056 137.155 100.466C136.884 100.877 136.698 101.338 136.607 101.821L131.894 128.067L168.891 134.578L190.594 138.398L193.247 138.87L198.156 113.967C198.259 113.484 198.265 112.984 198.173 112.498C198.081 112.012 197.893 111.55 197.619 111.137C197.346 110.725 196.993 110.372 196.581 110.098C196.17 109.824 195.707 109.635 195.221 109.542Z" fill="#CDCDCD"/>
<path d="M158.581 94.6255C158.586 94.4928 158.563 94.3605 158.515 94.237C158.466 94.1135 158.392 94.0015 158.298 93.9081C158.204 93.8148 158.091 93.7421 157.967 93.6948C157.843 93.6474 157.71 93.6264 157.578 93.6332C157.27 93.6332 156.872 93.6703 156.384 93.7181C155.115 93.8454 151.364 95.6921 151.263 96.435C151.195 96.7009 151.197 96.9799 151.268 97.2449C151.34 97.5099 151.479 97.7518 151.672 97.9473C151.672 97.9473 150.939 98.9184 151.205 99.725C151.438 100.41 152.542 100.648 152.542 100.648C152.542 100.648 151.725 101.598 152.542 102.277C152.834 102.511 153.423 102.962 153.555 103.116C153.609 103.319 153.687 103.515 153.789 103.699C153.973 103.958 154.21 104.174 154.485 104.334C154.759 104.493 155.065 104.591 155.381 104.623H155.593C156 104.663 156.406 104.545 156.729 104.294C158.193 103.174 162.343 99.9266 162.422 99.0245C162.422 99.0245 163.213 98.409 162.905 97.7669C162.598 97.1248 161.414 97.4008 161.414 97.4008C161.575 97.2715 161.691 97.0943 161.744 96.8949C161.798 96.6954 161.786 96.4842 161.711 96.2917C161.441 95.6125 159.345 95.6709 158.395 95.7982C157.636 95.8937 155.524 96.2386 155.524 96.2386C155.524 96.2386 158.336 95.2729 158.501 94.7953C158.535 94.7424 158.562 94.6853 158.581 94.6255Z" fill="white"/>
<path d="M162.465 99.0458C162.376 99.1126 162.282 99.1712 162.183 99.2209C161.998 99.3217 161.727 99.465 161.382 99.6348C160.703 99.9744 159.737 100.399 158.655 100.818C157.572 101.237 156.569 101.572 155.842 101.805C155.481 101.922 155.19 102.007 154.983 102.07C154.878 102.104 154.772 102.131 154.664 102.15C154.764 102.102 154.867 102.061 154.972 102.028L155.821 101.736C156.543 101.487 157.53 101.137 158.617 100.723C159.705 100.309 160.66 99.8895 161.35 99.5711L162.167 99.1837C162.263 99.1312 162.363 99.0851 162.465 99.0458Z" fill="#2E2166"/>
<path d="M161.584 97.3954C161.484 97.4298 161.381 97.453 161.276 97.4644C161.08 97.5015 160.793 97.5546 160.438 97.6342C159.732 97.7881 158.771 98.0534 157.721 98.3877C157.19 98.5522 156.691 98.7008 156.24 98.8547C155.789 99.0085 155.391 99.1783 155.062 99.3163C154.733 99.4543 154.468 99.5869 154.282 99.6718C154.191 99.7236 154.095 99.7663 153.996 99.7992L154.065 99.7514L154.266 99.6347C154.441 99.5392 154.701 99.4012 155.03 99.2526C155.359 99.1041 155.757 98.9289 156.208 98.7644C156.66 98.5999 157.164 98.4514 157.689 98.2869C158.588 97.9971 159.502 97.7545 160.427 97.5599C160.777 97.4909 161.069 97.4485 161.271 97.4219L161.584 97.3954Z" fill="#2E2166"/>
<path d="M155.566 96.2599C155.425 96.3554 155.274 96.4354 155.115 96.4987C154.829 96.6313 154.425 96.8011 153.98 96.9869C153.534 97.1726 153.141 97.3477 152.855 97.4804C152.704 97.5592 152.548 97.6283 152.388 97.6873C152.521 97.579 152.667 97.4881 152.823 97.4167C153.185 97.2179 153.559 97.0407 153.942 96.886C154.388 96.7003 154.792 96.5411 155.083 96.4244C155.239 96.3557 155.401 96.3006 155.566 96.2599Z" fill="#2E2166"/>
<path d="M161.143 100.691C161.087 100.771 161.023 100.845 160.952 100.914C160.82 101.046 160.623 101.237 160.374 101.444C159.875 101.906 159.153 102.505 158.368 103.158C158.177 103.323 157.991 103.498 157.795 103.646C157.613 103.795 157.422 103.931 157.222 104.055C156.885 104.271 156.516 104.432 156.129 104.533C155.868 104.603 155.597 104.626 155.328 104.602C155.254 104.598 155.182 104.589 155.11 104.575H155.036C155.133 104.569 155.23 104.569 155.328 104.575C155.592 104.581 155.855 104.545 156.108 104.469C156.483 104.362 156.841 104.199 157.169 103.986C157.364 103.86 157.552 103.724 157.731 103.577C157.922 103.429 158.103 103.259 158.299 103.089C159.084 102.421 159.817 101.842 160.326 101.402L160.921 100.871C160.99 100.806 161.065 100.745 161.143 100.691Z" fill="#2E2166"/>
<path d="M202.751 109.452C202.751 109.452 201.435 108.04 200.326 107.812C199.217 107.584 197.673 107.78 197.413 107.589C197.153 107.398 196.569 106.645 196.044 107.112C195.518 107.578 194.669 109.441 196.914 110.354L198.506 110.614C198.296 111.364 197.976 112.08 197.556 112.736C197.068 113.304 190.504 119.279 190.504 119.279C190.504 119.279 189.713 119.852 189.941 120.59C190.17 121.327 191.693 121.174 191.693 121.174C191.947 121.481 192.275 121.72 192.646 121.866C193.017 122.013 193.419 122.063 193.815 122.012C194.428 121.904 195.026 121.726 195.598 121.481C195.929 121.831 196.364 122.062 196.839 122.139C197.313 122.217 197.8 122.137 198.225 121.911C199.753 121.11 206.269 115.294 206.269 115.294L204.63 109.515L202.751 109.452Z" fill="white"/>
<path d="M204.274 108.316L202.64 109.457C204.667 111.5 206.206 113.315 205.786 115.766L208.938 114.488C208.938 114.488 209.209 109.584 204.274 108.316Z" fill="white"/>
<path d="M196.643 117.921C196.026 118.697 195.273 119.355 194.42 119.863C193.619 120.443 192.72 120.877 191.767 121.142C191.735 121.062 192.929 120.521 194.271 119.629C195.614 118.738 196.585 117.862 196.643 117.921Z" fill="#2E2166"/>
<path d="M198.93 119.184C198.512 119.837 197.968 120.4 197.331 120.842C196.693 121.284 195.974 121.595 195.216 121.757C195.189 121.678 196.145 121.327 197.163 120.611C198.182 119.895 198.851 119.141 198.93 119.184Z" fill="#2E2166"/>
<path d="M105.283 79.2688L107.278 78.0748L109.905 85.1536L107.777 86.4696L105.283 79.2688Z" fill="white"/>
<path d="M70.3344 33.6122C70.2207 30.8687 69.0792 28.2684 67.1366 26.3277C65.194 24.3871 62.5925 23.2482 59.8489 23.1373H59.2864C53.1628 23.2382 49.8356 28.4968 50.1063 34.6098L50.881 59.2317L60.5546 62.9462L64.2956 59.5076C64.2956 57.783 64.2957 54.2012 64.3328 54.2012C64.3699 54.2012 70.2389 53.5326 70.5519 47.669C70.7058 44.777 70.5413 38.9133 70.3344 33.6122Z" fill="white"/>
<path d="M64.3326 54.1428C61.6209 54.0268 58.9997 53.1334 56.7816 51.5692C56.7816 51.5692 58.4372 56.0585 64.3167 55.7719L64.3326 54.1428Z" fill="#2E2166"/>
<path d="M68.3126 38.6746C68.307 38.8937 68.2153 39.1018 68.0574 39.2538C67.8995 39.4057 67.688 39.4893 67.4689 39.4865C67.362 39.4915 67.2551 39.4748 67.1549 39.4373C67.0546 39.3998 66.963 39.3424 66.8856 39.2685C66.8082 39.1945 66.7466 39.1057 66.7046 39.0072C66.6626 38.9088 66.6409 38.8029 66.6411 38.6958C66.6466 38.4776 66.7376 38.2704 66.8943 38.1185C67.0511 37.9667 67.2612 37.8825 67.4795 37.8839C67.5865 37.8797 67.6932 37.8969 67.7934 37.9346C67.8937 37.9723 67.9853 38.0297 68.063 38.1034C68.1406 38.1771 68.2027 38.2656 68.2456 38.3637C68.2885 38.4618 68.3113 38.5675 68.3126 38.6746Z" fill="#2E2166"/>
<path d="M68.9811 36.154C68.8697 36.2601 68.2541 35.7613 67.352 35.7294C66.4499 35.6976 65.7601 36.1168 65.6805 36.0001C65.6009 35.8833 65.7495 35.756 66.0467 35.5596C66.4465 35.3048 66.9156 35.1806 67.3892 35.2041C67.8589 35.222 68.3106 35.3893 68.6786 35.6817C68.9493 35.9046 69.0342 36.1062 68.9811 36.154Z" fill="#2E2166"/>
<path d="M60.4697 38.6746C60.4628 38.8932 60.3707 39.1005 60.2131 39.2522C60.0554 39.4039 59.8447 39.488 59.626 39.4865C59.519 39.4907 59.4122 39.4735 59.312 39.4358C59.2118 39.3981 59.1202 39.3407 59.0425 39.267C58.9648 39.1933 58.9027 39.1048 58.8599 39.0067C58.817 38.9086 58.7942 38.8029 58.7929 38.6958C58.8011 38.4776 58.8936 38.2711 59.051 38.1197C59.2083 37.9683 59.4182 37.8838 59.6366 37.8839C59.7436 37.8797 59.8503 37.8969 59.9506 37.9346C60.0508 37.9723 60.1424 38.0297 60.2201 38.1034C60.2977 38.1771 60.3599 38.2656 60.4027 38.3637C60.4456 38.4618 60.4684 38.5675 60.4697 38.6746Z" fill="#2E2166"/>
<path d="M60.13 36C60.0238 36.1009 59.4083 35.6074 58.5062 35.5702C57.6041 35.5331 56.9143 35.9629 56.8294 35.8462C56.7445 35.7294 56.8983 35.6021 57.1955 35.4057C57.5973 35.1508 58.0681 35.0266 58.5433 35.0502C59.0116 35.0708 59.462 35.2358 59.8328 35.5225C60.0981 35.7506 60.183 35.9523 60.13 36Z" fill="#2E2166"/>
<path d="M63.0804 43.063C63.5612 42.9313 64.057 42.8617 64.5556 42.856C64.789 42.856 65.0066 42.8083 65.0544 42.6491C65.0815 42.4133 65.0371 42.1748 64.927 41.9645C64.736 41.3968 64.529 40.8024 64.3168 40.1816C63.4731 37.6451 62.8734 35.565 62.9795 35.5278C63.0857 35.4907 63.8445 37.5231 64.6882 40.0595C64.8899 40.6857 65.0862 41.28 65.2666 41.8531C65.403 42.1356 65.4332 42.4577 65.3515 42.7605C65.3141 42.8402 65.2595 42.9105 65.1916 42.9665C65.1237 43.0225 65.0442 43.0627 64.9588 43.0842C64.8297 43.1106 64.698 43.1231 64.5662 43.1214C64.0704 43.1618 63.5715 43.1423 63.0804 43.063Z" fill="#2E2166"/>
<path d="M60.5389 33.1877C60.4062 33.4159 59.5412 33.1347 58.48 33.071C57.4187 33.0073 56.5166 33.1294 56.4211 32.8906C56.3786 32.7738 56.5643 32.5722 56.9517 32.4024C57.4573 32.199 58.0027 32.1138 58.5462 32.1534C59.0897 32.1929 59.617 32.3561 60.0878 32.6306C60.4433 32.8587 60.5972 33.0816 60.5389 33.1877Z" fill="#2E2166"/>
<path d="M69.1296 33.5061C68.9386 33.7024 68.2116 33.4743 67.3254 33.4371C66.4393 33.4 65.6911 33.5326 65.5266 33.3151C65.4523 33.2089 65.5743 33.0073 65.9086 32.8216C66.3659 32.5995 66.8721 32.4971 67.3798 32.524C67.8875 32.5509 68.38 32.7062 68.8112 32.9755C69.119 33.2196 69.2145 33.4053 69.1296 33.5061Z" fill="#2E2166"/>
<path d="M50.4087 38.9292C50.3079 38.8814 46.4236 37.5708 46.3864 41.5824C46.3493 45.5941 50.3875 44.8087 50.3981 44.692C50.4087 44.5752 50.4087 38.9292 50.4087 38.9292Z" fill="white"/>
<path d="M49.2094 43.1637C49.2094 43.1637 49.1404 43.2115 49.0237 43.2646C48.9397 43.3002 48.8495 43.3185 48.7583 43.3185C48.6672 43.3185 48.5769 43.3002 48.493 43.2646C48.2347 43.0984 48.0256 42.866 47.8875 42.5917C47.7494 42.3173 47.6873 42.011 47.7077 41.7045C47.7 41.3611 47.7689 41.0203 47.9093 40.7069C47.9493 40.5827 48.0183 40.4698 48.1106 40.3775C48.2029 40.2852 48.3158 40.2162 48.44 40.1762C48.5202 40.1573 48.6046 40.1665 48.6789 40.2022C48.7533 40.2379 48.8131 40.2981 48.8485 40.3726C48.9016 40.4893 48.8485 40.5689 48.8963 40.5742C48.9441 40.5795 48.9812 40.5052 48.9547 40.3407C48.9323 40.2401 48.8761 40.1502 48.7955 40.086C48.6866 40.0026 48.5497 39.9646 48.4134 39.9799C48.2475 40.0112 48.0924 40.0848 47.9632 40.1935C47.8339 40.3023 47.735 40.4425 47.6758 40.6007C47.5009 40.9457 47.4135 41.3284 47.4211 41.7151C47.4211 42.527 47.8456 43.307 48.424 43.4609C48.5318 43.4931 48.6454 43.5007 48.7565 43.4833C48.8676 43.4658 48.9734 43.4237 49.0661 43.3601C49.1775 43.2593 49.2094 43.1744 49.2094 43.1637Z" fill="#2E2166"/>
<path d="M60.2467 43.6201C60.3847 43.6201 60.39 44.5328 61.186 45.212C61.9819 45.8912 62.9583 45.7427 62.9636 45.8859C62.9689 46.0292 62.746 46.0664 62.3321 46.077C61.7896 46.0819 61.263 45.8938 60.8463 45.5463C60.4429 45.2205 60.1821 44.7504 60.1194 44.2356C60.0822 43.8323 60.183 43.6148 60.2467 43.6201Z" fill="#2E2166"/>
<path d="M78.4427 28.327C78.3715 28.0991 78.2132 27.9084 78.0023 27.7964C77.536 27.5763 77.0194 27.4848 76.5059 27.531C75.2257 27.4947 73.9711 27.1642 72.8391 26.5653C73.2382 26.3757 73.6052 26.1251 73.927 25.8224C74.2734 25.5119 74.5272 25.1116 74.6602 24.6658C74.7932 24.22 74.8002 23.7461 74.6805 23.2965C74.6645 23.2118 74.6281 23.1323 74.5745 23.0648C74.5209 22.9973 74.4516 22.9439 74.3727 22.9091C74.1127 22.8242 73.8792 23.0789 73.6935 23.2806C73.4581 23.5922 73.1433 23.8349 72.7821 23.9833C72.4208 24.1317 72.0264 24.1804 71.6399 24.1243C71.1049 24.0831 70.5861 23.9216 70.1222 23.652C70.1018 23.6352 70.084 23.6156 70.0692 23.5937L69.4642 22.9675C67.9678 21.4499 66.6784 20.3992 65.3465 19.842C63.3937 19.0301 60.1196 18.6746 58.066 19.1893C56.0124 19.7041 54.1605 21.3119 53.8527 23.4345C52.7171 22.4475 50.9926 22.4369 49.6076 22.9834H49.5704C48.0103 23.5141 47.1082 25.1538 46.6307 26.7351C46.6307 26.82 46.5829 26.9102 46.5564 26.9951C46.0213 27.8296 45.2933 28.523 44.4338 29.0168C44.2852 29.1017 44.1101 29.2079 44.0889 29.383C44.0964 29.4683 44.1245 29.5504 44.1707 29.6225C44.2169 29.6946 44.2799 29.7544 44.3542 29.7969C44.7281 30.0628 45.1554 30.2439 45.6065 30.3275C45.4598 30.6956 45.2823 31.0506 45.0759 31.3888C44.9008 31.686 44.6885 32.0415 44.8371 32.3493C44.8995 32.4659 44.9958 32.5608 45.1133 32.6214C45.2308 32.6821 45.3639 32.7056 45.4951 32.6889C45.7568 32.6342 46.0044 32.5258 46.2221 32.3705L45.6914 33.6122C46.2555 33.7113 46.8348 33.6786 47.3842 33.5167C47.6973 35.0025 47.9148 37.7618 48.2863 38.7648C49.3476 38.7966 49.6129 38.6852 50.1488 38.8656C50.844 39.1044 50.5627 40.3355 51.4701 39.9958C51.9318 39.8207 52.6641 38.0855 52.8233 37.6133C53.8839 34.4967 54.2639 31.189 53.9376 27.9131C54.5943 27.2424 55.3722 26.7022 56.23 26.3212L56.161 26.3849C57.8113 25.8542 59.6739 25.2917 61.2234 26.0771C62.4279 26.6926 63.1231 27.9556 64.0145 28.9638C64.766 29.8864 65.7046 30.6392 66.7684 31.1725C67.8322 31.7058 68.997 32.0074 70.1859 32.0574C70.3982 33.8298 70.43 36.7324 70.499 38.388L71.953 35.0927C72.0697 34.8964 72.1652 34.7 72.2607 34.509L72.2926 34.4506C72.434 34.1315 72.5917 33.8198 72.7648 33.5167C72.9595 33.6497 73.193 33.7141 73.4283 33.6997C73.6637 33.6854 73.8875 33.593 74.0646 33.4373C74.2416 33.2815 74.3618 33.0713 74.406 32.8397C74.4503 32.608 74.4161 32.3683 74.309 32.1582C74.1728 31.957 74.0063 31.778 73.8155 31.6276C74.0156 31.8271 74.2641 31.9712 74.5367 32.0456C74.8093 32.12 75.0966 32.1223 75.3703 32.0521C75.6379 31.9689 75.8709 31.8004 76.0337 31.5724C76.1966 31.3443 76.2804 31.0693 76.2724 30.7892C76.2537 30.5985 76.185 30.4161 76.0732 30.2605C75.9613 30.1049 75.8104 29.9816 75.6356 29.903C76.3707 29.9721 77.1096 29.8206 77.7582 29.4679C78.1668 29.2344 78.5807 28.8523 78.4427 28.327Z" fill="#2E2166"/>
<path d="M55.6938 24.1296C55.4818 24.2903 55.2831 24.4677 55.0995 24.6603C54.6289 25.2169 54.3108 25.8861 54.1762 26.6024C54.0675 27.0921 54.0105 27.5919 54.0064 28.0935C54.0064 28.6242 54.0382 29.2185 54.0701 29.8287C54.1102 30.4702 54.1102 31.1135 54.0701 31.755C54.0484 32.0978 54.0005 32.4384 53.9268 32.7738C53.87 33.1315 53.724 33.4692 53.5023 33.7555C53.3988 33.8689 53.2675 33.9535 53.1215 34.001C52.9754 34.0484 52.8196 34.0571 52.6692 34.0261C52.3819 33.9662 52.1214 33.8155 51.9263 33.5963C51.6213 33.1506 51.4384 32.6329 51.3956 32.0946H51.523C51.3403 32.5352 51.0935 32.9465 50.7907 33.3151C50.5007 33.6604 50.0877 33.8792 49.6392 33.9253C49.4312 33.9429 49.2223 33.9044 49.0343 33.8139C48.8638 33.7187 48.7239 33.577 48.631 33.4053C48.5416 33.2432 48.4993 33.0594 48.5089 32.8746C48.5192 32.7043 48.5886 32.5429 48.7053 32.4183L48.7636 32.4767C48.4101 32.8747 47.976 33.193 47.4901 33.4106C47.3256 33.4849 47.1876 33.5273 47.0974 33.5592C47.0523 33.5734 47.0062 33.584 46.9594 33.591L47.0921 33.5326C47.177 33.5008 47.3097 33.4477 47.4742 33.3681C47.9434 33.1386 48.362 32.8174 48.7053 32.4236L48.7636 32.4767C48.6646 32.599 48.6066 32.7495 48.598 32.9067C48.5895 33.0639 48.6307 33.2198 48.7159 33.3522C48.8013 33.5047 48.9283 33.6299 49.082 33.7131C49.2477 33.79 49.4305 33.8229 49.6127 33.8086C50.027 33.7574 50.4064 33.5507 50.6739 33.2302C50.9653 32.8671 51.2013 32.463 51.3744 32.0309L51.4646 31.8452L51.5017 32.0468C51.5481 32.5647 51.7312 33.061 52.0324 33.4849C52.2061 33.681 52.4389 33.8151 52.6957 33.8669C52.8238 33.8945 52.9569 33.8879 53.0817 33.8479C53.2065 33.8079 53.3186 33.7357 53.4068 33.6388C53.6137 33.3712 53.7489 33.0552 53.7994 32.7207C53.8705 32.3938 53.9184 32.0622 53.9427 31.7284C53.9827 31.0905 53.9827 30.4507 53.9427 29.8128C53.9109 29.2026 53.879 28.6189 53.8949 28.0723C53.9041 27.5631 53.9663 27.0563 54.0807 26.56C54.2268 25.8407 54.5599 25.1727 55.0464 24.6231C55.2313 24.4216 55.4505 24.2545 55.6938 24.1296Z" fill="#CDCDCD"/>
<path d="M73.8208 30.0357L73.773 30.0728L73.6245 30.1789C73.5444 30.2366 73.4611 30.2898 73.375 30.3381C73.258 30.4046 73.1376 30.4648 73.0142 30.5185C72.2228 30.8688 71.3561 31.0148 70.4937 30.9431C69.2098 30.8463 67.9818 30.378 66.9596 29.5952C65.7252 28.6293 64.7013 27.4212 63.9508 26.0452C63.5316 25.3288 63.1867 24.5966 62.8153 23.9226C62.4706 23.2634 62.0347 22.656 61.5205 22.1185C61.058 21.6287 60.4794 21.2637 59.8383 21.0572C59.5487 20.9742 59.248 20.9366 58.9469 20.9457C58.6673 20.9583 58.3907 21.0083 58.1244 21.0943C57.6668 21.2469 57.2458 21.4926 56.888 21.816C56.62 22.0624 56.3941 22.351 56.2194 22.6703C56.0765 22.9488 55.9712 23.245 55.9063 23.5512C55.9063 23.5512 55.9063 23.5512 55.9063 23.4875C55.9063 23.4238 55.9063 23.3814 55.9328 23.3071C55.984 23.0775 56.0623 22.8548 56.1663 22.6438C56.3376 22.3144 56.5637 22.0165 56.8349 21.7629C57.1965 21.4274 57.6251 21.1723 58.0925 21.0147C58.3673 20.9247 58.6528 20.8712 58.9416 20.8555C59.255 20.8437 59.5684 20.8813 59.8702 20.967C60.5298 21.1701 61.1281 21.5349 61.6107 22.0282C62.1354 22.573 62.5802 23.1894 62.932 23.859C63.3141 24.5382 63.6537 25.2705 64.0676 25.9815C64.8125 27.3414 65.8209 28.5392 67.0339 29.505C68.0356 30.2784 69.2382 30.748 70.499 30.8582C71.3485 30.9348 72.204 30.8056 72.993 30.4814C73.2769 30.3482 73.5533 30.1994 73.8208 30.0357Z" fill="#CDCDCD"/>
<path d="M74.3831 27.478C74.3831 27.478 74.3141 27.5364 74.1708 27.6213C73.9706 27.7417 73.7612 27.8464 73.5447 27.9344C73.2231 28.066 72.8912 28.1707 72.5524 28.2475C72.1347 28.3342 71.7105 28.3857 71.2841 28.4013C70.8575 28.4046 70.4314 28.3709 70.0106 28.3005C69.6691 28.2372 69.3335 28.1449 69.0077 28.0246C68.7887 27.9469 68.5758 27.8529 68.3709 27.7433C68.2904 27.7082 68.2154 27.6617 68.148 27.6054C68.148 27.6054 68.4823 27.754 69.0395 27.9344C69.3657 28.0386 69.6991 28.1184 70.0371 28.1732C70.4496 28.2374 70.8667 28.2676 71.2841 28.2634C71.7013 28.2508 72.1167 28.2029 72.5258 28.1201C72.8593 28.052 73.1874 27.9598 73.5075 27.8442C74.0541 27.6372 74.3725 27.4568 74.3831 27.478Z" fill="#CDCDCD"/>
<path d="M67.9943 211.516L68.0792 222.898C68.0792 222.898 79.6738 226.612 79.8966 228.735L57.8325 229.69L56.9728 211.961L67.9943 211.516Z" fill="#2E2166"/>
<path d="M61.2127 222.251C61.0028 222.326 60.8278 222.475 60.7211 222.671C60.6144 222.867 60.5835 223.095 60.6343 223.312C60.7007 223.528 60.8486 223.71 61.0467 223.819C61.2448 223.928 61.4775 223.955 61.6956 223.896C61.9174 223.817 62.1023 223.659 62.2149 223.452C62.3275 223.246 62.3599 223.005 62.3058 222.776C62.2153 222.561 62.0443 222.389 61.8292 222.298C61.6142 222.207 61.372 222.203 61.1543 222.288" fill="#F5F5F5"/>
<path d="M57.8324 229.706V227.918L78.9944 227.668C78.9944 227.668 79.992 228.056 79.9124 228.73L57.8324 229.706Z" fill="#CDCDCD"/>
<path d="M68.4293 222.787C68.4293 222.893 67.8987 222.967 67.368 223.317C66.8374 223.667 66.5933 224.15 66.4925 224.113C66.3917 224.076 66.5243 223.445 67.1558 223.009C67.7872 222.574 68.4505 222.686 68.4293 222.787Z" fill="white"/>
<path d="M70.7853 223.641C70.8172 223.747 70.3555 223.949 70.0106 224.421C69.6657 224.893 69.5808 225.376 69.4799 225.376C69.3791 225.376 69.2783 224.771 69.724 224.193C70.1698 223.614 70.78 223.54 70.7853 223.641Z" fill="white"/>
<path d="M72.218 226.374C72.1225 226.4 71.9527 225.87 72.218 225.27C72.4834 224.67 72.9609 224.41 73.014 224.495C73.0671 224.58 72.7646 224.914 72.5629 225.413C72.3613 225.912 72.3295 226.337 72.218 226.374Z" fill="white"/>
<path d="M68.1216 220.192C68.0845 220.292 67.591 220.165 66.9754 220.234C66.3599 220.303 65.9141 220.515 65.8398 220.425C65.7655 220.335 66.2219 219.932 66.9383 219.857C67.6546 219.783 68.1747 220.107 68.1216 220.192Z" fill="white"/>
<path d="M42.4117 213.951L41.2125 227.674L43.3987 238.817C43.4359 239.007 43.4336 239.203 43.392 239.392C43.3504 239.581 43.2703 239.759 43.1569 239.916C43.0434 240.073 42.8989 240.204 42.7324 240.303C42.5659 240.401 42.3809 240.465 42.1889 240.489C41.9654 240.517 41.7384 240.492 41.5269 240.414C41.3155 240.336 41.1257 240.209 40.9737 240.043C39.0103 237.92 31.8095 229.961 31.9527 228.969C32.1172 227.812 32.2499 214.418 32.2499 214.418L42.4117 213.951Z" fill="#2E2166"/>
<path d="M42.189 240.468L32.0112 228.024L31.9741 228.602C31.9407 229.105 32.0874 229.604 32.388 230.009C33.1946 231.07 35.487 234.031 40.9367 240.022C41.0922 240.194 41.288 240.325 41.5066 240.403C41.7252 240.48 41.9597 240.503 42.189 240.468Z" fill="#CDCDCD"/>
<g opacity="0.6">
<path d="M35.1154 223.768C35.2766 223.904 35.382 224.094 35.4114 224.303C35.4408 224.511 35.3921 224.724 35.2746 224.898C35.1461 225.064 34.9588 225.175 34.7513 225.206C34.5439 225.238 34.3322 225.188 34.1602 225.068C33.9904 224.925 33.8797 224.723 33.8493 224.503C33.8189 224.282 33.8711 224.059 33.9957 223.874C34.147 223.714 34.3549 223.619 34.575 223.611C34.7951 223.602 35.01 223.679 35.1737 223.827" fill="white"/>
</g>
<path d="M39.4348 234.259C39.7956 233.851 40.2316 233.516 40.719 233.272C41.2317 233.103 41.7722 233.034 42.3109 233.07C42.3109 233.033 42.157 232.916 41.8386 232.853C41.4184 232.776 40.9849 232.824 40.5916 232.991C40.192 233.157 39.8518 233.44 39.6153 233.803C39.4348 234.047 39.3977 234.248 39.4348 234.259Z" fill="white"/>
<path d="M40.2945 236.164C40.703 235.963 41.123 235.786 41.5522 235.633C42.0014 235.581 42.4531 235.552 42.9053 235.548C42.7022 235.403 42.467 235.308 42.2195 235.272C41.972 235.235 41.7195 235.26 41.4832 235.342C40.6554 235.543 40.2256 236.122 40.2945 236.164Z" fill="white"/>
<path d="M37.7635 231.786C38.3707 231.431 39.004 231.122 39.6579 230.863C40.3381 230.696 41.0299 230.581 41.7274 230.518C41.016 230.332 40.2663 230.352 39.5662 230.577C38.866 230.801 38.2443 231.221 37.7741 231.786H37.7635Z" fill="white"/>
<path d="M37.7793 227.584C37.8111 227.668 38.5911 227.403 39.5781 227.43C40.5651 227.456 41.3346 227.743 41.3717 227.663C40.8582 227.278 40.2238 227.09 39.5834 227.132C38.9479 227.068 38.3098 227.228 37.7793 227.584Z" fill="white"/>
<path d="M38.0286 223.551C38.6381 223.392 39.267 223.32 39.8965 223.338C40.5177 223.447 41.1212 223.639 41.6901 223.911C41.6901 223.885 41.5733 223.699 41.2709 223.498C40.8657 223.241 40.4058 223.082 39.9283 223.036C39.4511 222.986 38.9687 223.051 38.5221 223.227C38.1825 223.365 38.0074 223.519 38.0286 223.551Z" fill="white"/>
<path d="M39.9232 222.569C39.9773 222.398 39.9954 222.217 39.9762 222.038C39.9602 221.558 39.8483 221.085 39.6472 220.648C39.53 220.316 39.306 220.033 39.0105 219.841C38.9069 219.787 38.7892 219.766 38.6733 219.782C38.5575 219.797 38.4491 219.847 38.3631 219.926C38.2082 220.091 38.1178 220.306 38.1084 220.531C38.1091 220.995 38.2718 221.444 38.5682 221.8C38.8647 222.157 39.2764 222.399 39.7321 222.484C40.1843 222.561 40.6491 222.501 41.067 222.312C41.4849 222.123 41.8368 221.813 42.0776 221.423C42.139 221.325 42.1784 221.215 42.1931 221.1C42.2077 220.986 42.1973 220.87 42.1625 220.759C42.1145 220.653 42.0345 220.564 41.9337 220.505C41.8329 220.446 41.7163 220.42 41.6 220.43C41.2563 220.481 40.9322 220.622 40.6608 220.839C40.2679 221.111 39.928 221.453 39.6578 221.847C39.5461 221.983 39.4631 222.14 39.4137 222.309C39.8063 221.816 40.2673 221.382 40.7828 221.02C41.0257 220.842 41.3078 220.725 41.6053 220.68C41.6693 220.672 41.7343 220.685 41.79 220.718C41.8457 220.75 41.889 220.8 41.9131 220.86C41.9311 220.933 41.9333 221.01 41.9196 221.084C41.9059 221.158 41.8765 221.228 41.8335 221.29C41.6151 221.62 41.3063 221.88 40.944 222.039C40.5817 222.198 40.1812 222.25 39.7905 222.187C39.4057 222.114 39.0571 221.912 38.8016 221.616C38.5462 221.319 38.3991 220.944 38.3843 220.553C38.388 220.393 38.446 220.239 38.5488 220.117C38.5952 220.073 38.6548 220.044 38.7187 220.035C38.7827 220.027 38.8477 220.039 38.9043 220.07C39.1454 220.235 39.3305 220.47 39.435 220.744C39.7043 221.318 39.8696 221.936 39.9232 222.569Z" fill="white"/>
<path d="M79.6629 117.173C80.7238 121.888 81.0814 126.733 80.7241 131.553C80.4854 134.61 70.1749 219.157 70.1749 219.157H56.2562L60.167 139.693L59.0314 139.942C59.0314 139.942 51.4273 173.84 50.8012 179.321C50.2705 184.251 43.4252 223.02 43.4252 223.02L30.2865 222.877L35.1737 172.837L39.9071 127.361L41.6847 114.095L79.6629 117.173Z" fill="#2E2166"/>
<path d="M105.299 78.0748L91.7725 84.7662L84.1206 64.8352C83.424 63.1295 82.3229 61.6188 80.9121 60.4336C79.5013 59.2484 77.8234 58.4243 76.023 58.0324C75.5613 57.936 75.093 57.8739 74.6221 57.8467L80.093 89.6853C81.1676 92.2903 82.5961 94.7348 84.3382 96.9498C85.4791 98.3241 87.7502 99.7675 92.7754 98.1915L108.939 87.3717L105.299 78.0748Z" fill="#2E2166"/>
<path d="M50.1911 53.9677L56.8878 59.5341L60.3052 62.1873L62.0351 61.9432L62.9902 59.3325L64.2797 54.2436L66.0839 56.6262L70.9658 66.9896L76.4473 117.119C76.4473 117.119 66.8958 119.921 61.9396 120.256C56.9833 120.59 49.1033 119.242 49.1033 119.242V92.8638L46.2962 66.7402L49.687 56.7323L50.1911 53.9677Z" fill="white"/>
<path d="M64.3433 119.921C64.3366 119.876 64.3366 119.829 64.3433 119.783C64.3433 119.677 64.3433 119.544 64.3433 119.369C64.3433 118.993 64.3115 118.462 64.285 117.777C64.2372 116.382 64.1735 114.392 64.0886 111.94C63.9188 107.005 63.6482 100.192 63.2608 92.6727C62.8734 85.1535 62.433 78.3454 62.0934 73.421L61.6901 67.5839C61.6424 66.9047 61.6052 66.374 61.584 65.992C61.584 65.8169 61.584 65.6842 61.584 65.5781C61.584 65.472 61.584 65.4401 61.584 65.4348C61.5897 65.4824 61.5897 65.5305 61.584 65.5781C61.584 65.6789 61.584 65.8169 61.6317 65.9867C61.6636 66.3634 61.7113 66.8941 61.775 67.5786C61.8971 68.953 62.0616 70.9429 62.2473 73.4157C62.624 78.3347 63.0804 85.1376 63.4678 92.6621C63.8551 100.187 64.1045 106.989 64.2372 111.935C64.3062 114.403 64.3539 116.398 64.3699 117.772C64.3699 118.457 64.3699 118.987 64.3699 119.364V119.778C64.3486 119.873 64.3433 119.921 64.3433 119.921Z" fill="#2E2166"/>
<path d="M46.8747 59.1149L47.3522 58.8602L37.8007 63.8642L41.409 88.5709L43.4149 101.306L35.9434 131.511C35.9434 131.511 41.5576 135.177 44.37 134.456C45.8717 134.068 47.1559 131.049 48.1482 128.672C50.1343 123.93 51.423 118.925 51.9741 113.814C52.5048 108.672 53.0354 102.139 52.6693 97.6714C51.9688 89.3563 50.8704 75.6391 50.7696 72.0307C50.6688 68.4224 49.8197 55.1298 49.8197 55.1298L46.8747 59.1149Z" fill="#2E2166"/>
<path d="M64.5027 54.0048L70.0532 57.0135L74.9245 57.8466L81.4939 72.227L80.2416 98.2286L86.8003 130.327C86.8003 130.327 81.9927 132.031 80.0877 131.33C78.1827 130.63 75.5825 126.321 75.4817 123.715C75.3809 121.11 71.677 95.8725 71.677 95.8725L68.525 66.2043C68.2269 63.3756 67.4367 60.6208 66.1901 58.0642L64.5027 54.0048Z" fill="#2E2166"/>
<path d="M70.0531 57.8467C70.1164 57.9095 70.1749 57.9769 70.2282 58.0483L70.727 58.6533L72.563 60.9562L72.6002 61.004L72.5524 61.0411L70.9923 62.2245V62.0971L72.823 62.6755H72.8761V62.7392C72.8443 65.9921 72.8018 70.0939 72.754 74.5407C72.6744 79.9692 72.6002 84.8776 72.5471 88.4542C72.5153 90.2212 72.4834 91.638 72.4622 92.6675C72.4622 93.1504 72.4622 93.5377 72.4303 93.8137C72.4303 93.9357 72.4303 94.0312 72.4303 94.1108C72.4303 94.1904 72.4303 94.2117 72.4303 94.2117C72.4303 94.2117 72.4303 94.1798 72.4303 94.1108C72.4303 94.0418 72.4303 93.9357 72.4303 93.8137C72.4303 93.5324 72.4303 93.1504 72.4303 92.6675C72.4303 91.654 72.4303 90.2159 72.4303 88.4489C72.4675 84.8776 72.5153 79.9586 72.5736 74.5354C72.6373 70.0939 72.6957 65.992 72.7381 62.7339L72.7965 62.8135L70.9764 62.2192L70.8384 62.1767L70.9552 62.0918L72.5471 60.9244V61.0146L70.7535 58.6798L70.2813 58.0536C70.2001 57.9905 70.1238 57.9213 70.0531 57.8467Z" fill="#CDCDCD"/>
<path d="M52.2394 92.4977C52.2221 92.468 52.2096 92.4358 52.2023 92.4022L52.1068 92.1103L51.7406 90.9854C51.4222 90.0143 50.9447 88.6081 50.3344 86.8782L49.3262 84.0552C48.9278 82.9771 48.5859 81.8789 48.3021 80.7652C47.6858 78.21 47.2058 75.6239 46.864 73.0178C46.3705 69.4094 46.0468 66.0027 45.8558 63.0789V63.0364L45.8876 63.0046L47.4796 61.4869V61.6143L45.9831 60.4787L45.9301 60.4309L45.9725 60.3726L48.6682 56.7164L49.4058 55.7294L49.6074 55.48C49.6284 55.4502 49.6515 55.4218 49.6764 55.3951C49.6764 55.3951 49.6764 55.4323 49.6234 55.4907L49.4429 55.756L48.7319 56.7695L46.0787 60.484V60.3779L47.5804 61.5028L47.66 61.5612L47.591 61.6249L45.9991 63.1585L46.0256 63.0842C46.2379 66.008 46.5562 69.4094 47.0869 73.0125C47.4249 75.6156 47.896 78.1997 48.4984 80.7546C48.8026 81.9255 49.1369 83.0187 49.5013 84.034L50.4883 86.8676C51.0826 88.6028 51.5496 90.0143 51.8308 90.996C51.9794 91.4895 52.0908 91.8716 52.1598 92.1316C52.1917 92.2536 52.2182 92.3544 52.2341 92.4287C52.25 92.503 52.2394 92.4977 52.2394 92.4977Z" fill="#CDCDCD"/>
<path d="M76.7976 110.609L77.9915 114.318L84.7519 113.697L82.6453 110.147L76.7976 110.609Z" fill="#2E2166"/>
<path d="M76.8029 110.609C76.8029 110.609 76.9355 110.609 77.2061 110.555L78.3895 110.439C79.4136 110.343 80.8888 110.205 82.6346 110.057H82.6877L82.7195 110.11L84.8421 113.649L84.9217 113.787H84.7625L84.4123 113.819L78.0021 114.408H77.9384V114.35C77.5723 113.187 77.291 112.227 77.1 111.601C77.0151 111.298 76.9408 111.07 76.8824 110.863C76.8558 110.782 76.8345 110.698 76.8188 110.614C76.8603 110.701 76.8958 110.792 76.9249 110.884L77.1849 111.633C77.4131 112.296 77.7156 113.225 78.0923 114.286L78.0074 114.227L84.4176 113.612L84.7625 113.58L84.6829 113.734L82.5869 110.184L82.6718 110.232C80.9631 110.359 79.4879 110.449 78.4797 110.513L77.2698 110.582C76.9674 110.609 76.8029 110.614 76.8029 110.609Z" fill="#CDCDCD"/>
<g opacity="0.3">
<path d="M72.7753 62.7499L73.8896 64.2887C73.8896 64.2887 73.5766 87.6052 72.3932 93.3945L72.7753 62.7499Z" fill="white"/>
</g>
<path d="M50.1912 58.8549C50.308 59.0375 50.4491 59.2035 50.6104 59.3484C50.897 59.6508 51.3162 60.0806 51.8415 60.6113C52.9028 61.6726 54.3514 63.1 55.9858 64.6707L57.0471 65.732L57.2275 65.9071L57.3124 65.6736C57.8431 64.1984 58.3737 62.8612 58.7558 61.7575L58.5595 61.7999L59.9391 63.0416C60.098 63.2028 60.2762 63.3436 60.4698 63.4608C60.3434 63.2649 60.1917 63.0865 60.0187 62.9302C59.7163 62.6171 59.2705 62.1661 58.7133 61.6142L58.586 61.4869L58.517 61.6567C58.0925 62.7551 57.5725 64.0817 56.9994 65.5463L57.2647 65.4879L56.2034 64.4266C54.569 62.8347 53.0779 61.4444 51.9848 60.4362C51.4541 59.9055 50.9978 59.5235 50.6847 59.2528C50.5381 59.0994 50.3722 58.9656 50.1912 58.8549Z" fill="#2E2166"/>
<path d="M62.709 62.9674C63.0964 62.2886 63.4265 61.5786 63.696 60.8448L63.4784 60.882C64.2709 61.915 64.9239 63.048 65.4205 64.2516C65.5108 64.4585 65.585 64.6655 65.6593 64.8618L65.8397 65.35L65.9777 64.8512C66.3311 63.5511 66.5253 62.213 66.5561 60.8661C66.5965 60.319 66.5608 59.769 66.45 59.2317C66.3826 59.7705 66.3437 60.3125 66.3332 60.8555C66.2357 62.1764 66.0082 63.4846 65.654 64.761H65.9724C65.8981 64.5593 65.8185 64.3471 65.7283 64.1348C65.2217 62.9022 64.5311 61.7536 63.68 60.7281L63.5368 60.5583L63.4572 60.7599C63.1488 61.4744 62.8985 62.2127 62.709 62.9674Z" fill="#2E2166"/>
<path d="M63.9136 64.3152L62.5923 66.2627H60.6077L59.5464 64.3152L60.5599 62.1767L62.2898 61.9326L63.9136 64.3152Z" fill="#2E2166"/>
<path d="M62.6666 65.2704L68.6522 110.465L63.5368 117.401L58.4161 110.046L60.682 65.2704H62.6666Z" fill="#2E2166"/>
<path d="M74.3193 114.408C74.3117 114.742 74.333 115.075 74.383 115.406C74.4626 116.106 74.5634 116.997 74.6854 118.107C74.8075 119.216 74.9932 120.622 75.1789 122.113C75.4125 123.755 75.8162 125.368 76.3835 126.926C77.0043 128.555 77.8109 130.157 79.1853 131.006C79.8343 131.366 80.5661 131.549 81.3079 131.537C81.9411 131.542 82.5734 131.489 83.197 131.378C84.0968 131.229 84.9839 131.011 85.8502 130.725C86.1739 130.638 86.4871 130.515 86.7841 130.359C86.4558 130.421 86.1315 130.502 85.813 130.603C84.9396 130.831 84.0537 131.008 83.1598 131.134C82.5488 131.226 81.9309 131.265 81.3132 131.251C80.6178 131.26 79.9319 131.088 79.3233 130.752C78.0762 129.972 77.275 128.417 76.67 126.814C75.4336 123.551 75.2691 120.346 74.8924 118.085C74.7279 116.992 74.5899 116.09 74.4838 115.395C74.4562 115.062 74.4011 114.732 74.3193 114.408Z" fill="#CDCDCD"/>
<path d="M52.3296 115.734C52.3279 115.835 52.3118 115.935 52.2818 116.032L52.0749 116.881C51.8945 117.613 51.6079 118.669 51.2365 119.969C50.2902 123.361 49.1438 126.694 47.8032 129.95C47.4099 130.88 46.958 131.784 46.4501 132.657C46.2066 133.077 45.9241 133.473 45.6063 133.84L45.3569 134.095C45.2614 134.174 45.1606 134.243 45.0651 134.318C44.9599 134.386 44.8478 134.443 44.7308 134.487C44.6193 134.525 44.5026 134.535 44.3912 134.562C43.5342 134.689 42.6599 134.629 41.8282 134.387C41.1022 134.197 40.3925 133.951 39.7056 133.649C38.7261 133.222 37.7775 132.727 36.8666 132.169C36.5429 131.972 36.2935 131.808 36.1344 131.696C36.046 131.644 35.964 131.582 35.8903 131.511C35.986 131.545 36.0769 131.591 36.1609 131.648L36.9197 132.073C37.8463 132.593 38.8012 133.06 39.7799 133.474C40.4557 133.754 41.1509 133.984 41.86 134.164C42.6574 134.387 43.4931 134.437 44.3116 134.312C44.7372 134.242 45.1184 134.008 45.3729 133.66C45.6781 133.303 45.9499 132.92 46.1847 132.513C46.682 131.658 47.125 130.771 47.5113 129.86C48.847 126.613 50.016 123.299 51.0136 119.932C51.3957 118.669 51.7087 117.634 51.9369 116.87C52.0395 116.538 52.1244 116.262 52.1916 116.042C52.2261 115.935 52.2724 115.832 52.3296 115.734Z" fill="#CDCDCD"/>
<path d="M41.8335 61.8743C41.8335 61.8743 33.6245 63.7156 32.5791 70.7732C31.3746 78.8973 30.3186 97.491 30.3186 97.491L44.3912 78.6479" fill="#2E2166"/>
<path d="M39.2173 63.4928C39.2173 63.4928 39.5781 63.8165 40.1194 64.3737C41.5349 65.8329 42.5161 67.6575 42.953 69.643C43.1175 70.4018 43.1547 70.8847 43.1865 70.8847C43.2053 70.7704 43.2053 70.6539 43.1865 70.5397C43.1711 70.2297 43.1339 69.9212 43.0751 69.6164C42.7025 67.5824 41.7001 65.7168 40.2096 64.2835C39.9862 64.0664 39.7486 63.8643 39.4985 63.6785C39.4133 63.6046 39.3188 63.5421 39.2173 63.4928Z" fill="#2E2166"/>
<path d="M81.2282 67.6211C81.138 67.6211 80.8515 74.1851 80.5968 82.2881C80.3421 90.391 80.2041 96.9604 80.2996 96.9604C80.3951 96.9604 80.6711 90.4016 80.9311 82.2987C81.1911 74.1958 81.3185 67.6264 81.2282 67.6211Z" fill="#CDCDCD"/>
<path d="M37.8167 63.8641C37.8167 63.8641 33.996 66.4431 33.5715 68.5285C33.2107 70.2159 30.1913 95.5913 29.804 98.7433C29.4166 101.895 27.9149 108.465 31.7673 111.081C34.3569 112.837 42.5394 114.599 42.5394 114.599C41.7328 110.826 43.3831 108.067 47.4107 105.976L41.9398 100.813L44.3913 78.6479L37.8167 63.8641Z" fill="#2E2166"/>
<path d="M43.4306 101.296C43.335 101.296 41.9978 94.3973 40.443 85.8593C38.8882 77.3212 37.6996 70.3645 37.7898 70.3645C37.88 70.3645 39.2226 77.2629 40.7826 85.8009C42.3427 94.339 43.5208 101.274 43.4306 101.296Z" fill="#CDCDCD"/>
<path d="M42.3745 96.2122C42.4016 96.651 42.3892 97.0915 42.3373 97.5282C42.2843 98.3506 42.1888 99.5021 42.072 100.829L42.0349 100.717L43.0962 101.704C44.3113 102.856 45.3992 103.912 46.1792 104.687C46.62 105.083 47.0282 105.514 47.3997 105.976C46.9193 105.628 46.4669 105.243 46.0465 104.824C45.2293 104.092 44.1203 103.057 42.9051 101.906L41.8438 100.914L41.7961 100.866V100.802C41.9287 99.4809 42.0508 98.3294 42.1516 97.5122C42.1856 97.0729 42.2603 96.6377 42.3745 96.2122Z" fill="#CDCDCD"/>
<path d="M36.4738 104.087C37.0344 103.155 37.8476 102.4 38.8192 101.911C39.7449 101.341 40.815 101.048 41.9023 101.068C40.8826 101.311 39.8931 101.667 38.9519 102.129C38.0571 102.69 37.2262 103.346 36.4738 104.087Z" fill="#CDCDCD"/>
<path d="M55.0732 82.3147C55.0442 82.8033 54.9189 83.2813 54.7045 83.7213C54.4901 84.1613 54.1909 84.5546 53.824 84.8785C53.4571 85.2025 53.0298 85.4508 52.5667 85.6091C52.1035 85.7674 51.6137 85.8326 51.1253 85.801C50.6144 85.7746 50.1146 85.6421 49.6578 85.4118C49.201 85.1816 48.7972 84.8587 48.472 84.4638C47.4479 83.2008 45.5959 81.3967 43.293 81.2799C39.727 81.057 37.0579 83.758 36.8032 87.8015C36.5485 91.845 38.8674 94.8538 42.4386 95.0766C44.7416 95.2199 46.8005 93.6598 47.9732 92.5349C48.3415 92.1851 48.7782 91.9154 49.2558 91.7428C49.7335 91.5702 50.2417 91.4984 50.7485 91.5319C51.2371 91.561 51.7151 91.6863 52.1551 91.9007C52.5951 92.1151 52.9884 92.4143 53.3124 92.7812C53.6364 93.1481 53.8846 93.5753 54.0429 94.0385C54.2012 94.5016 54.2664 94.9915 54.2348 95.4799L52.6429 120.707L108.78 123.095L109.995 96.5624C110.024 96.0738 110.149 95.5958 110.364 95.1558C110.578 94.7158 110.877 94.3225 111.244 93.9986C111.611 93.6746 112.038 93.4263 112.501 93.268C112.965 93.1097 113.454 93.0445 113.943 93.0761C114.454 93.1025 114.953 93.235 115.41 93.4653C115.867 93.6955 116.271 94.0184 116.596 94.4133C117.62 95.6763 119.472 97.4804 121.775 97.6237C125.341 97.8466 128.015 95.1456 128.265 91.1021C128.514 87.0586 126.201 84.0499 122.635 83.827C120.332 83.6837 118.268 85.2438 117.095 86.3688C116.727 86.7191 116.29 86.9891 115.813 87.1617C115.335 87.3344 114.826 87.4059 114.32 87.3717C112.266 87.2443 110.356 85.6896 110.483 83.6572L111.438 61.1367L55.848 58.77L55.0732 82.3147Z" fill="#412D89"/>
<path d="M48.2276 107.812C48.2276 107.812 49.8832 106.528 51.1143 106.475C52.3454 106.422 53.9479 106.905 54.2663 106.745C54.5847 106.586 55.3276 105.88 55.8158 106.469C56.304 107.059 56.8771 109.202 54.3194 109.791H52.5577C52.6479 110.638 52.8643 111.466 53.1997 112.248C53.6242 112.943 59.6099 120.478 59.6099 120.478C59.6099 120.478 60.3581 121.227 59.9867 121.975C59.6152 122.723 58.0074 122.293 58.0074 122.293C57.6844 122.578 57.2944 122.776 56.874 122.869C56.4535 122.962 56.0164 122.946 55.6035 122.824C54.9676 122.61 54.3586 122.324 53.7887 121.97C53.3746 122.287 52.8673 122.459 52.3454 122.459C51.8235 122.459 51.3162 122.287 50.902 121.97C49.4056 120.85 43.4359 113.479 43.4359 113.479L46.1952 107.584L48.2276 107.812Z" fill="white"/>
<path d="M46.5563 106.448L48.2543 107.802C45.7338 109.638 44.4231 111.887 44.439 114.588L42.2687 113.087C42.2687 113.087 41.876 107.547 46.5563 106.448Z" fill="white"/>
<path d="M53.3856 117.401C53.4546 117.348 54.3514 118.547 55.6303 119.858C56.9091 121.168 58.1084 122.076 58.05 122.15C57.7497 122.014 57.4709 121.836 57.2222 121.619C56.5883 121.144 55.9906 120.623 55.4339 120.059C54.8809 119.492 54.3701 118.886 53.9057 118.244C53.6893 117.992 53.5139 117.707 53.3856 117.401Z" fill="#2E2166"/>
<path d="M50.4193 118.897C50.4883 118.839 51.1516 119.64 52.1333 120.431C52.7795 120.865 53.3497 121.403 53.8207 122.023C53.1673 121.609 52.5464 121.146 51.9635 120.638C51.3276 120.177 50.8005 119.583 50.4193 118.897Z" fill="#2E2166"/>
<path d="M108.381 72.6091C108.381 72.6091 108.647 70.7943 112.462 71.4099C114.855 71.7973 113.603 73.3467 113.603 73.3467C113.782 73.5012 113.92 73.6968 114.007 73.9166C114.093 74.1365 114.125 74.374 114.1 74.6089C114.074 74.8438 113.992 75.0689 113.86 75.265C113.728 75.4611 113.551 75.6223 113.343 75.7346L113.592 75.9203C113.592 75.9203 115.497 76.8755 113.852 78.5736C114.019 78.876 114.088 79.2228 114.049 79.566C114.01 79.9092 113.865 80.2318 113.635 80.4892C112.818 81.3117 110.764 80.2186 110.764 80.2186C110.764 80.2186 107.861 80.1708 107.697 79.4014C107.646 79.1678 107.675 78.9239 107.78 78.7091C107.885 78.4943 108.06 78.3213 108.275 78.218C108.943 78.0941 109.619 78.0125 110.297 77.9739C110.297 77.9739 107.761 77.9474 107.532 77.4433C107.124 76.5571 107.23 75.6497 110.297 75.7665C110.297 75.7665 108.015 75.7187 107.755 75.2358C107.495 74.7529 107.814 74.0206 108.636 73.6439C109.121 73.4121 109.654 73.301 110.191 73.3202C110.191 73.3202 108.058 73.7553 108.381 72.6091Z" fill="white"/>
<path d="M113.486 73.3573C112.801 73.4383 112.111 73.4631 111.422 73.4316C110.735 73.482 110.045 73.482 109.358 73.4316C110.019 73.2035 110.718 73.1026 111.417 73.1345C112.114 73.0802 112.816 73.1558 113.486 73.3573Z" fill="#2E2166"/>
<path d="M113.385 75.8248C112.737 75.8769 112.086 75.8769 111.438 75.8248C110.789 75.8626 110.137 75.8484 109.491 75.7824C110.12 75.5766 110.783 75.4972 111.443 75.5489C112.103 75.5073 112.764 75.6012 113.385 75.8248Z" fill="#2E2166"/>
<path d="M113.9 78.7009C113.868 78.7752 113.003 78.3985 111.873 78.218C110.743 78.0376 109.809 78.1066 109.798 78.0217C110.487 77.8117 111.218 77.7843 111.921 77.9421C112.636 78.015 113.319 78.2769 113.9 78.7009Z" fill="#2E2166"/>
</svg>
